<svg width="24" height="24" viewBox="0 0 24 24" fill="none" xmlns="http://www.w3.org/2000/svg">
<path fill-rule="evenodd" clip-rule="evenodd" d="M11.2526 3.01994C7.54265 3.34188 4.3639 5.93578 3.3454 9.47231C3.07332 10.4169 2.99838 10.9716 3.00003 12.028C3.0016 13.0305 3.06672 13.5253 3.31669 14.4338C4.14336 17.4384 6.56378 19.8573 9.57025 20.6835C10.4711 20.9311 10.9735 20.9971 11.9775 20.9999C12.9515 21.0026 13.3588 20.9551 14.2287 20.7376C16.7286 20.1124 18.9046 18.3559 20.0819 16.0126C20.4427 15.2946 20.7704 14.2442 20.9234 13.316C21.0322 12.6559 21.0238 11.2819 20.9068 10.5993C20.5621 8.58851 19.6807 6.90386 18.2516 5.52493C16.7652 4.09065 14.8845 3.22504 12.8433 3.03564C12.4114 2.99559 11.6229 2.98778 11.2526 3.01994ZM13.2259 4.37875C14.0409 4.52376 14.6242 4.70902 15.3343 5.04831C16.945 5.81785 18.188 7.06034 18.9637 8.67593C19.9839 10.801 19.983 13.231 18.9611 15.3485C17.1031 19.1986 12.5109 20.8123 8.66085 18.9681C7.04709 18.1952 5.80324 16.9514 5.03238 15.3399C4.6932 14.6309 4.51278 14.0622 4.3583 13.2154C4.26068 12.6803 4.26068 11.3355 4.3583 10.8005C4.51278 9.95368 4.6932 9.38497 5.03238 8.67593C5.52173 7.65299 6.17221 6.81113 7.02394 6.09854C8.19711 5.11697 9.59481 4.51571 11.1519 4.32272C11.5826 4.26931 12.795 4.30208 13.2259 4.37875ZM13.0816 11.3068L10.4405 13.9464L9.40122 12.6451C8.82964 11.9294 8.35047 11.3307 8.33638 11.3147C8.31302 11.2882 7.35937 12.0194 7.33609 12.0817C7.33057 12.0965 8.0026 12.9538 8.82956 13.9868L10.333 15.8652L13.4907 12.7093L16.6483 9.55341L16.2064 9.11036C15.9633 8.8667 15.7551 8.66736 15.7436 8.66736C15.7321 8.66736 14.5342 9.85515 13.0816 11.3068Z" fill="#232323" stroke="#232323" stroke-width="0.5"/>
</svg>
