<svg width="24" height="24" viewBox="0 0 24 24" fill="none" xmlns="http://www.w3.org/2000/svg">
<path fill-rule="evenodd" clip-rule="evenodd" d="M11.2548 2.33311C11.432 2.13531 11.6867 2.00845 11.9712 2.00042C11.9913 1.99984 12.0115 1.99986 12.0316 2.0005C12.1065 2.00283 12.1793 2.01338 12.2491 2.03129L18.6695 3.53298C19.1218 3.63878 19.4417 4.04216 19.4417 4.5067V8.56075C19.4417 8.86655 19.3018 9.15555 19.0619 9.3452C18.822 9.53486 18.5085 9.60433 18.211 9.53377L13 8.29807V15.5V17.5V18.48C13 20.424 11.424 22 9.48 22H7.52C5.57596 22 4 20.424 4 18.48V18.02C4 16.076 5.57596 14.5 7.52 14.5H11V7.0332V3.00001C11 2.74378 11.0964 2.51006 11.2548 2.33311ZM13 6.2426L17.4417 7.29588V5.2998L13 4.2609V6.2426ZM7.52 16.5H11V17.5V18.48C11 19.3195 10.3195 20 9.48 20H7.52C6.68053 20 6 19.3195 6 18.48V18.02C6 17.1805 6.68053 16.5 7.52 16.5Z" fill="#232323"/>
</svg>
