<svg width="24" height="24" viewBox="0 0 24 24" fill="none" xmlns="http://www.w3.org/2000/svg">
<path fill-rule="evenodd" clip-rule="evenodd" d="M21.1191 1.21471C21.3596 1.40433 21.5 1.69372 21.5 2V6.04211C21.5003 6.0563 21.5003 6.07046 21.5 6.08458V17.2C21.5 18.7464 20.2464 20 18.7 20H16.75C15.2312 20 14 18.7688 14 17.25C14 15.7312 15.2312 14.5 16.75 14.5H19.5V7.32691L9 9.81289V19.2C9 20.7464 7.74638 22 6.2 22H4.75C3.23122 22 2 20.7688 2 19.25C2 17.7312 3.23122 16.5 4.75 16.5H7V9.04237C6.9997 9.02819 6.9997 9.01404 7 8.99994V5C7 4.53761 7.31701 4.13552 7.76663 4.02761L20.2666 1.02761C20.5644 0.956135 20.8786 1.02508 21.1191 1.21471ZM9 7.75759L19.5 5.27161V3.2684L9 5.7884V7.75759ZM7 18.5H4.75C4.33578 18.5 4 18.8358 4 19.25C4 19.6642 4.33578 20 4.75 20H6.2C6.64182 20 7 19.6418 7 19.2V18.5ZM19.5 16.5H16.75C16.3358 16.5 16 16.8358 16 17.25C16 17.6642 16.3358 18 16.75 18H18.7C19.1418 18 19.5 17.6418 19.5 17.2V16.5Z" fill="#232323"/>
</svg>
