<svg width="24" height="24" viewBox="0 0 24 24" fill="none" xmlns="http://www.w3.org/2000/svg">
<path d="M12 2C6.477 2 2 6.477 2 12C2 17.523 6.477 22 12 22C17.523 22 22 17.523 22 12C22 6.477 17.523 2 12 2ZM12 4C16.418 4 20 7.582 20 12C20 16.418 16.418 20 12 20C7.582 20 4 16.418 4 12C4 7.582 7.582 4 12 4ZM12 7C10.63 7 9.43899 7.91199 9.09399 9.21899C8.95299 9.75299 9.279 10.328 9.812 10.469C10.346 10.61 10.89 10.284 11.031 9.75C11.146 9.316 11.543 9 12 9C12.551 9 12.998 9.444 13 10C13.002 10.478 12.738 10.978 12.219 11.5C12.085 11.634 11.918 11.765 11.75 11.906C11.666 11.977 11.421 12.18 11.375 12.219C10.953 12.575 10.894 13.234 11.25 13.656C11.606 14.079 12.234 14.106 12.656 13.75C12.686 13.725 12.963 13.522 13.062 13.438C13.272 13.261 13.445 13.087 13.625 12.906C14.484 12.044 15.004 11.109 15 10C14.994 8.344 13.655 7 12 7ZM12 15C11.448 15 11 15.448 11 16C11 16.552 11.448 17 12 17C12.552 17 13 16.552 13 16C13 15.448 12.552 15 12 15Z" fill="#232323"/>
</svg>
