<svg width="24" height="24" viewBox="0 0 24 24" fill="none" xmlns="http://www.w3.org/2000/svg">
<path d="M11.3748 7.75038H9.4998V4.62533C9.4998 4.36658 9.34105 4.13532 9.10105 4.04157C8.86104 3.94907 8.58729 4.01407 8.41229 4.20533L2.16219 11.0804C1.94594 11.3179 1.94594 11.6817 2.16219 11.9204L8.41229 18.7956C8.53354 18.9281 8.70229 19.0006 8.87479 19.0006C8.95105 19.0006 9.0273 18.9868 9.10105 18.9593C9.34105 18.8656 9.4998 18.6343 9.4998 18.3755V15.2505H11.2386C14.8061 15.2505 18.2612 16.528 20.9687 18.8506C21.1525 19.0093 21.4162 19.0456 21.6362 18.9431C21.8587 18.8418 22 18.6193 22 18.3755C22 12.5167 17.2337 7.75038 11.3748 7.75038ZM11.2386 14.0005H8.87479C8.52979 14.0005 8.24979 14.2805 8.24979 14.6255V16.7593L3.46971 11.5004L8.24979 6.24161V8.37539C8.24979 8.7204 8.52979 9.0004 8.87479 9.0004H11.3748C13.8786 9.0004 16.2337 9.97541 18.0037 11.7454C19.45 13.1917 20.3662 15.028 20.6525 17.0155C17.9149 15.063 14.6236 14.0005 11.2386 14.0005Z" fill="#232323" stroke="#232323" stroke-width="0.5"/>
</svg>
