<svg width="32" height="32" viewBox="0 0 32 32" fill="none" xmlns="http://www.w3.org/2000/svg">
<path d="M26.1153 2.66663H5.88532C5.03162 2.66663 4.21314 3.00562 3.60953 3.60916C3.00594 4.21274 2.66699 5.03117 2.66699 5.88495V26.115C2.66699 26.9687 3.00598 27.7871 3.60953 28.3908C4.21311 28.9943 5.03154 29.3333 5.88532 29.3333H26.1153C26.969 29.3333 27.7875 28.9943 28.3911 28.3908C28.9947 27.7872 29.3337 26.9687 29.3337 26.115V5.88495C29.3337 5.03125 28.9947 4.21278 28.3911 3.60916C27.7875 3.00558 26.9691 2.66663 26.1153 2.66663ZM28.4142 26.115V26.1147C28.4142 26.7244 28.1721 27.3091 27.741 27.7404C27.3097 28.1715 26.725 28.4136 26.1153 28.4136H5.8853C5.27563 28.4136 4.69096 28.1715 4.2596 27.7404C3.82856 27.3091 3.58642 26.7244 3.58642 26.1147V5.88472C3.58642 5.27504 3.82856 4.69037 4.2596 4.25901C4.69095 3.82797 5.27561 3.58584 5.8853 3.58584H26.1153C26.725 3.58584 27.3097 3.82797 27.741 4.25901C28.1721 4.69036 28.4142 5.27502 28.4142 5.88472V26.115Z" fill="#232323"/>
<path d="M24.1982 10.8645C24.9298 10.8645 25.6315 10.5736 26.1488 10.0563C26.6662 9.53899 26.957 8.83724 26.957 8.10571C26.957 7.37418 26.6661 6.67245 26.1488 6.15512C25.6315 5.63781 24.9298 5.34692 24.1982 5.34692C23.4667 5.34692 22.765 5.63781 22.2477 6.15512C21.7303 6.67243 21.4395 7.37418 21.4395 8.10571C21.4395 8.83724 21.7303 9.53897 22.2477 10.0563C22.765 10.5736 23.4667 10.8645 24.1982 10.8645ZM24.1982 6.26677C24.686 6.26677 25.154 6.46048 25.4987 6.80524C25.8435 7.15033 26.0372 7.61792 26.0372 8.10574C26.0372 8.59356 25.8435 9.06149 25.4987 9.40624C25.154 9.75099 24.6861 9.94472 24.1982 9.94472C23.7104 9.94472 23.2428 9.75101 22.8977 9.40624C22.553 9.06148 22.3593 8.59356 22.3593 8.10574C22.3593 7.61792 22.553 7.15032 22.8977 6.80524C23.2428 6.46048 23.7104 6.26677 24.1982 6.26677Z" fill="#232323"/>
<path d="M19.6187 20.3588C19.7971 20.1792 19.7971 19.8896 19.6187 19.7103L13.7016 13.8114L5.06693 22.4362C4.96975 22.5196 4.91139 22.6399 4.90658 22.7679C4.90177 22.8958 4.95019 23.0203 5.04095 23.1107C5.1314 23.2012 5.25583 23.2499 5.3838 23.2451C5.51176 23.24 5.63202 23.1819 5.71509 23.0847L13.7014 15.1077L18.9659 20.3584C19.0522 20.4453 19.1696 20.4943 19.2924 20.4943C19.4149 20.4943 19.5323 20.4453 19.6186 20.3584L19.6187 20.3588Z" fill="#232323"/>
<path d="M22.087 19.4623L17.2455 24.2762C17.1589 24.3621 17.1102 24.4789 17.1096 24.6011C17.1092 24.7229 17.1573 24.84 17.2433 24.9266C17.4223 25.1068 17.7135 25.1081 17.8937 24.9291L22.0822 20.7451L26.2662 24.9291C26.4465 25.1107 26.7399 25.1116 26.9215 24.9314C27.103 24.7512 27.104 24.4577 26.9237 24.2762L22.087 19.4623Z" fill="#232323"/>
</svg>
