<svg width="32" height="32" viewBox="0 0 32 32" fill="none" xmlns="http://www.w3.org/2000/svg">
<path d="M16.0033 25.0011C13.2247 25.037 10.5005 24.2294 8.1903 22.6851C5.8801 21.1408 4.09244 18.9324 3.06325 16.3511C2.97892 16.1254 2.97892 15.8769 3.06325 15.6511C4.09244 13.0699 5.8801 10.8614 8.1903 9.31715C10.5005 7.77285 13.2247 6.96532 16.0033 7.00114C18.7818 6.96532 21.506 7.77285 23.8162 9.31715C26.1264 10.8614 27.9141 13.0699 28.9433 15.6511C29.0276 15.8769 29.0276 16.1254 28.9433 16.3511C27.9141 18.9324 26.1264 21.1408 23.8162 22.6851C21.506 24.2294 18.7818 25.037 16.0033 25.0011ZM5.08325 16.0011C6.01758 18.1094 7.55061 19.8967 9.49197 21.1411C11.4333 22.3856 13.6975 23.0324 16.0033 23.0011C18.309 23.0324 20.5732 22.3856 22.5145 21.1411C24.4559 19.8967 25.9889 18.1094 26.9233 16.0011C25.9889 13.8929 24.4559 12.1056 22.5145 10.8611C20.5732 9.61668 18.309 8.96991 16.0033 9.00114C13.6975 8.96991 11.4333 9.61668 9.49197 10.8611C7.55061 12.1056 6.01758 13.8929 5.08325 16.0011Z" fill="#D8D8D8"/>
<path d="M16.0029 21.0012C15.014 21.0012 14.0473 20.708 13.2251 20.1586C12.4028 19.6092 11.762 18.8283 11.3835 17.9146C11.0051 17.001 10.9061 15.9957 11.099 15.0258C11.2919 14.0559 11.7681 13.165 12.4674 12.4657C13.1667 11.7664 14.0576 11.2902 15.0275 11.0973C15.9974 10.9044 17.0027 11.0034 17.9164 11.3818C18.83 11.7603 19.6109 12.4011 20.1603 13.2234C20.7097 14.0456 21.0029 15.0123 21.0029 16.0012C21.0029 17.3273 20.4761 18.5991 19.5385 19.5368C18.6008 20.4744 17.329 21.0012 16.0029 21.0012ZM16.0029 13.0012C15.4096 13.0012 14.8296 13.1772 14.3362 13.5068C13.8429 13.8365 13.4584 14.305 13.2313 14.8532C13.0042 15.4014 12.9448 16.0046 13.0606 16.5865C13.1763 17.1684 13.4621 17.703 13.8816 18.1225C14.3012 18.5421 14.8357 18.8278 15.4177 18.9436C15.9996 19.0593 16.6028 18.9999 17.151 18.7729C17.6992 18.5458 18.1677 18.1613 18.4973 17.6679C18.827 17.1746 19.0029 16.5946 19.0029 16.0012C19.0029 15.2056 18.6869 14.4425 18.1243 13.8799C17.5616 13.3173 16.7986 13.0012 16.0029 13.0012Z" fill="#D8D8D8"/>
</svg>
