<svg width="16" height="16" viewBox="0 0 16 16" fill="none" xmlns="http://www.w3.org/2000/svg">
<path fill-rule="evenodd" clip-rule="evenodd" d="M11.264 4.94184C11.288 4.9838 11.33 5.01376 11.384 5.01376C12.824 5.01376 14 6.18846 14 7.62686V11.1869C14 12.6253 12.824 13.8 11.384 13.8H4.616C3.17 13.8 2 12.6253 2 11.1869V7.62686C2 6.18846 3.17 5.01376 4.616 5.01376C4.664 5.01376 4.712 4.98979 4.73 4.94184L4.766 4.86992C4.78668 4.82639 4.80792 4.78167 4.82947 4.73627C4.98296 4.41296 5.15277 4.05528 5.258 3.84506C5.534 3.30566 6.002 3.00599 6.584 3H9.41C9.992 3.00599 10.466 3.30566 10.742 3.84506C10.8365 4.03386 10.9805 4.338 11.1193 4.63112C11.1479 4.69158 11.1763 4.75157 11.204 4.80999L11.264 4.94184ZM10.8313 7.24383C10.8313 7.5435 11.0713 7.78323 11.3713 7.78323C11.6713 7.78323 11.9173 7.5435 11.9173 7.24383C11.9173 6.94416 11.6713 6.69844 11.3713 6.69844C11.0713 6.69844 10.8313 6.94416 10.8313 7.24383ZM6.96236 8.1741C7.24436 7.89241 7.61036 7.74258 8.00036 7.74258C8.39036 7.74258 8.75636 7.89241 9.03236 8.1681C9.30836 8.4438 9.45836 8.80939 9.45836 9.19896C9.45236 10.0021 8.80436 10.6553 8.00036 10.6553C7.61036 10.6553 7.24436 10.5055 6.96836 10.2298C6.69236 9.95412 6.54236 9.58852 6.54236 9.19896V9.19296C6.53636 8.81538 6.68636 8.44979 6.96236 8.1741ZM9.66267 10.8641C9.23668 11.2896 8.64868 11.5533 8.00068 11.5533C7.37068 11.5533 6.78268 11.3076 6.33268 10.8641C5.88868 10.4146 5.64269 9.82721 5.64269 9.19791C5.63669 8.5746 5.88268 7.98726 6.32668 7.53776C6.77668 7.08826 7.37068 6.84253 8.00068 6.84253C8.63068 6.84253 9.22468 7.08826 9.66867 7.53176C10.1127 7.98126 10.3587 8.5746 10.3587 9.19791C10.3527 9.85119 10.0887 10.4385 9.66267 10.8641Z" fill="#D8D8D8"/>
</svg>
