<svg width="32" height="32" viewBox="0 0 32 32" fill="none" xmlns="http://www.w3.org/2000/svg">
<path d="M27.5075 24.1429H4.65039C5.5597 24.1429 6.43177 23.7816 7.07476 23.1387C7.71774 22.4957 8.07896 21.6236 8.07896 20.7143V15C8.07896 12.8783 8.92182 10.8434 10.4221 9.34315C11.9224 7.84285 13.9572 7 16.079 7C18.2007 7 20.2355 7.84285 21.7358 9.34315C23.2361 10.8434 24.079 12.8783 24.079 15V20.7143C24.079 21.6236 24.4402 22.4957 25.0832 23.1387C25.7261 23.7816 26.5982 24.1429 27.5075 24.1429Z" stroke="#232323" stroke-width="2" stroke-linecap="round" stroke-linejoin="round"/>
<path d="M18.3412 26C18.7881 26 19.1579 26.3858 18.922 26.7654C18.7713 27.008 18.5503 27.2285 18.2717 27.4142C17.9931 27.5999 17.6624 27.7472 17.2984 27.8478C16.9345 27.9483 16.5444 28 16.1504 28C15.7564 28 15.3663 27.9483 15.0023 27.8478C14.6384 27.7472 14.3076 27.5999 14.0291 27.4142C13.7505 27.2285 13.5295 27.008 13.3788 26.7654C13.1429 26.3858 13.5127 26 13.9596 26L16.1504 26H18.3412Z" fill="#232323"/>
<path d="M16.1504 5V7" stroke="#232323" stroke-width="2" stroke-linecap="round" stroke-linejoin="round"/>
</svg>
