<svg width="24" height="24" viewBox="0 0 24 24" fill="none" xmlns="http://www.w3.org/2000/svg">
<path d="M12 2C8.134 2 5 5.134 5 9C5 10.959 5.545 12.126 6.75 13.531C6.806 13.597 7.01301 13.848 7.06201 13.906C7.77301 14.735 8 15.187 8 16V18C8 20.209 9.791 22 12 22C14.209 22 16 20.209 16 18V16C16 15.187 16.227 14.735 16.938 13.906C16.987 13.848 17.194 13.597 17.25 13.531C18.455 12.126 19 10.959 19 9C19 5.134 15.866 2 12 2ZM12 4C14.761 4 17 6.239 17 9C17 10.416 16.67 11.145 15.75 12.219C15.698 12.279 15.46 12.531 15.406 12.594C14.693 13.426 14.278 14.174 14.097 15.006C12.829 15.006 11.168 15.011 9.89999 15.011C9.71899 14.178 9.30699 13.426 8.59399 12.594C8.53999 12.531 8.302 12.279 8.25 12.219C7.33 11.145 7 10.416 7 9C7 6.239 9.239 4 12 4ZM12 6C10.343 6 9 7.343 9 9C9 9.552 9.448 10 10 10C10.552 10 11 9.552 11 9C11 8.448 11.448 8 12 8C12.552 8 13 7.552 13 7C13 6.448 12.552 6 12 6ZM10 17C11.236 17 12.764 17 14 17V18C14 19.105 13.105 20 12 20C10.895 20 10 19.105 10 18V17Z" fill="#232323"/>
</svg>
