<svg width="24" height="24" viewBox="0 0 24 24" fill="none" xmlns="http://www.w3.org/2000/svg">
<path fill-rule="evenodd" clip-rule="evenodd" d="M14.8708 18.9309C17.3684 17.8953 19.1851 15.549 19.463 12.75H16.4846C16.3822 15.2327 15.7759 17.4296 14.8708 18.9309ZM12 21C16.9706 21 21 16.9706 21 12C21 7.02944 16.9706 3 12 3C7.02944 3 3 7.02944 3 12C3 16.9706 7.02944 21 12 21ZM9.12918 5.06907C6.63163 6.10472 4.81493 8.45102 4.53703 11.25H7.5154C7.61781 8.76732 8.22406 6.57036 9.12918 5.06907ZM9.01677 11.25C9.1062 9.26173 9.5459 7.53439 10.1597 6.30686C10.8943 4.83764 11.6316 4.5 12 4.5C12.3684 4.5 13.1057 4.83764 13.8403 6.30686C14.4541 7.53439 14.8938 9.26173 14.9832 11.25H9.01677ZM9.01677 12.75C9.1062 14.7383 9.5459 16.4656 10.1597 17.6931C10.8943 19.1624 11.6316 19.5 12 19.5C12.3684 19.5 13.1057 19.1624 13.8403 17.6931C14.4541 16.4656 14.8938 14.7383 14.9832 12.75H9.01677ZM7.5154 12.75C7.61781 15.2327 8.22406 17.4296 9.12918 18.9309C6.63164 17.8953 4.81493 15.549 4.53703 12.75H7.5154ZM16.4846 11.25C16.3822 8.76732 15.7759 6.57036 14.8708 5.06907C17.3684 6.10472 19.1851 8.45102 19.463 11.25H16.4846Z" fill="#232323"/>
</svg>
