<svg width="32" height="32" viewBox="0 0 32 32" fill="none" xmlns="http://www.w3.org/2000/svg">
<path fill-rule="evenodd" clip-rule="evenodd" d="M26.9188 12.5H24.9886V10.1666C24.9886 5.66352 20.948 2 15.9813 2C11.0145 2 6.97394 5.66352 6.97394 10.1666V12.5H5.04379C4.68816 12.5 4.40039 12.7609 4.40039 13.0834V27.6667C4.40039 28.9536 5.55456 30 6.97394 30H24.9887C26.408 30 27.5622 28.9536 27.5622 27.6666V13.0834C27.5622 12.7609 27.2744 12.5 26.9188 12.5ZM17.9081 24.6856C17.9282 24.8502 17.8698 25.0154 17.7479 25.1391C17.626 25.2627 17.4513 25.3333 17.2685 25.3333H14.6949C14.5121 25.3333 14.3374 25.2627 14.2155 25.1391C14.0936 25.0155 14.0352 24.8503 14.0553 24.6856L14.4612 21.3765C13.8021 20.9418 13.4082 20.2542 13.4082 19.5C13.4082 18.2131 14.5624 17.1666 15.9818 17.1666C17.4011 17.1666 18.5553 18.2131 18.5553 19.5C18.5553 20.2542 18.1614 20.9418 17.5023 21.3765L17.9081 24.6856ZM10.834 10.1666V12.5H21.1281V10.1666C21.1281 7.59349 18.8191 5.5 15.981 5.5C13.143 5.5 10.834 7.59349 10.834 10.1666Z" fill="#232323"/>
</svg>
