<svg width="24" height="24" viewBox="0 0 24 24" fill="none" xmlns="http://www.w3.org/2000/svg">
<path fill-rule="evenodd" clip-rule="evenodd" d="M6.5 11.25C6.5 10.0074 5.49264 9 4.25 9C3.00736 9 2 10.0074 2 11.25C2 12.4926 3.00736 13.5 4.25 13.5C5.49264 13.5 6.5 12.4926 6.5 11.25Z" fill="#232323"/>
<path fill-rule="evenodd" clip-rule="evenodd" d="M14 11.25C14 10.0074 12.9926 9 11.75 9C10.5074 9 9.5 10.0074 9.5 11.25C9.5 12.4926 10.5074 13.5 11.75 13.5C12.9926 13.5 14 12.4926 14 11.25Z" fill="#232323"/>
<path fill-rule="evenodd" clip-rule="evenodd" d="M21.5 11.25C21.5 10.0074 20.4926 9 19.25 9C18.0074 9 17 10.0074 17 11.25C17 12.4926 18.0074 13.5 19.25 13.5C20.4926 13.5 21.5 12.4926 21.5 11.25Z" fill="#232323"/>
</svg>
