<svg width="24" height="24" viewBox="0 0 24 24" fill="none" xmlns="http://www.w3.org/2000/svg">
<g clip-path="url(#clip0_14155_13370)">
<path fill-rule="evenodd" clip-rule="evenodd" d="M6.42424 5H10.2424C10.4766 5 10.6667 5.196 10.6667 5.4375V18.5625C10.6667 18.804 10.4766 19 10.2424 19H6.42424C6.19006 19 6 18.804 6 18.5625V5.4375C6 5.196 6.19006 5 6.42424 5ZM13.7573 5H17.5754C17.8096 5 17.9997 5.196 17.9997 5.4375V18.5625C17.9997 18.804 17.8096 19 17.5754 19H13.7573C13.5231 19 13.333 18.804 13.333 18.5625V5.4375C13.333 5.196 13.5231 5 13.7573 5Z" fill="white"/>
</g>
<defs>
<clipPath id="clip0_14155_13370">
<rect width="24" height="24" fill="white"/>
</clipPath>
</defs>
</svg>
