<svg width="24" height="24" viewBox="0 0 24 24" fill="none" xmlns="http://www.w3.org/2000/svg">
<path fill-rule="evenodd" clip-rule="evenodd" d="M3.96867 13.9157L13.6592 4.41662C14.906 3.19446 16.9283 3.19446 18.175 4.41662L19.4694 5.6854C20.7162 6.90755 20.7162 8.88985 19.4694 10.112L9.74061 19.6486C9.1843 20.1939 8.43007 20.4999 7.64282 20.4999H3.65854C3.28841 20.4999 2.99098 20.201 3.00021 19.8383L3.10043 15.8975C3.12036 15.1526 3.43127 14.4425 3.96867 13.9157ZM18.5376 6.59827L17.2433 5.32949C16.5108 4.61152 15.3225 4.61152 14.5901 5.32949L13.8378 6.06692L17.7858 9.93607L18.5376 9.19905C19.2701 8.48108 19.2701 7.31624 18.5376 6.59827ZM4.89954 14.8286L12.9065 6.97984L16.8545 10.849L8.80885 18.7356L8.70184 18.8317C8.40626 19.0744 8.03178 19.2088 7.64237 19.2088L4.33301 19.2083L4.41663 15.9304C4.4277 15.5168 4.60082 15.1214 4.89954 14.8286ZM21 19.8545C21 19.498 20.7052 19.2089 20.3415 19.2089H13.471L13.3816 19.2148C13.0602 19.2576 12.8125 19.5277 12.8125 19.8545C12.8125 20.211 13.1073 20.5 13.471 20.5H20.3415L20.4308 20.4941C20.7523 20.4514 21 20.1813 21 19.8545Z" fill="#232323"/>
<path d="M13.6592 4.41662L13.4842 4.23809V4.23809L13.6592 4.41662ZM3.96867 13.9157L3.79366 13.7372L3.96867 13.9157ZM18.175 4.41662L18 4.59515V4.59515L18.175 4.41662ZM19.4694 5.6854L19.6444 5.50686V5.50686L19.4694 5.6854ZM19.4694 10.112L19.6444 10.2905L19.4694 10.112ZM9.74061 19.6486L9.5656 19.4701L9.74061 19.6486ZM3.00021 19.8383L2.75029 19.8319L3.00021 19.8383ZM3.10043 15.8975L2.85052 15.8908L2.85051 15.8911L3.10043 15.8975ZM17.2433 5.32949L17.4183 5.15096H17.4183L17.2433 5.32949ZM18.5376 6.59827L18.3626 6.7768H18.3626L18.5376 6.59827ZM14.5901 5.32949L14.7651 5.50802L14.5901 5.32949ZM13.8378 6.06692L13.6628 5.88839L13.4806 6.06694L13.6628 6.24547L13.8378 6.06692ZM17.7858 9.93607L17.6108 10.1146L17.7858 10.2861L17.9608 10.1146L17.7858 9.93607ZM18.5376 9.19905L18.7126 9.37758L18.5376 9.19905ZM12.9065 6.97984L13.0815 6.80129L12.9065 6.62977L12.7315 6.8013L12.9065 6.97984ZM4.89954 14.8286L5.07454 15.0071L4.89954 14.8286ZM16.8545 10.849L17.0295 11.0275L17.2116 10.849L17.0294 10.6704L16.8545 10.849ZM8.80885 18.7356L8.97601 18.9219L8.98386 18.9142L8.80885 18.7356ZM8.70184 18.8317L8.86065 19.0251L8.86883 19.0177L8.70184 18.8317ZM7.64237 19.2088L7.64234 19.4588H7.64237V19.2088ZM4.33301 19.2083L4.08309 19.202L4.07655 19.4583L4.33297 19.4583L4.33301 19.2083ZM4.41663 15.9304L4.16672 15.9237L4.16671 15.924L4.41663 15.9304ZM13.471 19.2089V18.9589H13.4628L13.4545 18.9595L13.471 19.2089ZM13.3816 19.2148L13.3652 18.9654L13.3569 18.9659L13.3487 18.967L13.3816 19.2148ZM20.3415 20.5V20.75H20.3497L20.3579 20.7495L20.3415 20.5ZM20.4308 20.4941L20.4473 20.7436L20.4556 20.743L20.4638 20.7419L20.4308 20.4941ZM13.4842 4.23809L3.79366 13.7372L4.14367 14.0943L13.8342 4.59515L13.4842 4.23809ZM18.35 4.23809C17.006 2.92064 14.8282 2.92064 13.4842 4.23809L13.8342 4.59515C14.9838 3.46828 16.8505 3.46828 18 4.59515L18.35 4.23809ZM19.6444 5.50686L18.35 4.23809L18 4.59515L19.2944 5.86393L19.6444 5.50686ZM19.6444 10.2905C20.9912 8.97036 20.9912 6.82704 19.6444 5.50686L19.2944 5.86393C20.4412 6.98807 20.4412 8.80933 19.2944 9.93347L19.6444 10.2905ZM9.91561 19.8271L19.6444 10.2905L19.2944 9.93347L9.5656 19.4701L9.91561 19.8271ZM7.64282 20.7499C8.4947 20.7499 9.312 20.4188 9.91561 19.8271L9.5656 19.4701C9.0566 19.969 8.36543 20.2499 7.64282 20.2499V20.7499ZM3.65854 20.7499H7.64282V20.2499H3.65854V20.7499ZM2.75029 19.8319C2.73737 20.34 3.15276 20.7499 3.65854 20.7499V20.2499C3.42407 20.2499 3.2446 20.062 3.25013 19.8446L2.75029 19.8319ZM2.85051 15.8911L2.75029 19.8319L3.25013 19.8446L3.35035 15.9038L2.85051 15.8911ZM3.79366 13.7372C3.21042 14.3089 2.8722 15.0805 2.85052 15.8908L3.35034 15.9041C3.36852 15.2248 3.65212 14.5761 4.14367 14.0943L3.79366 13.7372ZM17.0683 5.50802L18.3626 6.7768L18.7126 6.41974L17.4183 5.15096L17.0683 5.50802ZM14.7651 5.50802C15.4003 4.88535 16.4331 4.88535 17.0683 5.50802L17.4183 5.15096C16.5886 4.3377 15.2447 4.3377 14.4151 5.15096L14.7651 5.50802ZM14.0128 6.24545L14.7651 5.50802L14.4151 5.15096L13.6628 5.88839L14.0128 6.24545ZM17.9607 9.75752L14.0128 5.88837L13.6628 6.24547L17.6108 10.1146L17.9607 9.75752ZM18.3626 9.02052L17.6108 9.75754L17.9608 10.1146L18.7126 9.37758L18.3626 9.02052ZM18.3626 6.7768C18.9951 7.39675 18.9951 8.40057 18.3626 9.02052L18.7126 9.37758C19.5451 8.56159 19.5451 7.23573 18.7126 6.41974L18.3626 6.7768ZM12.7315 6.8013L4.72453 14.6501L5.07454 15.0071L13.0815 7.15837L12.7315 6.8013ZM17.0294 10.6704L13.0815 6.80129L12.7315 7.15839L16.6795 11.0275L17.0294 10.6704ZM8.98386 18.9142L17.0295 11.0275L16.6794 10.6705L8.63385 18.5571L8.98386 18.9142ZM8.86883 19.0177L8.97585 18.9217L8.64186 18.5496L8.53485 18.6456L8.86883 19.0177ZM7.64237 19.4588C8.08924 19.4588 8.51989 19.3046 8.8605 19.0249L8.54318 18.6385C8.29263 18.8442 7.97432 18.9588 7.64237 18.9588V19.4588ZM4.33297 19.4583L7.64234 19.4588L7.64241 18.9588L4.33304 18.9583L4.33297 19.4583ZM4.16671 15.924L4.08309 19.202L4.58293 19.2147L4.66655 15.9368L4.16671 15.924ZM4.72453 14.6501C4.37999 14.9878 4.17954 15.4446 4.16672 15.9237L4.66654 15.9371C4.67585 15.589 4.82164 15.255 5.07454 15.0071L4.72453 14.6501ZM20.3415 19.4589C20.5718 19.4589 20.75 19.6407 20.75 19.8545H21.25C21.25 19.3552 20.8385 18.9589 20.3415 18.9589V19.4589ZM13.471 19.4589H20.3415V18.9589H13.471V19.4589ZM13.3981 19.4643L13.4874 19.4584L13.4545 18.9595L13.3652 18.9654L13.3981 19.4643ZM13.0625 19.8545C13.0625 19.6585 13.2119 19.4896 13.4146 19.4627L13.3487 18.967C12.9085 19.0256 12.5625 19.3969 12.5625 19.8545H13.0625ZM13.471 20.25C13.2406 20.25 13.0625 20.0682 13.0625 19.8545H12.5625C12.5625 20.3537 12.9739 20.75 13.471 20.75V20.25ZM20.3415 20.25H13.471V20.75H20.3415V20.25ZM20.4144 20.2446L20.325 20.2505L20.3579 20.7495L20.4473 20.7436L20.4144 20.2446ZM20.75 19.8545C20.75 20.0505 20.6005 20.2193 20.3979 20.2463L20.4638 20.7419C20.904 20.6834 21.25 20.3121 21.25 19.8545H20.75Z" fill="#232323"/>
</svg>
