<svg width="24" height="24" viewBox="0 0 24 24" fill="none" xmlns="http://www.w3.org/2000/svg">
<path d="M18.4999 20V18.3341C18.4999 17.8963 18.4136 17.4628 18.2461 17.0583C18.0786 16.6539 17.833 16.2864 17.5235 15.9768C17.2139 15.6673 16.8464 15.4217 16.4419 15.2542C16.0375 15.0866 15.604 15.0004 15.1662 15.0004H9.33367C8.89588 15.0004 8.46239 15.0866 8.05793 15.2542C7.65347 15.4217 7.28597 15.6673 6.97641 15.9768C6.66685 16.2864 6.42129 16.6539 6.25376 17.0583C6.08623 17.4628 6 17.8963 6 18.3341V20H18.4999Z" fill="#232323"/>
<path d="M18.4999 20C18.4999 20 18.4999 18.7719 18.4999 18.3341M18.4999 20H6M18.4999 20V18.3341M18.4999 18.3341C18.4999 17.8963 18.4136 17.4628 18.2461 17.0583C18.0786 16.6539 17.833 16.2864 17.5235 15.9768C17.2139 15.6673 16.8464 15.4217 16.4419 15.2542C16.0375 15.0866 15.604 15.0004 15.1662 15.0004H9.33367C8.89588 15.0004 8.46239 15.0866 8.05793 15.2542C7.65347 15.4217 7.28597 15.6673 6.97641 15.9768C6.66685 16.2864 6.42129 16.6539 6.25376 17.0583C6.08623 17.4628 6 17.8963 6 18.3341M6 18.3341C6 18.3341 6 19.3494 6 20M6 18.3341V20" stroke="#232323" stroke-width="2" stroke-linecap="round" stroke-linejoin="round"/>
<path d="M12.2497 11.6673C14.0908 11.6673 15.5833 10.1748 15.5833 8.33367C15.5833 6.49253 14.0908 5 12.2497 5C10.4085 5 8.91602 6.49253 8.91602 8.33367C8.91602 10.1748 10.4085 11.6673 12.2497 11.6673Z" fill="#232323" stroke="#232323" stroke-width="2" stroke-linecap="round" stroke-linejoin="round"/>
</svg>
