<svg width="24" height="24" viewBox="0 0 24 24" fill="none" xmlns="http://www.w3.org/2000/svg">
<path fill-rule="evenodd" clip-rule="evenodd" d="M9.68457 3.55043C9.07576 2.74885 7.96655 2.41673 7.00953 2.90685C6.53893 3.14786 5.96827 3.46917 5.45479 3.84142C3.3569 5.36224 3.2024 8.23157 4.60082 10.2272C5.53616 11.562 6.89549 13.2595 8.81688 15.1809C10.7381 17.1021 12.4354 18.4613 13.7701 19.3967C15.7674 20.7963 18.6342 20.6427 20.1563 18.5429C20.5371 18.0176 20.8582 17.4492 21.0976 16.9814C21.5865 16.0259 21.2505 14.9232 20.4541 14.3183L18.7336 13.0116C17.6439 12.184 16.1104 12.2883 15.1429 13.2558C15.0478 13.3509 14.8937 13.3509 14.7986 13.2558L10.7419 9.19914C10.6468 9.10407 10.6468 8.94992 10.7419 8.85484C11.7095 7.88729 11.8138 6.35384 10.9862 5.26417L9.68457 3.55043ZM7.69328 4.24195C7.9431 4.11401 8.27875 4.17949 8.49004 4.45769L9.79164 6.17142C10.1657 6.66388 10.1185 7.35691 9.68125 7.79418C9.00039 8.47505 9.00039 9.57894 9.68125 10.2598L13.7379 14.3165C14.4188 14.9974 15.5227 14.9974 16.2036 14.3165C16.6408 13.8792 17.3339 13.8321 17.8263 14.2061L19.5469 15.5129C19.8239 15.7233 19.8873 16.0538 19.7622 16.2982C19.5429 16.7269 19.2613 17.2219 18.9419 17.6626C17.9886 18.9775 16.0876 19.189 14.631 18.1682C13.3665 17.2822 11.7362 15.9789 9.87754 14.1202C8.01871 12.2614 6.71534 10.6309 5.82925 9.36642C4.80982 7.91163 5.02185 6.00794 6.33518 5.05587C6.76223 4.74629 7.25837 4.46469 7.69328 4.24195Z" fill="#232323"/>
<path d="M15.1233 3.0102C14.7147 2.94211 14.3283 3.21812 14.2602 3.6267C14.1921 4.03528 14.4681 4.4217 14.8767 4.4898L15.1493 4.53523C17.362 4.90402 19.096 6.63797 19.4648 8.8507L19.5102 9.1233C19.5783 9.53188 19.9647 9.80789 20.3733 9.7398C20.7819 9.6717 21.0579 9.28528 20.9898 8.8767L20.9443 8.6041C20.4702 5.75916 18.2408 3.52979 15.3959 3.05564L15.1233 3.0102Z" fill="#232323"/>
<path d="M14.356 6.00754C13.946 5.94896 13.5661 6.23388 13.5075 6.64393C13.4489 7.05398 13.7339 7.43388 14.1439 7.49246L14.5415 7.54926C15.5315 7.69069 16.3093 8.4685 16.4507 9.45845L16.5075 9.85607C16.5661 10.2661 16.946 10.551 17.356 10.4925C17.7661 10.4339 18.051 10.054 17.9924 9.64393L17.9356 9.24632C17.6999 7.5964 16.4036 6.30004 14.7537 6.06434L14.356 6.00754Z" fill="#232323"/>
</svg>
