<svg width="32" height="32" viewBox="0 0 32 32" fill="none" xmlns="http://www.w3.org/2000/svg">
<path d="M15.9998 16.2306C19.2314 16.2306 21.8268 13.7295 21.8268 10.6153C21.8268 7.50115 19.2314 5 15.9998 5C12.7683 5 10.1729 7.50115 10.1729 10.6153C10.1729 13.7295 12.7683 16.2306 15.9998 16.2306ZM15.9998 6.71648C18.239 6.71648 20.0456 8.45747 20.0456 10.6153C20.0456 12.7732 18.239 14.5142 15.9998 14.5142C13.7606 14.5142 11.954 12.7732 11.954 10.6153C11.954 8.45747 13.7606 6.71648 15.9998 6.71648Z" fill="#232323"/>
<path d="M16 17.6966C10.5038 17.6966 6 22.0368 6 27.3333H26C26 22.0368 21.4962 17.6966 16 17.6966ZM16 19.413C19.9186 19.413 23.201 22.0613 24.0153 25.6169H7.98473C8.79898 22.0858 12.0814 19.413 16 19.413Z" fill="#232323"/>
</svg>
