<svg width="32" height="32" viewBox="0 0 32 32" fill="none" xmlns="http://www.w3.org/2000/svg">
<path d="M26.4053 14.5673L26.407 14.5689C27.1951 15.3587 27.1947 16.6429 26.4058 17.4321C26.023 17.8149 25.5144 18.0256 24.9736 18.0256H24.6419V24.6297C24.6419 25.9367 23.5786 27 22.2714 27H18.7604C18.4044 27 18.1159 26.7113 18.1159 26.3555V21.1777C18.1159 20.5814 17.6308 20.0963 17.0345 20.0963H14.9636C14.3672 20.0963 13.882 20.5814 13.882 21.1777V26.3555C13.882 26.7113 13.5934 27 13.2374 27H9.72642C8.41939 27 7.35592 25.9367 7.35592 24.6297V18.0256H6.99841C6.97742 18.0256 6.95661 18.0246 6.9358 18.0226C6.42739 18.0006 5.95205 17.7921 5.59202 17.4319C4.80398 16.6439 4.80263 15.362 5.58816 14.572L5.59722 14.5627L14.5668 5.59334C14.9495 5.21065 15.458 5 15.999 5C16.54 5 17.0486 5.21065 17.4311 5.59334L26.4053 14.5673Z" stroke="#232323" stroke-width="2"/>
</svg>
