<svg width="24" height="24" viewBox="0 0 24 24" fill="none" xmlns="http://www.w3.org/2000/svg">
<path d="M12 0C5.37258 0 0 5.37258 0 12C0 15.1826 1.26428 18.2348 3.51472 20.4853C5.76516 22.7357 8.8174 24 12 24C15.1826 24 18.2348 22.7357 20.4853 20.4853C22.7357 18.2348 24 15.1826 24 12C24 5.364 18.6 0 12 0Z" fill="#232323"/>
<path fill-rule="evenodd" clip-rule="evenodd" d="M13.1695 13.7808L13.4567 6.59998H10.7998L11.087 13.7808H13.1695ZM11.2315 15.1022C10.973 15.3608 10.8438 15.6815 10.8438 16.0645C10.8438 16.4379 10.973 16.7538 11.2315 17.0123C11.49 17.2709 11.806 17.4001 12.1794 17.4001C12.5624 17.4001 12.8831 17.2709 13.1416 17.0123C13.4001 16.7538 13.5294 16.4379 13.5294 16.0645C13.5294 15.6815 13.4001 15.3608 13.1416 15.1022C12.8831 14.8437 12.5624 14.7145 12.1794 14.7145C11.806 14.7145 11.49 14.8437 11.2315 15.1022Z" fill="white"/>
</svg>
