<svg width="24" height="24" viewBox="0 0 24 24" fill="none" xmlns="http://www.w3.org/2000/svg">
<path d="M12 0C5.37258 0 0 5.37258 0 12C0 15.1826 1.26428 18.2348 3.51472 20.4853C5.76516 22.7357 8.8174 24 12 24C15.1826 24 18.2348 22.7357 20.4853 20.4853C22.7357 18.2348 24 15.1826 24 12C24 5.364 18.6 0 12 0Z" fill="#FF3366"/>
<path fill-rule="evenodd" clip-rule="evenodd" d="M13.1648 13.7808L13.4514 6.59998H10.7998L11.0865 13.7808H13.1648ZM11.2307 15.1021C10.9727 15.3606 10.8438 15.6814 10.8438 16.0644C10.8438 16.4378 10.9727 16.7537 11.2307 17.0122C11.4887 17.2707 11.8041 17.4 12.1767 17.4C12.5589 17.4 12.879 17.2707 13.137 17.0122C13.395 16.7537 13.524 16.4378 13.524 16.0644C13.524 15.6814 13.395 15.3606 13.137 15.1021C12.879 14.8436 12.5589 14.7144 12.1767 14.7144C11.8041 14.7144 11.4887 14.8436 11.2307 15.1021Z" fill="white"/>
</svg>
