<svg width="24" height="24" viewBox="0 0 24 24" fill="none" xmlns="http://www.w3.org/2000/svg">
<path d="M12 7.83479C10.818 7.85518 9.69212 8.34232 8.86824 9.19006C8.04437 10.0378 7.58935 11.1771 7.60283 12.3592C7.61631 13.5413 8.09701 14.67 8.93998 15.4988C9.78296 16.3275 10.9196 16.7889 12.1017 16.7823C13.284 16.7758 14.4154 16.3015 15.2491 15.4633C16.0825 14.6252 16.5506 13.491 16.5507 12.3089C16.539 11.1127 16.0534 9.96989 15.2003 9.1311C14.3472 8.29248 13.1963 7.82629 12 7.83479ZM12 15.5048C11.1572 15.4846 10.3564 15.1322 9.7722 14.5242C9.18812 13.9163 8.86791 13.1021 8.88123 12.2592C8.89471 11.4162 9.24059 10.6127 9.84394 10.0237C10.4471 9.43446 11.2586 9.10768 12.1016 9.11426C12.9447 9.12084 13.7511 9.4603 14.3449 10.0586C14.9388 10.6571 15.2721 11.4659 15.2725 12.3091C15.2606 13.1663 14.9097 13.9839 14.2963 14.5829C13.683 15.1819 12.8573 15.5133 12 15.5048Z" fill="#232323"/>
<path d="M23.2045 11.2863C21.7983 9.11322 17.8868 4 12 4C6.1132 4 2.20196 9.11351 0.795486 11.2863C0.602402 11.5925 0.5 11.9471 0.5 12.309C0.5 12.671 0.602402 13.0255 0.795486 13.3318C2.20167 15.5048 6.1132 20.618 12 20.618C17.8868 20.618 21.798 15.5045 23.2045 13.3318C23.3976 13.0255 23.5 12.671 23.5 12.309C23.5 11.9471 23.3976 11.5925 23.2045 11.2863ZM22.1307 12.6413C21.1209 14.2266 17.401 19.3396 12.0003 19.3396C6.59957 19.3396 2.87939 14.2265 1.86984 12.6413C1.75556 12.4435 1.75556 12.1999 1.86984 12.0021C2.87972 10.3913 6.59957 5.27836 12.0003 5.27836C17.401 5.27836 21.1212 10.3919 22.1307 11.9767C22.1917 12.0768 22.224 12.1917 22.224 12.3089C22.224 12.4261 22.1917 12.5411 22.1307 12.6413Z" fill="#232323"/>
<path fill-rule="evenodd" clip-rule="evenodd" d="M22.1307 12.6413C21.1209 14.2266 17.401 19.3396 12.0003 19.3396C6.59957 19.3396 2.87939 14.2265 1.86984 12.6413C1.75556 12.4435 1.75556 12.1999 1.86984 12.0021C2.87972 10.3913 6.59957 5.27836 12.0003 5.27836C17.401 5.27836 21.1212 10.3919 22.1307 11.9767C22.1917 12.0768 22.224 12.1917 22.224 12.3089C22.224 12.4261 22.1917 12.5411 22.1307 12.6413ZM8.86824 9.19006C9.69212 8.34232 10.818 7.85518 12 7.83479C13.1963 7.82629 14.3472 8.29248 15.2003 9.1311C16.0534 9.96989 16.539 11.1127 16.5507 12.3089C16.5506 13.491 16.0825 14.6252 15.2491 15.4633C14.4154 16.3015 13.284 16.7758 12.1017 16.7823C10.9196 16.7889 9.78296 16.3275 8.93998 15.4988C8.09701 14.67 7.61631 13.5413 7.60283 12.3592C7.58935 11.1771 8.04437 10.0378 8.86824 9.19006Z" fill="#232323"/>
</svg>
