<svg width="32" height="32" viewBox="0 0 32 32" fill="none" xmlns="http://www.w3.org/2000/svg">
<g filter="url(#filter0_d_14155_13665)">
<path fill-rule="evenodd" clip-rule="evenodd" d="M28.7015 3.68491C28.311 3.29438 27.6779 3.29438 27.2873 3.68491L20.7688 10.2034C20.7592 10.0567 20.7478 9.92706 20.7342 9.80414L20.6544 9.20766L20.5187 7.99619C20.451 7.41803 20.3848 7.01957 20.28 6.61524C19.8082 5.03816 18.5385 4.00483 17.0803 4.04967L16.8735 4.05792C16.229 4.12055 15.387 4.51482 14.8243 4.9932L10.164 8.80414L7.70446 8.80543L7.46815 8.81314C5.75587 8.92573 4.50561 10.2592 4.25756 12.0392C3.9978 14.1317 3.98946 17.6112 4.25767 19.5245C4.4985 21.5189 5.81765 22.8435 7.70446 22.8435H8.12868L4.4238 26.5484L4.32697 26.6606C4.0365 27.0521 4.06877 27.6076 4.4238 27.9626C4.81432 28.3532 5.44748 28.3532 5.83801 27.9626L28.7015 5.09912L28.7984 4.98696C29.0888 4.59548 29.0566 4.03993 28.7015 3.68491ZM10.1287 20.8435L18.8161 12.1562L18.798 10.8947C18.7869 10.5062 18.7709 10.2519 18.7475 10.0349L18.6332 9.1555L18.5644 8.51542C18.4934 7.85664 18.435 7.46808 18.3541 7.15316C18.1398 6.43817 17.6424 6.03333 17.0894 6.04896C16.9471 6.04588 16.5278 6.22255 16.2261 6.43584L16.1052 6.52907L11.1541 10.5794C11.0112 10.6963 10.8394 10.7708 10.6583 10.796L10.5209 10.8054H7.70446C6.93996 10.8054 6.36805 11.385 6.24037 12.3003C6.00339 14.2102 5.99548 17.5146 6.24076 19.2657C6.36005 20.2528 6.81933 20.7718 7.54492 20.8366L7.70446 20.8435H10.1287ZM19.827 17.9219C20.3793 17.9298 20.8205 18.3838 20.8127 18.9361L20.7905 20.0336C20.7631 21.0478 20.72 21.8146 20.6617 22.3603L20.5099 23.77C20.4491 24.2805 20.3845 24.6366 20.2696 25.0673C19.8081 26.6093 18.5387 27.6419 17.1354 27.5973C16.4999 27.613 15.7392 27.326 15.1544 26.9032L14.9439 26.7386L13.0818 25.2195C12.6539 24.8704 12.59 24.2405 12.9391 23.8125C13.2564 23.4235 13.8059 23.3353 14.2247 23.5847L14.3461 23.6698L16.2223 25.2006C16.491 25.4281 16.9073 25.6023 17.1414 25.598C17.6427 25.6135 18.1395 25.2094 18.3452 24.5237L18.4175 24.2182C18.4496 24.0632 18.4765 23.8997 18.5024 23.7046L18.6566 22.2899C18.735 21.6589 18.7895 20.5476 18.8129 18.9075C18.8207 18.3553 19.2748 17.914 19.827 17.9219Z" fill="white"/>
</g>
<defs>
<filter id="filter0_d_14155_13665" x="-2" y="-1" width="36" height="36" filterUnits="userSpaceOnUse" color-interpolation-filters="sRGB">
<feFlood flood-opacity="0" result="BackgroundImageFix"/>
<feColorMatrix in="SourceAlpha" type="matrix" values="0 0 0 0 0 0 0 0 0 0 0 0 0 0 0 0 0 0 127 0" result="hardAlpha"/>
<feOffset dy="1"/>
<feGaussianBlur stdDeviation="1"/>
<feComposite in2="hardAlpha" operator="out"/>
<feColorMatrix type="matrix" values="0 0 0 0 0 0 0 0 0 0 0 0 0 0 0 0 0 0 0.2 0"/>
<feBlend mode="normal" in2="BackgroundImageFix" result="effect1_dropShadow_14155_13665"/>
<feBlend mode="normal" in="SourceGraphic" in2="effect1_dropShadow_14155_13665" result="shape"/>
</filter>
</defs>
</svg>
