<svg width="60" height="60" viewBox="0 0 60 60" fill="none" xmlns="http://www.w3.org/2000/svg">
<rect width="60" height="60" rx="9" fill="#CC39A4"/>
<path d="M42.1513 17.8491C39.1517 14.8503 34.2888 14.8503 31.29 17.8491L27.0046 22.1329C27.3438 22.096 27.6866 22.0801 28.0312 22.0801C29.1157 22.0801 30.1703 22.2524 31.1687 22.5846L33.5971 20.1571C34.4311 19.3221 35.5403 18.8633 36.7198 18.8633C37.8994 18.8633 39.0085 19.3221 39.8426 20.1571C40.6767 20.9903 41.1353 22.0977 41.1353 23.2789C41.1353 24.4584 40.6767 25.5676 39.8426 26.4008L35.0913 31.1521C34.2573 31.9871 33.1481 32.4458 31.9686 32.4458C30.7873 32.4458 29.6799 31.9871 28.8451 31.1521C28.439 30.7478 28.1226 30.2767 27.9046 29.7634C27.3632 29.7932 26.857 30.0182 26.4703 30.4049L25.2047 31.6722C25.551 32.3138 25.9957 32.9185 26.5371 33.4617C29.5359 36.4607 34.3996 36.4607 37.3992 33.4617L42.1514 28.7086C45.1492 25.71 45.1492 20.8479 42.1513 17.8491Z" fill="white"/>
<path d="M32.0197 37.9179C30.9334 37.9179 29.8682 37.7421 28.847 37.3959L26.4019 39.8411C25.5687 40.6761 24.4596 41.1348 23.2801 41.1348C22.1006 41.1348 20.9933 40.6761 20.1583 39.8411C19.3233 39.0078 18.8645 37.8987 18.8645 36.7192C18.8645 35.5397 19.3233 34.4304 20.1583 33.5956L24.9096 28.8443C25.7445 28.0111 26.8519 27.5523 28.0314 27.5523C29.2126 27.5523 30.3201 28.0111 31.154 28.8443C31.5602 29.2504 31.8773 29.7215 32.0963 30.2347C32.6394 30.2066 33.1465 29.9798 33.5333 29.5932L34.7971 28.3275C34.4508 27.6841 34.0052 27.0795 33.4629 26.5363C30.4642 23.5375 25.6004 23.5375 22.6017 26.5363L17.8504 31.2894C14.8499 34.2884 14.8499 39.1502 17.8504 42.1508C20.8492 45.1497 25.7112 45.1497 28.7099 42.1508L32.9883 37.8724C32.6693 37.9021 32.3467 37.9181 32.0215 37.9181L32.0197 37.9179Z" fill="white"/>
</svg>
