<svg width="24" height="24" viewBox="0 0 24 24" fill="none" xmlns="http://www.w3.org/2000/svg">
<path fill-rule="evenodd" clip-rule="evenodd" d="M5.63637 2.90909C5.63637 2.40701 6.04338 2 6.54546 2H20.1818C20.6839 2 21.0909 2.40701 21.0909 2.90909V21.0909C21.0909 21.593 20.6839 22 20.1818 22H6.54546C6.12778 22 5.76385 21.7154 5.66317 21.31L2.02681 6.66889C1.9678 6.43132 2.0071 6.17999 2.13581 5.97177C2.26452 5.76355 2.47176 5.61603 2.71065 5.56259L5.63637 4.90816V2.90909ZM7.45455 20.1818H19.2727V3.81818H7.45455V20.1818ZM5.63637 13.6591L4.01569 7.13379L5.63637 6.77127V13.6591ZM9.27273 4.72727C9.77481 4.72727 10.1818 5.13429 10.1818 5.63636V7.45455C10.1818 7.95662 9.77481 8.36364 9.27273 8.36364C8.77065 8.36364 8.36364 7.95662 8.36364 7.45455V5.63636C8.36364 5.13429 8.77065 4.72727 9.27273 4.72727ZM13.3636 8.36364C13.6334 8.36364 13.8893 8.48348 14.062 8.69074L16.3347 11.418C16.6157 11.7551 16.6157 12.2449 16.3347 12.582L14.062 15.3093C13.8893 15.5165 13.6334 15.6364 13.3636 15.6364C13.0938 15.6364 12.838 15.5165 12.6653 15.3093L10.3925 12.582C10.1116 12.2449 10.1116 11.7551 10.3925 11.418L12.6653 8.69074C12.838 8.48348 13.0938 8.36364 13.3636 8.36364ZM12.2743 12L13.3636 13.3072L14.453 12L13.3636 10.6928L12.2743 12ZM17.4545 15.6364C17.9566 15.6364 18.3636 16.0434 18.3636 16.5455V18.3636C18.3636 18.8657 17.9566 19.2727 17.4545 19.2727C16.9525 19.2727 16.5455 18.8657 16.5455 18.3636V16.5455C16.5455 16.0434 16.9525 15.6364 17.4545 15.6364Z" fill="#232323"/>
</svg>
