<svg width="16" height="16" viewBox="0 0 16 16" fill="none" xmlns="http://www.w3.org/2000/svg">
<path d="M15.5 8C15.5 12.1421 12.1421 15.5 8 15.5C3.85786 15.5 0.5 12.1421 0.5 8C0.5 3.85786 3.85786 0.5 8 0.5C12.1421 0.5 15.5 3.85786 15.5 8Z" fill="#232323" stroke="#D8D8D8"/>
<path d="M7.99998 5.29167C6.51481 5.29167 5.39581 6.31451 5.39581 7.47917V8.10931C5.43007 8.10591 5.46482 8.10417 5.49998 8.10417H6.33331C6.67849 8.10417 6.95831 8.38399 6.95831 8.72917V10.8125C6.95831 11.1577 6.67849 11.4375 6.33331 11.4375H5.49998C4.92468 11.4375 4.45831 10.9711 4.45831 10.3958V9.14584C4.45831 8.85444 4.57796 8.59099 4.77081 8.40194V7.47917C4.77081 5.88241 6.26349 4.66667 7.99998 4.66667C9.73647 4.66667 11.2291 5.88241 11.2291 7.47917V8.40194C11.422 8.59099 11.5416 8.85444 11.5416 9.14584V10.3958C11.5416 10.9711 11.0753 11.4375 10.5 11.4375H9.66665C9.32147 11.4375 9.04165 11.1577 9.04165 10.8125V8.72917C9.04165 8.38399 9.32147 8.10417 9.66665 8.10417H10.5C10.5351 8.10417 10.5699 8.10591 10.6041 8.10931V7.47917C10.6041 6.31451 9.48515 5.29167 7.99998 5.29167Z" fill="white"/>
</svg>
