<svg width="16" height="16" viewBox="0 0 16 16" fill="none" xmlns="http://www.w3.org/2000/svg">
<path d="M13.58 6.84802C13.4114 6.64561 13.2004 6.48267 12.962 6.3707C12.7235 6.25873 12.4634 6.20047 12.2 6.20002H9.46398L9.79998 5.34202C9.93974 4.96635 9.98629 4.56238 9.93562 4.16477C9.88496 3.76716 9.7386 3.38778 9.5091 3.05916C9.27959 2.73054 8.9738 2.4625 8.61795 2.27803C8.2621 2.09356 7.86681 1.99816 7.46599 2.00003C7.35057 2.00027 7.23767 2.03379 7.14083 2.09658C7.04399 2.15937 6.96731 2.24876 6.91999 2.35403L5.20999 6.20002H3.8C3.32261 6.20002 2.86477 6.38966 2.52721 6.72722C2.18964 7.06479 2 7.52262 2 8.00001V12.2C2 12.6774 2.18964 13.1352 2.52721 13.4728C2.86477 13.8104 3.32261 14 3.8 14H11.438C11.8591 13.9999 12.2668 13.8521 12.5902 13.5824C12.9136 13.3127 13.1322 12.9382 13.208 12.524L13.97 8.32401C14.0171 8.06444 14.0066 7.79768 13.9392 7.54262C13.8718 7.28756 13.7492 7.05043 13.58 6.84802ZM4.99999 12.8H3.8C3.64087 12.8 3.48825 12.7368 3.37573 12.6243C3.26321 12.5117 3.2 12.3591 3.2 12.2V8.00001C3.2 7.84088 3.26321 7.68827 3.37573 7.57575C3.48825 7.46323 3.64087 7.40002 3.8 7.40002H4.99999V12.8ZM12.8 8.10801L12.038 12.308C12.0124 12.4478 11.9381 12.5739 11.8282 12.664C11.7183 12.7541 11.5801 12.8023 11.438 12.8H6.19999V6.92602L7.83199 3.25402C7.99998 3.303 8.15599 3.38627 8.29018 3.49857C8.42437 3.61088 8.53382 3.74978 8.61162 3.90652C8.68943 4.06325 8.7339 4.23442 8.74222 4.4092C8.75054 4.58399 8.72254 4.7586 8.65999 4.92202L8.34199 5.78002C8.27423 5.96137 8.25135 6.15643 8.27531 6.34854C8.29927 6.54065 8.36936 6.72411 8.47959 6.88326C8.58981 7.04241 8.73691 7.17254 8.90833 7.26252C9.07974 7.3525 9.27039 7.39968 9.46398 7.40002H12.2C12.2881 7.39987 12.3752 7.41915 12.4551 7.45648C12.5349 7.49382 12.6056 7.54829 12.662 7.61601C12.7198 7.68281 12.7621 7.76154 12.786 7.84659C12.8098 7.93164 12.8146 8.0209 12.8 8.10801Z" fill="white"/>
<path d="M12.8 8.10801L12.038 12.308C12.0124 12.4478 11.9381 12.5739 11.8282 12.664C11.7183 12.7541 11.5801 12.8023 11.438 12.8H6.19999V6.92602L7.83199 3.25402C7.99998 3.303 8.15599 3.38627 8.29018 3.49857C8.42437 3.61088 8.53382 3.74978 8.61162 3.90652C8.68943 4.06325 8.7339 4.23442 8.74222 4.4092C8.75054 4.58399 8.72254 4.7586 8.65999 4.92202L8.34199 5.78002C8.27423 5.96137 8.25135 6.15643 8.27531 6.34854C8.29927 6.54065 8.36936 6.72411 8.47959 6.88326C8.58981 7.04241 8.73691 7.17254 8.90833 7.26252C9.07974 7.3525 9.27039 7.39968 9.46398 7.40002H12.2C12.2881 7.39987 12.3752 7.41915 12.4551 7.45648C12.5349 7.49382 12.6056 7.54829 12.662 7.61601C12.7198 7.68281 12.7621 7.76154 12.786 7.84659C12.8098 7.93164 12.8146 8.0209 12.8 8.10801Z" fill="#00BAEF"/>
<path d="M4.99999 12.8H3.8C3.64087 12.8 3.48825 12.7368 3.37573 12.6243C3.26321 12.5117 3.2 12.3591 3.2 12.2V8.00001C3.2 7.84088 3.26321 7.68827 3.37573 7.57575C3.48825 7.46323 3.64087 7.40002 3.8 7.40002H4.99999V12.8Z" fill="#00BAEF"/>
</svg>
