<svg width="24" height="24" viewBox="0 0 24 24" fill="none" xmlns="http://www.w3.org/2000/svg">
<path fill-rule="evenodd" clip-rule="evenodd" d="M12.2961 3.30329C12.875 2.5131 13.8098 2 14.8644 2C16.4674 2 17.7935 3.18532 18.014 4.72727H20.1818C21.186 4.72727 22 5.5413 22 6.54545V8.36364C22 9.36773 21.1861 10.1817 20.182 10.1818V20.1818C20.182 21.186 19.368 22 18.3638 22H5.63654C4.63239 22 3.81836 21.186 3.81836 20.1818V10.1818H3.81818C2.81403 10.1818 2 9.36779 2 8.36364V6.54545C2 5.5413 2.81403 4.72727 3.81818 4.72727H6.57812C6.79868 3.18532 8.12477 2 9.72772 2C10.7824 2 11.7171 2.5131 12.2961 3.30329ZM13.5784 4.72727H16.1505C15.9633 4.19764 15.4582 3.81818 14.8644 3.81818C14.2707 3.81818 13.7656 4.19764 13.5784 4.72727ZM9.72772 3.81818C9.13398 3.81818 8.62887 4.19764 8.44167 4.72727H11.0138C10.8266 4.19764 10.3215 3.81818 9.72772 3.81818ZM11.0909 8.36365H3.81836V6.54551H11.0909V8.36365ZM11.0909 10.1819H5.63672V20.1819H11.0909V10.1819ZM12.9091 20.1819V10.1819H18.364V20.1819H12.9091ZM12.9091 8.36365V6.54551H20.182V8.36365H12.9091Z" fill="#232323"/>
</svg>
