<svg width="24" height="24" viewBox="0 0 24 24" fill="none" xmlns="http://www.w3.org/2000/svg">
<g clip-path="url(#clip0_14170_17965)">
<g clip-path="url(#clip1_14170_17965)">
<path d="M18.6748 23.9873L5.34851 24C2.41673 24.0027 0.0159938 21.6066 0.0126622 18.6748L2.22137e-06 5.34851C-0.00266304 2.41673 2.39341 0.0159938 5.32519 0.0126622L18.6515 2.22137e-06C21.5833 -0.00266304 23.984 2.39341 23.9873 5.32519L24 18.6515C24.0033 21.5839 21.6066 23.9847 18.6748 23.9873Z" fill="url(#paint0_radial_14170_17965)"/>
<path d="M18.6748 23.9873L5.34851 24C2.41673 24.0027 0.0159938 21.6066 0.0126622 18.6748L2.22137e-06 5.34851C-0.00266304 2.41673 2.39341 0.0159938 5.32519 0.0126622L18.6515 2.22137e-06C21.5833 -0.00266304 23.984 2.39341 23.9873 5.32519L24 18.6515C24.0033 21.5839 21.6066 23.9847 18.6748 23.9873Z" fill="url(#paint1_radial_14170_17965)"/>
<path d="M12.0004 16.6648C9.42905 16.6648 7.33615 14.5725 7.33615 12.0006C7.33615 9.42858 9.42905 7.33635 12.0004 7.33635C14.5717 7.33635 16.6646 9.42858 16.6646 12.0006C16.6646 14.5725 14.5717 16.6648 12.0004 16.6648ZM12.0004 8.66898C10.1633 8.66898 8.66878 10.1635 8.66878 12.0006C8.66878 13.8376 10.1633 15.3321 12.0004 15.3321C13.8374 15.3321 15.3319 13.8376 15.3319 12.0006C15.3319 10.1635 13.8374 8.66898 12.0004 8.66898Z" fill="white"/>
<path d="M16.9977 8.00265C17.5497 8.00265 17.9972 7.55517 17.9972 7.00318C17.9972 6.45119 17.5497 6.00371 16.9977 6.00371C16.4457 6.00371 15.9983 6.45119 15.9983 7.00318C15.9983 7.55517 16.4457 8.00265 16.9977 8.00265Z" fill="white"/>
<path d="M15.9982 20.6626H8.00246C5.43115 20.6626 3.33826 18.5704 3.33826 15.9984V8.00266C3.33826 5.43068 5.43115 3.33846 8.00246 3.33846H15.9982C18.5695 3.33846 20.6624 5.43068 20.6624 8.00266V15.9984C20.6624 18.5704 18.5695 20.6626 15.9982 20.6626ZM8.00246 4.67109C6.16543 4.67109 4.67089 6.16563 4.67089 8.00266V15.9984C4.67089 17.8355 6.16543 19.33 8.00246 19.33H15.9982C17.8353 19.33 19.3298 17.8355 19.3298 15.9984V8.00266C19.3298 6.16563 17.8353 4.67109 15.9982 4.67109H8.00246Z" fill="white"/>
</g>
</g>
<defs>
<radialGradient id="paint0_radial_14170_17965" cx="0" cy="0" r="1" gradientUnits="userSpaceOnUse" gradientTransform="translate(8.92196 24.0173) scale(29.9169 29.9169)">
<stop stop-color="#FFDD55"/>
<stop offset="0.328" stop-color="#FF543F"/>
<stop offset="0.348" stop-color="#FC5245"/>
<stop offset="0.504" stop-color="#E64771"/>
<stop offset="0.643" stop-color="#D53E91"/>
<stop offset="0.761" stop-color="#CC39A4"/>
<stop offset="0.841" stop-color="#C837AB"/>
</radialGradient>
<radialGradient id="paint1_radial_14170_17965" cx="0" cy="0" r="1" gradientUnits="userSpaceOnUse" gradientTransform="translate(3.86196 -0.299638) scale(19.8648 13.2359)">
<stop stop-color="#4168C9"/>
<stop offset="0.999" stop-color="#4168C9" stop-opacity="0"/>
</radialGradient>
<clipPath id="clip0_14170_17965">
<rect width="24" height="24" fill="white"/>
</clipPath>
<clipPath id="clip1_14170_17965">
<rect width="24" height="24" fill="white"/>
</clipPath>
</defs>
</svg>
