<svg width="24" height="24" viewBox="0 0 24 24" fill="none" xmlns="http://www.w3.org/2000/svg">
<rect width="24" height="24" rx="4" fill="#2DAAE1"/>
<path d="M19.7088 7.07949C19.1427 7.33066 18.5348 7.50045 17.8956 7.57677C18.548 7.18613 19.0477 6.5671 19.2837 5.83036C18.664 6.19842 17.9858 6.45753 17.2786 6.59644C16.703 5.98296 15.8823 5.59994 14.9743 5.59994C13.2314 5.59994 11.8179 7.01283 11.8179 8.75671C11.8179 9.0038 11.8458 9.24486 11.8993 9.4763C9.2756 9.34445 6.94955 8.08769 5.39261 6.17805C5.12075 6.64444 4.96513 7.1867 4.96513 7.76526C4.96513 8.86033 5.52251 9.82652 6.36944 10.3925C5.86807 10.377 5.37771 10.2416 4.93934 9.99782V10.0377C4.93934 11.5673 6.02733 12.8428 7.47157 13.1329C7.20626 13.2056 6.92784 13.2436 6.6398 13.2436C6.43614 13.2436 6.23856 13.2243 6.04554 13.188C6.44727 14.4417 7.61312 15.3543 8.99412 15.3801C7.91371 16.227 6.55235 16.7319 5.07377 16.7319C4.8191 16.7319 4.5674 16.7167 4.32031 16.6869C5.71757 17.5828 7.37658 18.1059 9.15939 18.1059C14.9657 18.1059 18.1412 13.2956 18.1412 9.12413C18.1412 8.98718 18.1382 8.85125 18.1316 8.7158C18.7502 8.26831 19.2843 7.71422 19.7088 7.07949Z" fill="white"/>
</svg>
