<svg width="24" height="24" viewBox="0 0 24 24" fill="none" xmlns="http://www.w3.org/2000/svg">
<path d="M23.2045 11.2863C21.7983 9.11322 17.8868 4 12 4C6.1132 4 2.20196 9.1135 0.795486 11.2863C0.602402 11.5925 0.5 11.9471 0.5 12.309C0.5 12.671 0.602402 13.0255 0.795486 13.3318C2.20167 15.5048 6.1132 20.618 12 20.618C17.8868 20.618 21.798 15.5045 23.2045 13.3318C23.3976 13.0255 23.5 12.671 23.5 12.309C23.5 11.9471 23.3976 11.5925 23.2045 11.2863ZM22.1307 12.6413C21.1209 14.2266 17.401 19.3396 12.0003 19.3396C6.59957 19.3396 2.87939 14.2265 1.86984 12.6413C1.75556 12.4435 1.75556 12.1999 1.86984 12.0021C2.87972 10.3913 6.59957 5.27836 12.0003 5.27836C17.401 5.27836 21.1212 10.3919 22.1307 11.9767V11.9765C22.1917 12.0766 22.224 12.1917 22.224 12.3089C22.224 12.4261 22.1917 12.5411 22.1307 12.6413V12.6413Z" fill="#232323" stroke="#232323" stroke-width="0.5"/>
<path d="M11.9998 7.83482C10.8178 7.85521 9.69191 8.34235 8.86804 9.1901C8.04417 10.0378 7.58915 11.1771 7.60262 12.3592C7.61611 13.5414 8.0968 14.67 8.93978 15.4988C9.78276 16.3275 10.9194 16.7889 12.1015 16.7824C13.2838 16.7758 14.4152 16.3015 15.2488 15.4633C16.0823 14.6252 16.5504 13.4911 16.5505 12.3089C16.5388 11.1127 16.0532 9.96992 15.2001 9.13113C14.347 8.29251 13.196 7.82623 11.9998 7.83474V7.83482ZM11.9998 15.5049C11.157 15.4847 10.3562 15.1322 9.77199 14.5242C9.18791 13.9164 8.86771 13.1022 8.88102 12.2592C8.8945 11.4162 9.24039 10.6128 9.84373 10.0237C10.4469 9.43449 11.2584 9.10771 12.1014 9.11429C12.9445 9.12087 13.7509 9.46033 14.3447 10.0587C14.9386 10.6572 15.2719 11.466 15.2723 12.3091C15.2604 13.1663 14.9095 13.984 14.2961 14.583C13.6828 15.182 12.857 15.5134 11.9997 15.5049L11.9998 15.5049Z" fill="#232323" stroke="#232323" stroke-width="0.5"/>
</svg>
