<svg width="32" height="32" viewBox="0 0 32 32" fill="none" xmlns="http://www.w3.org/2000/svg">
<g clip-path="url(#clip0_14170_17975)">
<rect width="32" height="32" rx="9" fill="#FFFC00"/>
<path d="M24.5311 20.5002C22.2315 20.0926 21.2027 17.7096 21.0817 17.4274V17.3961C20.9607 17.1452 20.9304 16.9571 20.9909 16.8004C21.1119 16.5182 21.6263 16.3301 21.9592 16.236C22.05 16.2047 22.1407 16.1733 22.2013 16.1419C22.8367 15.8597 23.1695 15.5148 23.1695 15.1072C23.1695 14.7937 22.9275 14.4802 22.5644 14.3547C22.4433 14.292 22.292 14.2607 22.1407 14.2607C22.05 14.2607 21.8987 14.292 21.7474 14.3547C21.4448 14.4802 21.2027 14.5742 21.0212 14.5742C20.9607 14.5742 20.9002 14.5742 20.8396 14.5429C20.8699 14.4488 20.8699 14.3547 20.8699 14.2293V14.1666C20.9304 12.8811 21.0514 11.282 20.6278 10.3414C19.3872 7.51952 16.8153 7.30005 16.0588 7.30005H15.6957C14.9393 7.30005 12.3673 7.51952 11.157 10.3414C10.7334 11.282 10.8241 12.8811 10.9149 14.1666C10.9452 14.292 10.9452 14.4175 10.9452 14.5429C10.8846 14.5429 10.7939 14.5742 10.7031 14.5742C10.461 14.5742 10.219 14.5115 9.91636 14.3547C9.49274 14.1666 8.67576 14.4488 8.58499 15.0132C8.52446 15.3267 8.64552 15.7657 9.55327 16.1419C9.61379 16.1733 9.70457 16.2047 9.82559 16.236C10.1282 16.3301 10.6426 16.5182 10.7636 16.8004C10.8241 16.9258 10.7938 17.1453 10.6728 17.3961C10.6123 17.4902 9.55327 20.0298 7.16284 20.4374C6.92083 20.5002 6.76953 20.7196 6.76953 20.9705C6.76953 21.0645 6.79978 21.1273 6.83006 21.1899C7.01161 21.6916 7.79833 22.0052 9.22045 22.256C9.25069 22.35 9.28098 22.5382 9.31122 22.6322C9.34147 22.7576 9.37175 22.9144 9.402 23.0712C9.43224 23.228 9.58355 23.4788 9.94665 23.4788C10.0677 23.4788 10.219 23.4474 10.3703 23.4161C10.6124 23.3533 10.9149 23.2907 11.3083 23.2907C11.5503 23.2907 11.7621 23.322 12.0042 23.3847C12.4278 23.4474 12.8212 23.7296 13.2448 24.0432C13.8802 24.5135 14.4551 24.8584 15.6352 24.8584C15.6655 24.8584 15.6957 24.8584 15.726 24.8584C15.7562 24.8584 15.8168 24.8584 15.847 24.8584C16.8758 24.8584 17.7835 24.5762 18.5702 24.0432C18.9939 23.761 19.3872 23.4474 19.8108 23.3847C20.0226 23.3534 20.2647 23.322 20.4765 23.322C20.8396 23.322 21.1422 23.3533 21.4145 23.4161C21.5961 23.4474 21.7474 23.4788 21.8684 23.4788C22.1105 23.4788 22.3223 23.322 22.3828 23.0712C22.413 22.9144 22.4433 22.789 22.4736 22.6322C22.5038 22.5695 22.5341 22.3814 22.5643 22.2873C23.9865 22.0678 24.6824 21.7229 24.8942 21.2526C24.9245 21.1899 24.9548 21.0958 24.9548 21.0332C24.9547 20.7823 24.7732 20.5315 24.5311 20.5002Z" fill="#232323" stroke="#232323"/>
<path fill-rule="evenodd" clip-rule="evenodd" d="M22.3828 21.6604C22.0197 21.6918 21.9591 22.068 21.8684 22.4757C21.8381 22.5697 21.8078 22.6951 21.7776 22.8206C21.7171 22.8206 21.6263 22.8206 21.475 22.7892C21.1725 22.7265 20.8396 22.6638 20.416 22.6638C20.1739 22.6638 19.9319 22.6952 19.6595 22.7265C19.1149 22.8206 18.6308 23.1655 18.1769 23.5104C17.5112 24.012 16.7547 24.2315 15.847 24.2315C15.8168 24.2315 15.7865 24.2315 15.726 24.2315C15.7178 24.2315 15.7102 24.2315 15.7033 24.2315C15.7007 24.2315 15.6981 24.2315 15.6957 24.2315C14.6972 24.2315 14.2131 23.9179 13.6382 23.5103C13.1843 23.1654 12.7304 22.8205 12.1555 22.7265C11.9134 22.6951 11.6411 22.6637 11.3991 22.6637C10.9452 22.6637 10.5821 22.7265 10.34 22.7891C10.219 22.8205 10.1282 22.8519 10.0375 22.8519C10.0072 22.7265 9.97692 22.601 9.94668 22.4756C9.8559 22.068 9.79537 21.6918 9.43227 21.6291C8.1009 21.4409 7.64703 21.1587 7.49576 21.0333C9.97692 20.5003 11.1267 17.992 11.278 17.6471C11.4596 17.2395 11.4898 16.8632 11.3688 16.5497C11.1267 15.9853 10.4611 15.7658 10.0375 15.6404C9.94668 15.6404 9.88615 15.609 9.82565 15.5777C9.31122 15.3582 9.22044 15.1701 9.22044 15.1388C9.22044 15.0447 9.43224 14.9193 9.61379 14.9193C9.67432 14.9193 9.70456 14.9193 9.70456 14.9193C10.0677 15.1074 10.4308 15.2015 10.7333 15.2015C11.1872 15.2015 11.4293 14.982 11.4898 14.9193C11.5503 14.8566 11.5805 14.7939 11.5805 14.6998C11.5805 14.5117 11.5503 14.3236 11.5503 14.1355C11.4595 12.9126 11.3688 11.4076 11.7319 10.5924C12.7909 8.11545 15.0603 7.92732 15.7259 7.92732H16.0285H16.0588C16.7244 7.92732 18.9938 8.11545 20.0831 10.5297C20.4159 11.345 20.3252 12.85 20.2646 14.0728V14.1355C20.2646 14.3236 20.2344 14.4804 20.2344 14.6371C20.2344 14.7312 20.2646 14.8253 20.3252 14.888C20.3857 14.9507 20.5975 15.1388 21.0514 15.1702C21.3539 15.1388 21.6565 15.0448 22.0196 14.888C22.0802 14.8567 22.2314 14.8567 22.3525 14.9193C22.5038 14.9821 22.5643 15.0761 22.5643 15.1075C22.5643 15.1702 22.4433 15.3583 21.9591 15.5464C21.8986 15.5778 21.8078 15.6092 21.717 15.6405C21.3237 15.7659 20.658 15.9854 20.4159 16.5498C20.2646 16.8633 20.3252 17.2396 20.5067 17.6472C20.6277 17.9607 21.7473 20.5318 24.2587 21.0648C24.1075 21.1901 23.6839 21.441 22.3828 21.6604Z" fill="white"/>
</g>
<defs>
<clipPath id="clip0_14170_17975">
<rect width="32" height="32" fill="white"/>
</clipPath>
</defs>
</svg>
