<svg width="24" height="24" viewBox="0 0 24 24" fill="none" xmlns="http://www.w3.org/2000/svg">
<mask id="path-1-inside-1_14155_13547" fill="white">
<path d="M3.39938 17.1019C2.15643 15.0066 1.72114 12.5296 2.17525 10.136C2.62935 7.74246 3.94162 5.59701 5.86563 4.10253C7.78964 2.60805 10.193 1.86735 12.6245 2.0195C15.056 2.17166 17.3483 3.20621 19.071 4.92889C20.7937 6.65157 21.8283 8.94388 21.9804 11.3754C22.1326 13.8069 21.3919 16.2103 19.8974 18.1343C18.403 20.0583 16.2575 21.3706 13.864 21.8247C11.4704 22.2788 8.99343 21.8435 6.89811 20.6006L6.89813 20.6005L3.44288 21.5877C3.29993 21.6285 3.14865 21.6304 3.00473 21.5931C2.86081 21.5558 2.72947 21.4807 2.62434 21.3756C2.51922 21.2705 2.44411 21.1391 2.40682 20.9952C2.36953 20.8513 2.3714 20.7 2.41224 20.5571L3.39946 17.1018L3.39938 17.1019Z"/>
</mask>
<path d="M3.39938 17.1019L1.67926 18.1223C1.98847 18.6435 2.51737 18.9964 3.11738 19.0819C3.71739 19.1673 4.32379 18.9761 4.76623 18.5619L3.39938 17.1019ZM6.89811 20.6006L4.94784 20.1573C4.75545 21.0038 5.13111 21.8778 5.87773 22.3207L6.89811 20.6006ZM6.89813 20.6005L8.8484 21.0437C9.00503 20.3546 8.7863 19.6339 8.27305 19.148C7.7598 18.6622 7.02824 18.4833 6.34869 18.6774L6.89813 20.6005ZM3.44288 21.5877L2.89344 19.6646L2.89343 19.6646L3.44288 21.5877ZM2.41224 20.5571L4.33529 21.1065L4.33529 21.1065L2.41224 20.5571ZM3.39946 17.1018L5.32251 17.6512C5.56951 16.7867 5.20927 15.8637 4.44198 15.395C3.67469 14.9263 2.68897 15.0273 2.03261 15.6418L3.39946 17.1018ZM5.11951 16.0815C4.12514 14.4052 3.77691 12.4236 4.14019 10.5088L0.210296 9.76322C-0.334631 12.6355 0.187721 15.6079 1.67926 18.1223L5.11951 16.0815ZM4.14019 10.5088C4.50348 8.59396 5.55329 6.87761 7.0925 5.68202L4.63875 2.52304C2.32994 4.31642 0.755223 6.89096 0.210296 9.76322L4.14019 10.5088ZM7.0925 5.68202C8.63171 4.48644 10.5544 3.89387 12.4996 4.0156L12.7494 0.0234079C9.83165 -0.159179 6.94757 0.729669 4.63875 2.52304L7.0925 5.68202ZM12.4996 4.0156C14.4448 4.13732 16.2787 4.96496 17.6568 6.34311L20.4852 3.51467C18.418 1.44746 15.6672 0.205995 12.7494 0.0234079L12.4996 4.0156ZM17.6568 6.34311C19.035 7.72125 19.8626 9.5551 19.9843 11.5003L23.9765 11.2504C23.7939 8.33266 22.5525 5.58189 20.4852 3.51467L17.6568 6.34311ZM19.9843 11.5003C20.1061 13.4455 19.5135 15.3682 18.3179 16.9074L21.4769 19.3611C23.2703 17.0523 24.1591 14.1682 23.9765 11.2504L19.9843 11.5003ZM18.3179 16.9074C17.1224 18.4466 15.406 19.4964 13.4912 19.8597L14.2368 23.7896C17.109 23.2447 19.6836 21.67 21.4769 19.3611L18.3179 16.9074ZM13.4912 19.8597C11.5763 20.223 9.59474 19.8748 7.91848 18.8805L5.87773 22.3207C8.39212 23.8122 11.3645 24.3346 14.2368 23.7896L13.4912 19.8597ZM8.84837 21.0438L8.8484 21.0437L4.94787 20.1572L4.94784 20.1573L8.84837 21.0438ZM6.34869 18.6774L2.89344 19.6646L3.99232 23.5107L7.44758 22.5235L6.34869 18.6774ZM2.89343 19.6646C3.09343 19.6075 3.30507 19.6049 3.5064 19.6571L2.50305 23.5292C2.99224 23.6559 3.50643 23.6496 3.99234 23.5107L2.89343 19.6646ZM3.5064 19.6571C3.70774 19.7092 3.89148 19.8143 4.03856 19.9614L1.21013 22.7898C1.56747 23.1471 2.01387 23.4024 2.50305 23.5292L3.5064 19.6571ZM4.03856 19.9614C4.18564 20.1085 4.2907 20.2922 4.34288 20.4935L0.47076 21.4969C0.59752 21.9861 0.852793 22.4325 1.21013 22.7898L4.03856 19.9614ZM4.34288 20.4935C4.39505 20.6949 4.39243 20.9065 4.33529 21.1065L0.4892 20.0076C0.350367 20.4935 0.344 21.0077 0.47076 21.4969L4.34288 20.4935ZM4.33529 21.1065L5.32251 17.6512L1.47641 16.5524L0.489196 20.0076L4.33529 21.1065ZM2.03261 15.6418L2.03254 15.6418L4.76623 18.5619L4.76631 18.5618L2.03261 15.6418Z" fill="#232323" mask="url(#path-1-inside-1_14155_13547)"/>
<path d="M8.66989 10.3283H15.3393" stroke="#232323" stroke-width="2" stroke-linecap="round" stroke-linejoin="round"/>
<path d="M8.66989 13.6631H15.3393" stroke="#232323" stroke-width="2" stroke-linecap="round" stroke-linejoin="round"/>
</svg>
