<svg width="24" height="24" viewBox="0 0 24 24" fill="none" xmlns="http://www.w3.org/2000/svg">
<path d="M21.3293 4.1598C20.7388 3.42175 19.8531 3 18.9042 3H5.11307C4.16414 3 3.27847 3.42175 2.68802 4.1598C2.09758 4.89786 1.86562 5.84679 2.07649 6.77464L3.84783 14.9987C4.16414 16.4116 5.42938 17.4448 6.88441 17.4448H8.69792L10.5325 20.5447C10.8488 21.0719 11.376 21.3671 11.9876 21.3671C12.5991 21.3671 13.1263 21.0508 13.4426 20.5447L15.2772 17.4448H17.0907C18.5457 17.4448 19.832 16.4116 20.1273 14.9987L21.8986 6.77464C22.1517 5.84679 21.9197 4.89786 21.3293 4.1598ZM20.9708 6.56376L19.1994 14.7878C18.9886 15.7579 18.124 16.4537 17.1329 16.4537H15.0241C14.8554 16.4537 14.6867 16.5381 14.5813 16.7068L12.5991 20.0597C12.4726 20.2705 12.2617 20.3971 12.0086 20.3971C11.7556 20.3971 11.5447 20.2705 11.4182 20.0597L9.43598 16.7068C9.35163 16.5592 9.18293 16.4537 8.99315 16.4537H6.88441C5.8933 16.4537 5.02872 15.7579 4.81785 14.7878L3.04651 6.56376C2.91999 5.93114 3.0676 5.29852 3.46826 4.79243C3.86892 4.28633 4.45936 4.01219 5.11307 4.01219H18.9042C19.5368 4.01219 20.1484 4.30742 20.549 4.79243C20.9497 5.29852 21.0973 5.93114 20.9708 6.56376Z" fill="#232323" stroke="#232323" stroke-width="0.5"/>
<path d="M15.6562 8.50384L13.7162 8.22971L12.8305 6.43728C12.6829 6.14206 12.3666 5.95227 12.0292 5.95227C11.6918 5.95227 11.3755 6.14206 11.2279 6.43728L10.3422 8.18753L8.36 8.48275C8.0226 8.52493 7.74846 8.75689 7.64303 9.09429C7.53759 9.43169 7.62194 9.76908 7.87499 10.001L9.28784 11.3717L8.95044 13.3539C8.88718 13.6913 9.03479 14.0287 9.30893 14.2185C9.58306 14.4083 9.94155 14.4505 10.2368 14.2818L11.987 13.375L13.7584 14.3029C13.8849 14.3661 14.0325 14.4083 14.1801 14.4083C14.3699 14.4083 14.5386 14.345 14.7073 14.2396C14.9814 14.0498 15.108 13.7124 15.0658 13.375L14.7284 11.435L16.1623 10.0221C16.4154 9.79017 16.4997 9.43169 16.3943 9.11538C16.2678 8.77798 15.9936 8.54602 15.6562 8.50384ZM13.906 10.7813C13.7162 10.95 13.6529 11.203 13.6951 11.4561L14.0114 13.2907L12.3244 12.405C12.219 12.3417 12.0925 12.3207 11.9659 12.3207C11.8394 12.3207 11.7129 12.3417 11.6075 12.405L9.96264 13.2696L10.2789 11.3928C10.3211 11.1398 10.2368 10.8867 10.0681 10.718L8.73957 9.43169L10.6163 9.15755C10.8694 9.11537 11.0803 8.96776 11.1857 8.7358L12.0081 7.0699L12.8516 8.77798C12.957 9.00994 13.189 9.15755 13.421 9.19972L15.2556 9.47386L13.906 10.7813Z" fill="#232323" stroke="#232323" stroke-width="0.5"/>
</svg>
