<svg width="24" height="24" viewBox="0 0 24 24" fill="none" xmlns="http://www.w3.org/2000/svg">
<path d="M12.75 17H6.75V12.5H9C9.80323 12.5 10.5 11.8647 10.5 11C10.5 10.4375 10.2067 10.0745 9.75 9.5L6.75 5.89096C6.29331 5.35173 5.85973 5 5.25 5C4.64027 5 4.20669 5.35173 3.75 5.89096L0.75 9.5C0.293314 10.0745 0 10.4375 0 11C0 11.8647 0.696771 12.5 1.5 12.5H3.75V18.5C3.75 19.328 4.422 20 5.25 20H12.75C13.578 20 14.25 19.328 14.25 18.5C14.25 17.672 13.578 17 12.75 17ZM22.5 12.5H20.25V6.5C20.25 5.672 19.578 5 18.75 5H11.25C10.422 5 9.75 5.672 9.75 6.5C9.75 7.328 10.422 8 11.25 8H17.25V12.5H15C14.1968 12.5 13.5 13.1353 13.5 14C13.5 14.5625 13.7933 14.9255 14.25 15.5L17.25 19.1097C17.7067 19.6483 18.141 20 18.75 20C19.359 20 19.7933 19.6483 20.25 19.109L23.25 15.5C23.7067 14.9255 24 14.5625 24 14C24 13.1353 23.3032 12.5 22.5 12.5Z" fill="#232323"/>
</svg>
