<svg width="24" height="24" viewBox="0 0 24 24" fill="none" xmlns="http://www.w3.org/2000/svg">
<path d="M12 2C6.47701 2 2 6.477 2 12C2 17.523 6.47701 22 12 22C17.523 22 22 17.523 22 12C22 6.477 17.523 2 12 2ZM12 4C16.418 4 20 7.582 20 12C20 16.418 16.418 20 12 20C7.58201 20 4 16.418 4 12C4 7.582 7.58201 4 12 4ZM9.00001 9C8.44801 9 8.00001 9.448 8.00001 10V11C8.00001 11.552 8.44801 12 9.00001 12C9.55201 12 10 11.552 10 11V10C10 9.448 9.55201 9 9.00001 9ZM15 9.59399C13.914 9.59399 13 9.922 13 11C13 11.552 13.448 12 14 12C14.311 12 14.567 11.848 14.75 11.625C14.82 11.611 14.892 11.594 15 11.594C15.108 11.594 15.18 11.611 15.25 11.625C15.433 11.848 15.689 12 16 12C16.552 12 17 11.552 17 11C17 9.922 16.086 9.59399 15 9.59399ZM9.188 13.844C8.932 13.844 8.664 13.93 8.469 14.125C8.078 14.516 8.078 15.141 8.469 15.531C9.40001 16.461 10.658 17 12 17C13.338 17 14.601 16.456 15.531 15.531C15.923 15.142 15.921 14.517 15.531 14.125C15.142 13.733 14.517 13.736 14.125 14.125C13.566 14.681 12.804 15 12 15C11.193 15 10.435 14.684 9.87501 14.125C9.68001 13.93 9.443 13.844 9.188 13.844Z" fill="#232323"/>
</svg>
