<svg width="24" height="24" viewBox="0 0 24 24" fill="none" xmlns="http://www.w3.org/2000/svg">
<path d="M16.4762 3.00356C16.6438 3.01949 16.7161 3.22296 16.5971 3.34199L8.27697 11.6621C8.18274 11.7563 8.11532 11.8739 8.08164 12.0029L7.08164 15.8313C7.01435 16.0889 7.08869 16.3629 7.27697 16.5512C7.46524 16.7395 7.73922 16.8138 7.99684 16.7465L11.8253 15.7465C11.9542 15.7128 12.0718 15.6454 12.1661 15.5512L20.604 7.11325C20.7224 6.99486 20.9248 7.06569 20.9422 7.2322C21.2938 10.5814 21.2739 13.9597 20.8826 17.3056C20.6598 19.2106 19.1286 20.7064 17.2302 20.9186C13.7821 21.304 10.2174 21.304 6.76923 20.9186C4.87083 20.7064 3.33964 19.2106 3.11683 17.3056C2.70455 13.7806 2.70455 10.2195 3.11683 6.69452C3.33964 4.78947 4.87083 3.29369 6.76923 3.08151C9.96662 2.72416 13.2643 2.69817 16.4762 3.00356Z" fill="black"/>
<path d="M17.8231 4.23732C17.9206 4.13988 18.0787 4.13988 18.1763 4.23732L19.5907 5.65168C19.6883 5.74931 19.6883 5.9076 19.5907 6.00523L11.2973 14.2987C11.266 14.3299 11.2264 14.3525 11.1837 14.3638L9.26924 14.8638C9.08461 14.9119 8.91645 14.7433 8.96438 14.5587L9.46438 12.6445C9.4756 12.6015 9.49809 12.5623 9.52949 12.5309L17.8231 4.23732Z" fill="black"/>
</svg>
