<svg width="24" height="24" viewBox="0 0 24 24" fill="none" xmlns="http://www.w3.org/2000/svg">
<path d="M21.566 11.0637C21.9596 10.6632 22.0986 10.0755 21.9288 9.52916C21.7586 8.98282 21.3153 8.59282 20.7706 8.51005L15.9281 7.77561C15.7218 7.74426 15.5436 7.60925 15.4515 7.41404L13.2865 2.83434C13.0434 2.31978 12.5501 2 12.0002 2C11.4507 2 10.9574 2.31978 10.7143 2.83434L8.5489 7.41445C8.45679 7.60966 8.27818 7.74468 8.07193 7.77603L3.22938 8.51047C2.68513 8.59282 2.2414 8.98324 2.0712 9.52957C1.9014 10.0759 2.04036 10.6636 2.43403 11.0641L5.9378 14.6289C6.08717 14.781 6.15566 15 6.12041 15.2141L5.29383 20.2477C5.22054 20.6908 5.33188 21.1218 5.6066 21.4616C6.03351 21.9912 6.7788 22.1526 7.3747 21.8257L11.7055 19.4489C11.8865 19.3498 12.1143 19.3507 12.295 19.4489L16.6261 21.8257C16.8367 21.9415 17.0614 22 17.2933 22C17.7166 22 18.1179 21.8035 18.3938 21.4616C18.6689 21.1218 18.7799 20.69 18.7066 20.2477L17.8796 15.2141C17.8443 14.9996 17.9128 14.781 18.0622 14.6289L21.566 11.0637Z" fill="white" stroke="#232323" stroke-width="2"/>
</svg>
