<svg width="24" height="24" viewBox="0 0 24 24" fill="none" xmlns="http://www.w3.org/2000/svg">
<path d="M6 3C3.791 3 2 4.791 2 7V15C2 17.209 3.791 19 6 19L9.00901 19.01C9.43501 19.01 9.881 19.206 10.392 19.677C10.591 19.861 10.829 20.091 10.991 20.306C11.171 20.546 11.406 21.003 12 21C12.594 20.997 12.787 20.593 13 20.312C13.161 20.114 13.354 19.925 13.553 19.741C14.065 19.27 14.574 19 15 19H18C20.209 19 22 17.209 22 15V7C22 4.791 20.209 3 18 3H15C13.789 3 12.734 3.55601 12 4.406C11.266 3.55601 10.211 3 9 3H6ZM6 5H9C10.105 5 11 5.895 11 7L11.006 17.649C10.382 17.244 9.71201 17 9 17H6C4.895 17 4 16.105 4 15V7C4 5.895 4.895 5 6 5ZM15 5H18C19.105 5 20 5.895 20 7V15C20 16.105 19.105 17 18 17H15C14.288 17 13.62 17.257 12.996 17.662L13 7C13 5.895 13.895 5 15 5Z" fill="#232323"/>
</svg>
