<svg width="32" height="32" viewBox="0 0 32 32" fill="none" xmlns="http://www.w3.org/2000/svg">
<path fill-rule="evenodd" clip-rule="evenodd" d="M6.41414 6.41399C6.02361 6.80451 6.02361 7.43768 6.41414 7.8282L24.0918 25.5059C24.4823 25.8964 25.1155 25.8964 25.506 25.5059C25.8965 25.1153 25.8965 24.4822 25.506 24.0917L7.82835 6.41399C7.43783 6.02346 6.80466 6.02346 6.41414 6.41399ZM3.06325 15.6511C3.94168 13.448 5.37266 11.5164 7.20948 10.0376L8.63662 11.4647C7.0989 12.6557 5.87572 14.213 5.08325 16.0011C6.01758 18.1094 7.55061 19.8967 9.49197 21.1411C11.4333 22.3856 13.6975 23.0324 16.0033 23.0011C17.2444 23.018 18.4735 22.8383 19.6466 22.4748L21.2175 24.0457C19.5665 24.6962 17.7962 25.0243 16.0033 25.0011C13.2247 25.037 10.5005 24.2294 8.1903 22.6851C5.8801 21.1408 4.09244 18.9324 3.06325 16.3511C2.97892 16.1254 2.97892 15.8769 3.06325 15.6511ZM11.099 15.0265C11.157 14.7349 11.2406 14.4505 11.3482 14.1763L13.0075 15.8357C12.9936 16.0861 13.0111 16.3386 13.0606 16.5872C13.1763 17.1692 13.4621 17.7037 13.8816 18.1233C14.3012 18.5428 14.8357 18.8286 15.4177 18.9443C15.6663 18.9938 15.9188 19.0112 16.1692 18.9973L17.8286 20.6567C17.2524 20.8827 16.6338 21.002 16.0029 21.002C15.014 21.002 14.0473 20.7087 13.2251 20.1593C12.4028 19.6099 11.762 18.829 11.3835 17.9154C11.0051 17.0017 10.9061 15.9964 11.099 15.0265ZM14.1763 11.3476L15.8354 13.0066C15.8911 13.0035 15.9469 13.002 16.0029 13.002C16.7986 13.002 17.5616 13.318 18.1243 13.8806C18.6869 14.4432 19.0029 15.2063 19.0029 16.002C19.0029 16.058 19.0014 16.1138 18.9983 16.1695L20.6573 17.8286C20.8836 17.2521 21.0029 16.6332 21.0029 16.002C21.0029 15.013 20.7097 14.0464 20.1603 13.2241C19.6109 12.4019 18.83 11.761 17.9164 11.3826C17.0027 11.0041 15.9974 10.9051 15.0275 11.098C14.7356 11.1561 14.4508 11.2398 14.1763 11.3476ZM26.9233 16.0011C26.1304 17.7901 24.9065 19.3479 23.3678 20.5391L24.795 21.9663C26.6328 20.4873 28.0645 18.5551 28.9433 16.3511C29.0276 16.1254 29.0276 15.8769 28.9433 15.6511C27.9141 13.0699 26.1264 10.8614 23.8162 9.31714C21.506 7.77285 18.7818 6.96532 16.0033 7.00114C14.2094 6.97802 12.4381 7.30641 10.7864 7.95765L12.3571 9.52837C13.5311 9.16425 14.7611 8.98432 16.0033 9.00114C18.309 8.96991 20.5732 9.61668 22.5145 10.8611C24.4559 12.1056 25.9889 13.8929 26.9233 16.0011Z" fill="#232323"/>
<path fill-rule="evenodd" clip-rule="evenodd" d="M6.41414 6.41399C6.02361 6.80451 6.02361 7.43768 6.41414 7.8282L24.0918 25.5059C24.4823 25.8964 25.1155 25.8964 25.506 25.5059C25.8965 25.1153 25.8965 24.4822 25.506 24.0917L7.82835 6.41399C7.43783 6.02346 6.80466 6.02346 6.41414 6.41399ZM3.06325 15.6511C3.94168 13.448 5.37266 11.5164 7.20948 10.0376L8.63662 11.4647C7.0989 12.6557 5.87572 14.213 5.08325 16.0011C6.01758 18.1094 7.55061 19.8967 9.49197 21.1411C11.4333 22.3856 13.6975 23.0324 16.0033 23.0011C17.2444 23.018 18.4735 22.8383 19.6466 22.4748L21.2175 24.0457C19.5665 24.6962 17.7962 25.0243 16.0033 25.0011C13.2247 25.037 10.5005 24.2294 8.1903 22.6851C5.8801 21.1408 4.09244 18.9324 3.06325 16.3511C2.97892 16.1254 2.97892 15.8769 3.06325 15.6511ZM11.099 15.0265C11.157 14.7349 11.2406 14.4505 11.3482 14.1763L13.0075 15.8357C12.9936 16.0861 13.0111 16.3386 13.0606 16.5872C13.1763 17.1692 13.4621 17.7037 13.8816 18.1233C14.3012 18.5428 14.8357 18.8286 15.4177 18.9443C15.6663 18.9938 15.9188 19.0112 16.1692 18.9973L17.8286 20.6567C17.2524 20.8827 16.6338 21.002 16.0029 21.002C15.014 21.002 14.0473 20.7087 13.2251 20.1593C12.4028 19.6099 11.762 18.829 11.3835 17.9154C11.0051 17.0017 10.9061 15.9964 11.099 15.0265ZM14.1763 11.3476L15.8354 13.0066C15.8911 13.0035 15.9469 13.002 16.0029 13.002C16.7986 13.002 17.5616 13.318 18.1243 13.8806C18.6869 14.4432 19.0029 15.2063 19.0029 16.002C19.0029 16.058 19.0014 16.1138 18.9983 16.1695L20.6573 17.8286C20.8836 17.2521 21.0029 16.6332 21.0029 16.002C21.0029 15.013 20.7097 14.0464 20.1603 13.2241C19.6109 12.4019 18.83 11.761 17.9164 11.3826C17.0027 11.0041 15.9974 10.9051 15.0275 11.098C14.7356 11.1561 14.4508 11.2398 14.1763 11.3476ZM26.9233 16.0011C26.1304 17.7901 24.9065 19.3479 23.3678 20.5391L24.795 21.9663C26.6328 20.4873 28.0645 18.5551 28.9433 16.3511C29.0276 16.1254 29.0276 15.8769 28.9433 15.6511C27.9141 13.0699 26.1264 10.8614 23.8162 9.31714C21.506 7.77285 18.7818 6.96532 16.0033 7.00114C14.2094 6.97802 12.4381 7.30641 10.7864 7.95765L12.3571 9.52837C13.5311 9.16425 14.7611 8.98432 16.0033 9.00114C18.309 8.96991 20.5732 9.61668 22.5145 10.8611C24.4559 12.1056 25.9889 13.8929 26.9233 16.0011Z" fill="#232323"/>
</svg>
