<svg width="24" height="24" viewBox="0 0 24 24" fill="none" xmlns="http://www.w3.org/2000/svg">
<path d="M12 2C6.48588 2 2 6.48632 2 12C2 17.5141 6.48588 22 12 22C17.5141 22 22 17.5141 22 12C22 6.48632 17.5141 2 12 2ZM12 21.248C6.90085 21.248 2.75205 17.0993 2.75205 12C2.75205 6.90085 6.90067 2.75205 12 2.75205C17.0993 2.75205 21.248 6.90085 21.248 12C21.248 17.0992 17.0993 21.248 12 21.248ZM15.1493 13.7852C15.9949 12.7719 16.472 11.399 16.472 9.93634C16.472 7.11791 14.6329 5.1492 11.9999 5.1492C9.36662 5.1492 7.52778 7.11782 7.52778 9.93634C7.52778 11.4389 8.03559 12.8004 8.85411 13.7828C7.42741 14.5293 6.3305 15.7981 5.66847 17.4818C5.59258 17.6751 5.68753 17.8935 5.88076 17.9692C5.92587 17.987 5.97256 17.9953 6.0182 17.9953C6.16841 17.9953 6.31004 17.905 6.3681 17.7569C6.99427 16.1648 8.0466 14.9941 9.41192 14.3501C10.1428 14.981 11.0359 15.3536 11.9997 15.3536C12.9277 15.3536 13.8365 14.9969 14.5886 14.3511C15.9537 14.9958 17.0062 16.1655 17.632 17.7569C17.6899 17.905 17.8319 17.9953 17.9819 17.9953C18.0277 17.9953 18.0744 17.987 18.1195 17.9692C18.3128 17.8933 18.4079 17.6749 18.3318 17.4818C17.6707 15.8002 16.5753 14.5326 15.1493 13.7853L15.1493 13.7852ZM14.2657 13.6343C13.6101 14.267 12.8268 14.6016 12 14.6016C9.94874 14.6016 8.27987 12.5087 8.27987 9.9367C8.27987 7.52343 9.77492 5.90174 12 5.90174C14.2252 5.90174 15.7202 7.52343 15.7202 9.9367C15.7202 11.3937 15.19 12.7413 14.2657 13.6345V13.6343Z" fill="#232323" stroke="#232323"/>
</svg>
