<svg width="32" height="32" viewBox="0 0 32 32" fill="none" xmlns="http://www.w3.org/2000/svg">
<path d="M23.0278 5C24.0813 5 25.0916 5.4185 25.8366 6.16344C26.5815 6.90837 27 7.91872 27 8.97222V17.3799C26.9997 18.1088 26.71 18.8078 26.1946 19.3232L19.3244 26.1946C19.0691 26.4499 18.7659 26.6525 18.4323 26.7907C18.0986 26.9289 17.741 27 17.3799 27H8.97222C7.91872 27 6.90837 26.5815 6.16344 25.8366C5.4185 25.0916 5 24.0813 5 23.0278V8.97222C5 7.91872 5.4185 6.90837 6.16344 6.16344C6.90837 5.4185 7.91872 5 8.97222 5H23.0278ZM23.0278 6.83333H8.97222C8.40495 6.83333 7.86092 7.05868 7.4598 7.4598C7.05868 7.86092 6.83333 8.40495 6.83333 8.97222V23.0278C6.83333 24.2084 7.79156 25.1667 8.97222 25.1667H17.2222V21.1944C17.2222 20.1798 17.6103 19.2037 18.3072 18.4662C19.004 17.7287 19.9566 17.2858 20.9696 17.2283L21.1944 17.2222H25.1667V8.97222C25.1667 8.40495 24.9413 7.86092 24.5402 7.4598C24.1391 7.05868 23.595 6.83333 23.0278 6.83333ZM23.8699 19.0556H21.1944C20.6575 19.0556 20.1401 19.2576 19.7452 19.6215C19.3503 19.9854 19.1068 20.4845 19.0629 21.0197L19.0556 21.1944V23.8699L23.8699 19.0556Z" fill="#979797"/>
<path d="M12.8772 14.6611L14.386 16.2286L18.1228 12.3281C18.345 12.1094 18.6053 12 18.9035 12C19.2018 12 19.4591 12.1094 19.6754 12.3281C19.8918 12.5468 20 12.8141 20 13.1301C20 13.446 19.8947 13.7133 19.6842 13.932L15.3333 18.4341C15.2632 18.5677 15.2164 18.6467 15.193 18.671C14.9708 18.9019 14.7018 19.0112 14.386 18.9991C14.0585 19.0112 13.7836 18.9019 13.5614 18.671C13.538 18.6467 13.4912 18.5677 13.4211 18.4341L11.3158 16.2651C11.1053 16.0463 11 15.779 11 15.4631C11 15.1472 11.1082 14.8798 11.3246 14.6611C11.5409 14.4424 11.7982 14.333 12.0965 14.333C12.3947 14.333 12.655 14.4424 12.8772 14.6611Z" fill="#979797"/>
</svg>
