<svg width="24" height="24" viewBox="0 0 24 24" fill="none" xmlns="http://www.w3.org/2000/svg">
<path d="M12 5.5C8.43559 5.5 5.75 7.9548 5.75 10.75V12.2623C5.83223 12.2542 5.91563 12.25 6 12.25H8C8.82843 12.25 9.5 12.9216 9.5 13.75V18.75C9.5 19.5784 8.82843 20.25 8 20.25H6C4.61929 20.25 3.5 19.1307 3.5 17.75V14.75C3.5 14.0507 3.78716 13.4184 4.25 12.9646V10.75C4.25 6.91778 7.83242 4 12 4C16.1676 4 19.75 6.91778 19.75 10.75V12.9646C20.2128 13.4184 20.5 14.0507 20.5 14.75V17.75C20.5 19.1307 19.3807 20.25 18 20.25H16C15.1716 20.25 14.5 19.5784 14.5 18.75V13.75C14.5 12.9216 15.1716 12.25 16 12.25H18C18.0844 12.25 18.1678 12.2542 18.25 12.2623V10.75C18.25 7.9548 15.5644 5.5 12 5.5Z" fill="#232323"/>
</svg>
