<svg width="24" height="24" viewBox="0 0 24 24" fill="none" xmlns="http://www.w3.org/2000/svg">
<path d="M7.56201 2C5.61101 2 4 3.47999 4 5.34399V18.656C4 20.52 5.61101 22 7.56201 22H16.438C18.389 22 20 20.52 20 18.656C20 18.005 20 10.858 20 9C20 8.99 20 8.97899 20 8.96899C20 5.40599 16.561 2 13 2C8.786 2 8.77601 2 7.56201 2ZM7.56201 4C8.55301 4 9.674 4 12 4V6.65601C12 8.52001 13.611 10 15.562 10H18C18 12.537 18 18.072 18 18.656C18 19.37 17.326 20 16.438 20H7.56201C6.67401 20 6 19.37 6 18.656V5.34399C6 4.62999 6.67401 4 7.56201 4ZM14 4.25C15.772 4.72 17.322 6.233 17.781 8H15.562C14.673 8 14 7.37001 14 6.65601V4.25ZM15 12C14.744 12 14.477 12.086 14.281 12.281L11 15.562L9.71899 14.281C9.32799 13.891 8.67201 13.891 8.28101 14.281C7.89101 14.672 7.89101 15.328 8.28101 15.719L10.281 17.719C10.672 18.109 11.328 18.109 11.719 17.719L15.719 13.719C16.109 13.328 16.109 12.672 15.719 12.281C15.523 12.086 15.256 12 15 12Z" fill="#232323"/>
</svg>
