<svg width="40" height="40" viewBox="0 0 40 40" fill="none" xmlns="http://www.w3.org/2000/svg">
<g filter="url(#filter0_dii_14155_13674)">
<rect x="4" y="2" width="32" height="32" rx="9" fill="white"/>
</g>
<path d="M20 19.1999H19.1C18.3619 19.1995 17.6377 19.4009 17.0058 19.7822C16.3738 20.1636 15.8581 20.7104 15.5144 21.3636C15.5048 21.2428 15.5 21.1216 15.5 20.9999C15.5 20.4089 15.6163 19.8237 15.8425 19.2777C16.0686 18.7318 16.4001 18.2357 16.8179 17.8178C17.2358 17.3999 17.7319 17.0685 18.2779 16.8423C18.8239 16.6162 19.409 16.4998 20 16.4999V14.25L24.5 17.85L20 21.45V19.1999Z" fill="#C4C4C4" stroke="#C4C4C4"/>
<defs>
<filter id="filter0_dii_14155_13674" x="0" y="0" width="40" height="40" filterUnits="userSpaceOnUse" color-interpolation-filters="sRGB">
<feFlood flood-opacity="0" result="BackgroundImageFix"/>
<feColorMatrix in="SourceAlpha" type="matrix" values="0 0 0 0 0 0 0 0 0 0 0 0 0 0 0 0 0 0 127 0" result="hardAlpha"/>
<feOffset dy="2"/>
<feGaussianBlur stdDeviation="2"/>
<feComposite in2="hardAlpha" operator="out"/>
<feColorMatrix type="matrix" values="0 0 0 0 0.643137 0 0 0 0 0.203922 0 0 0 0 0.796078 0 0 0 0.08 0"/>
<feBlend mode="normal" in2="BackgroundImageFix" result="effect1_dropShadow_14155_13674"/>
<feBlend mode="normal" in="SourceGraphic" in2="effect1_dropShadow_14155_13674" result="shape"/>
<feColorMatrix in="SourceAlpha" type="matrix" values="0 0 0 0 0 0 0 0 0 0 0 0 0 0 0 0 0 0 127 0" result="hardAlpha"/>
<feOffset dx="-2" dy="-2"/>
<feGaussianBlur stdDeviation="3"/>
<feComposite in2="hardAlpha" operator="arithmetic" k2="-1" k3="1"/>
<feColorMatrix type="matrix" values="0 0 0 0 0.643137 0 0 0 0 0.203922 0 0 0 0 0.796078 0 0 0 0.12 0"/>
<feBlend mode="normal" in2="shape" result="effect2_innerShadow_14155_13674"/>
<feColorMatrix in="SourceAlpha" type="matrix" values="0 0 0 0 0 0 0 0 0 0 0 0 0 0 0 0 0 0 127 0" result="hardAlpha"/>
<feOffset dx="-1" dy="-1"/>
<feGaussianBlur stdDeviation="2"/>
<feComposite in2="hardAlpha" operator="arithmetic" k2="-1" k3="1"/>
<feColorMatrix type="matrix" values="0 0 0 0 0.643137 0 0 0 0 0.203922 0 0 0 0 0.796078 0 0 0 0.08 0"/>
<feBlend mode="normal" in2="effect2_innerShadow_14155_13674" result="effect3_innerShadow_14155_13674"/>
</filter>
</defs>
</svg>
