<svg width="16" height="16" viewBox="0 0 16 16" fill="none" xmlns="http://www.w3.org/2000/svg">
<path fill-rule="evenodd" clip-rule="evenodd" d="M8.5 5C9.32843 5 10 4.32843 10 3.5C10 2.67157 9.32843 2 8.5 2C7.67157 2 7 2.67157 7 3.5C7 4.32843 7.67157 5 8.5 5Z" fill="#232323"/>
<path fill-rule="evenodd" clip-rule="evenodd" d="M8.5 10C9.32843 10 10 9.32843 10 8.5C10 7.67157 9.32843 7 8.5 7C7.67157 7 7 7.67157 7 8.5C7 9.32843 7.67157 10 8.5 10Z" fill="#232323"/>
<path fill-rule="evenodd" clip-rule="evenodd" d="M8.5 15C9.32843 15 10 14.3284 10 13.5C10 12.6716 9.32843 12 8.5 12C7.67157 12 7 12.6716 7 13.5C7 14.3284 7.67157 15 8.5 15Z" fill="#232323"/>
</svg>
