<svg width="16" height="16" viewBox="0 0 16 16" fill="none" xmlns="http://www.w3.org/2000/svg">
<path d="M3.75 9H5.5C5.63261 9 5.75978 8.94732 5.85355 8.85355C5.94732 8.75979 6 8.63261 6 8.5C6 8.36739 5.94732 8.24021 5.85355 8.14645C5.75978 8.05268 5.63261 8 5.5 8H3.75C3.28587 8 2.84075 8.18437 2.51256 8.51256C2.18437 8.84075 2 9.28587 2 9.75C2 10.2141 2.18437 10.6592 2.51256 10.9874C2.84075 11.3156 3.28587 11.5 3.75 11.5H10.75C10.9489 11.5 11.1397 11.579 11.2803 11.7197C11.421 11.8603 11.5 12.0511 11.5 12.25C11.5 12.4489 11.421 12.6397 11.2803 12.7803C11.1397 12.921 10.9489 13 10.75 13H7.5C7.36739 13 7.24021 13.0527 7.14645 13.1464C7.05268 13.2402 7 13.3674 7 13.5C7 13.6326 7.05268 13.7598 7.14645 13.8536C7.24021 13.9473 7.36739 14 7.5 14H10.75C11.2141 14 11.6592 13.8156 11.9874 13.4874C12.3156 13.1592 12.5 12.7141 12.5 12.25C12.5 11.7859 12.3156 11.3408 11.9874 11.0126C11.6592 10.6844 11.2141 10.5 10.75 10.5H3.75C3.55109 10.5 3.36032 10.421 3.21967 10.2803C3.07902 10.1397 3 9.94891 3 9.75C3 9.55109 3.07902 9.36032 3.21967 9.21967C3.36032 9.07902 3.55109 9 3.75 9Z" fill="#D8D8D8"/>
<path d="M11.5 2C11.4343 1.99995 11.3693 2.01284 11.3086 2.03793C11.2479 2.06303 11.1927 2.09983 11.1463 2.14625L8.02126 5.27125C7.69634 5.59536 7.4388 5.9806 7.26352 6.40475C7.08824 6.8289 6.99868 7.28356 7.00001 7.7425V8.5C7.00001 8.63261 7.05269 8.75979 7.14646 8.85355C7.24023 8.94732 7.36741 9 7.50001 9H8.25751C8.71735 9.00134 9.17287 8.91143 9.59772 8.73548C10.0226 8.55954 10.4083 8.30105 10.7325 7.975L13.8575 4.85C13.949 4.75647 14.0001 4.63082 14 4.5C14 3.83696 13.7366 3.20107 13.2678 2.73223C12.7989 2.26339 12.1631 2 11.5 2ZM10.025 7.2675C9.7935 7.50044 9.51807 7.68513 9.21467 7.81087C8.91127 7.9366 8.58594 8.00089 8.25751 8H8.00001V7.7425C7.99913 7.41408 8.06341 7.08875 8.18915 6.78535C8.31488 6.48195 8.49957 6.20651 8.73251 5.975L11.695 3.0125C12.0228 3.05543 12.3271 3.20541 12.5609 3.43914C12.7946 3.67287 12.9446 3.97726 12.9875 4.305L10.025 7.2675Z" fill="#D8D8D8"/>
<path d="M10.025 7.2675C9.7935 7.50044 9.51807 7.68513 9.21467 7.81087C8.91127 7.9366 8.58594 8.00089 8.25751 8H8.00001V7.7425C7.99913 7.41408 8.06341 7.08875 8.18915 6.78535C8.31488 6.48195 8.49957 6.20651 8.73251 5.975L11.695 3.0125C12.0228 3.05543 12.3271 3.20541 12.5609 3.43914C12.7946 3.67287 12.9446 3.97726 12.9875 4.305L10.025 7.2675Z" fill="#D8D8D8"/>
</svg>
