<svg width="24" height="24" viewBox="0 0 24 24" fill="none" xmlns="http://www.w3.org/2000/svg">
<path d="M15.4999 20V18.3341C15.4999 17.8963 15.4136 17.4628 15.2461 17.0583C15.0786 16.6539 14.833 16.2864 14.5235 15.9768C14.2139 15.6673 13.8464 15.4217 13.4419 15.2542C13.0375 15.0866 12.604 15.0004 12.1662 15.0004H6.33367C5.89588 15.0004 5.46239 15.0866 5.05793 15.2542C4.65347 15.4217 4.28597 15.6673 3.97641 15.9768C3.66685 16.2864 3.42129 16.6539 3.25376 17.0583C3.08623 17.4628 3 17.8963 3 18.3341V20" stroke="#232323" stroke-width="2" stroke-linecap="round" stroke-linejoin="round"/>
<path d="M9.24968 11.6673C11.0908 11.6673 12.5833 10.1748 12.5833 8.33367C12.5833 6.49253 11.0908 5 9.24968 5C7.40855 5 5.91602 6.49253 5.91602 8.33367C5.91602 10.1748 7.40855 11.6673 9.24968 11.6673Z" stroke="#232323" stroke-width="2" stroke-linecap="round" stroke-linejoin="round"/>
<path d="M16.333 11.6666L17.9998 13.3334L21.3326 9.99976" stroke="#232323" stroke-width="2" stroke-linecap="round" stroke-linejoin="round"/>
</svg>
