<svg width="32" height="32" viewBox="0 0 32 32" fill="none" xmlns="http://www.w3.org/2000/svg">
<path d="M23.5753 3H8.28767C6.47945 3 5 4.47945 5 6.28767V21.3014C5 23.1096 6.47945 24.589 8.28767 24.589H9.73973C9.65753 25.0822 9.49315 25.5479 9.30137 25.9863C8.94521 26.8082 9.10959 27.7671 9.76712 28.3973C10.1781 28.7808 10.6986 29 11.2466 29C11.5753 29 11.9041 28.9178 12.2055 28.7808C14.2055 27.7945 15.8767 26.0411 17.0274 24.589H23.5479C25.3562 24.589 26.8356 23.1096 26.8356 21.3014V6.28767C26.8904 4.47945 25.411 3 23.5753 3ZM24.726 21.3288C24.726 21.9589 24.2055 22.4795 23.5753 22.4795H16.5342C16.2055 22.4795 15.8767 22.6438 15.6849 22.8904C14.863 23.9863 13.1918 25.9315 11.274 26.8904C11.7397 25.8493 11.9863 24.726 12.0137 23.5753C12.0137 23.274 11.9041 23 11.7123 22.8082C11.5205 22.589 11.2466 22.4795 10.9452 22.4795H8.28767C7.65753 22.4795 7.13699 21.9589 7.13699 21.3288V6.28767C7.13699 5.65753 7.65753 5.13699 8.28767 5.13699H23.6027C24.2329 5.13699 24.7534 5.65753 24.7534 6.28767V21.3288H24.726Z" fill="#D8D8D8"/>
<path d="M15.9858 7.57568C13.2735 7.57568 12.0132 9.54829 11.7666 11.2195C11.7392 11.4387 11.794 11.6579 11.931 11.8223C12.068 11.9866 12.2872 12.0962 12.5063 12.0962H13.4652C13.8214 12.0962 14.1502 11.8223 14.205 11.4661C14.3694 10.5346 14.9721 10.0414 15.9584 10.0414C16.9173 10.0414 17.3283 10.5346 17.4926 10.836C17.7118 11.2743 17.6844 11.7675 17.4105 12.151C17.1091 12.5346 16.8625 12.7264 16.5337 12.9455C15.7118 13.5209 15.0269 14.1236 14.8899 15.8497C14.8625 16.0688 14.9447 16.2606 15.0817 16.425C15.2187 16.5894 15.4378 16.6716 15.6296 16.6716H16.5611C16.9447 16.6716 17.3009 16.3702 17.3283 15.9866C17.3831 15.3565 17.52 15.2469 17.931 14.9729C18.3146 14.699 18.8625 14.3154 19.3831 13.6031C20.205 12.4798 20.3146 11.0003 19.6844 9.71267C19.0269 8.3702 17.6296 7.57568 15.9858 7.57568Z" fill="#D8D8D8"/>
<path d="M16.0966 20.5068C16.9137 20.5068 17.5761 19.8444 17.5761 19.0273C17.5761 18.2102 16.9137 17.5479 16.0966 17.5479C15.2796 17.5479 14.6172 18.2102 14.6172 19.0273C14.6172 19.8444 15.2796 20.5068 16.0966 20.5068Z" fill="#D8D8D8"/>
</svg>
