<svg width="32" height="32" viewBox="0 0 32 32" fill="none" xmlns="http://www.w3.org/2000/svg">
<path d="M6.79167 18.1667H10.5833C10.8707 18.1667 11.1462 18.0525 11.3494 17.8494C11.5525 17.6462 11.6667 17.3707 11.6667 17.0833C11.6667 16.796 11.5525 16.5205 11.3494 16.3173C11.1462 16.1141 10.8707 16 10.5833 16H6.79167C5.78605 16 4.82163 16.3995 4.11055 17.1106C3.39948 17.8216 3 18.7861 3 19.7917C3 20.7973 3.39948 21.7617 4.11055 22.4728C4.82163 23.1839 5.78605 23.5833 6.79167 23.5833H21.9583C22.3893 23.5833 22.8026 23.7545 23.1074 24.0593C23.4121 24.364 23.5833 24.7774 23.5833 25.2083C23.5833 25.6393 23.4121 26.0526 23.1074 26.3574C22.8026 26.6621 22.3893 26.8333 21.9583 26.8333H14.9167C14.6293 26.8333 14.3538 26.9475 14.1506 27.1506C13.9475 27.3538 13.8333 27.6293 13.8333 27.9167C13.8333 28.204 13.9475 28.4795 14.1506 28.6827C14.3538 28.8859 14.6293 29 14.9167 29H21.9583C22.9639 29 23.9284 28.6005 24.6394 27.8894C25.3505 27.1784 25.75 26.2139 25.75 25.2083C25.75 24.2027 25.3505 23.2383 24.6394 22.5272C23.9284 21.8161 22.9639 21.4167 21.9583 21.4167H6.79167C6.36069 21.4167 5.94736 21.2455 5.64262 20.9407C5.33787 20.636 5.16667 20.2226 5.16667 19.7917C5.16667 19.3607 5.33787 18.9474 5.64262 18.6426C5.94736 18.3379 6.36069 18.1667 6.79167 18.1667Z" fill="#D8D8D8"/>
<path d="M23.583 3C23.4407 2.99989 23.2998 3.02782 23.1683 3.08219C23.0368 3.13656 22.9173 3.2163 22.8166 3.31688L16.0457 10.0877C15.3417 10.7899 14.7837 11.6246 14.404 12.5436C14.0242 13.4626 13.8302 14.4477 13.833 15.4421V17.0833C13.833 17.3707 13.9472 17.6462 14.1503 17.8494C14.3535 18.0525 14.6291 18.1667 14.9164 18.1667H16.5576C17.5539 18.1696 18.5409 17.9748 19.4614 17.5935C20.3819 17.2123 21.2176 16.6523 21.9201 15.9458L28.691 9.175C28.8891 8.97234 29 8.7001 28.9997 8.41667C28.9997 6.98008 28.429 5.60233 27.4132 4.58651C26.3974 3.57068 25.0196 3 23.583 3ZM20.3872 14.4129C19.8856 14.9176 19.2888 15.3178 18.6315 15.5902C17.9741 15.8626 17.2692 16.0019 16.5576 16H15.9997V15.4421C15.9978 14.7305 16.1371 14.0256 16.4095 13.3683C16.6819 12.7109 17.0821 12.1141 17.5868 11.6125L24.0055 5.19375C24.7157 5.28676 25.3752 5.61172 25.8816 6.11813C26.388 6.62455 26.713 7.28405 26.806 7.99417L20.3872 14.4129Z" fill="#D8D8D8"/>
</svg>
