<svg width="48" height="48" viewBox="0 0 48 48" fill="none" xmlns="http://www.w3.org/2000/svg">
<path fill-rule="evenodd" clip-rule="evenodd" d="M25.146 8.99976H12.608C7.47779 8.99976 4 12.4379 4 17.3758V31.4058C4 36.3436 7.47779 39.7818 12.608 39.7818H25.146C29.9823 39.7818 33.3616 36.7109 33.722 32.2136L39.0158 34.3773L39.281 34.4741C41.5846 35.2177 43.9993 33.5053 43.9993 31.0308V17.7528L43.9888 17.4708C43.8068 15.0575 41.3073 13.4693 39.0166 14.404L33.7222 16.568C33.3628 12.0675 29.9902 8.99976 25.146 8.99976ZM30.754 18.7328C30.7526 18.7704 30.7526 18.8081 30.754 18.8459V29.9358C30.7526 29.9736 30.7526 30.0113 30.754 30.0488V31.4058C30.754 34.6735 28.6184 36.7818 25.146 36.7818H12.608C9.127 36.7818 7 34.679 7 31.4058V17.3758C7 14.1025 9.127 11.9998 12.608 11.9998H25.146C28.6258 11.9998 30.754 14.1033 30.754 17.3758V18.7328ZM33.754 28.9857V19.7959L40.1508 17.1813L40.2865 17.143C40.6486 17.0842 40.9993 17.3632 40.9993 17.7528V31.0308L40.9836 31.171C40.9013 31.5287 40.5111 31.7473 40.15 31.6L33.754 28.9857Z" fill="#D8D8D8"/>
<path d="M33.722 32.2136L33.8166 31.9822L33.5002 31.8528L33.4728 32.1936L33.722 32.2136ZM39.0158 34.3773L38.9211 34.6089L38.9301 34.6122L39.0158 34.3773ZM39.281 34.4741L39.1952 34.7091L39.2042 34.712L39.281 34.4741ZM43.9993 17.7528H44.2495L44.2491 17.7435L43.9993 17.7528ZM43.9888 17.4708L44.2388 17.4614L44.238 17.452L43.9888 17.4708ZM39.0166 14.404L38.9222 14.1725L38.922 14.1726L39.0166 14.404ZM33.7222 16.568L33.473 16.5879L33.5002 16.9288L33.8168 16.7994L33.7222 16.568ZM30.754 18.8459H31.0042L31.0038 18.8364L30.754 18.8459ZM30.754 18.7328L31.004 18.7423V18.7328H30.754ZM30.754 29.9358L31.004 29.9453V29.9358H30.754ZM30.754 30.0488H31.0042L31.0038 30.0393L30.754 30.0488ZM33.754 19.7959L33.6594 19.5645L33.504 19.628V19.7959H33.754ZM33.754 28.9857H33.504V29.1536L33.6594 29.2172L33.754 28.9857ZM40.1508 17.1813L40.0829 16.9407L40.0693 16.9446L40.0563 16.9499L40.1508 17.1813ZM40.2865 17.143L40.2465 16.8962L40.2323 16.8985L40.2186 16.9024L40.2865 17.143ZM40.9993 31.0308L41.2478 31.0587L41.2493 31.0448V31.0308H40.9993ZM40.9836 31.171L41.2272 31.2271L41.2304 31.2131L41.232 31.1989L40.9836 31.171ZM40.15 31.6L40.0554 31.8314L40.0556 31.8315L40.15 31.6ZM12.608 9.24976H25.146V8.74976H12.608V9.24976ZM4.25 17.3758C4.25 14.9674 5.09695 12.9401 6.55493 11.5148C8.01327 10.0893 10.0998 9.24976 12.608 9.24976V8.74976C9.98596 8.74976 7.76852 9.62932 6.20541 11.1573C4.64195 12.6856 3.75 14.8463 3.75 17.3758H4.25ZM4.25 31.4058V17.3758H3.75V31.4058H4.25ZM12.608 39.5318C10.0998 39.5318 8.01327 38.6922 6.55493 37.2667C5.09695 35.8415 4.25 33.8141 4.25 31.4058H3.75C3.75 33.9352 4.64195 36.0959 6.20541 37.6242C7.76852 39.1522 9.98596 40.0318 12.608 40.0318V39.5318ZM25.146 39.5318H12.608V40.0318H25.146V39.5318ZM33.4728 32.1936C33.2974 34.3828 32.3891 36.2134 30.9463 37.4974C29.5029 38.7818 27.5104 39.5318 25.146 39.5318V40.0318C27.6179 40.0318 29.7332 39.2463 31.2787 37.8709C32.8247 36.4951 33.7863 34.5416 33.9713 32.2336L33.4728 32.1936ZM39.1104 34.1459L33.8166 31.9822L33.6275 32.445L38.9212 34.6087L39.1104 34.1459ZM39.3667 34.2393L39.1015 34.1425L38.9301 34.6122L39.1952 34.709L39.3667 34.2393ZM43.7493 31.0308C43.7493 33.3337 41.5018 34.9282 39.3578 34.2362L39.2042 34.712C41.6674 35.5071 44.2493 33.6769 44.2493 31.0308H43.7493ZM43.7493 17.7528V31.0308H44.2493V17.7528H43.7493ZM43.7389 17.4802L43.7495 17.7622L44.2491 17.7435L44.2386 17.4614L43.7389 17.4802ZM39.1111 14.6355C41.2431 13.7655 43.5701 15.2436 43.7395 17.4896L44.238 17.452C44.0434 14.8713 41.3716 13.1731 38.9222 14.1725L39.1111 14.6355ZM33.8168 16.7994L39.1112 14.6354L38.922 14.1726L33.6276 16.3366L33.8168 16.7994ZM25.146 9.24976C27.5145 9.24976 29.5073 9.999 30.9497 11.2829C32.3916 12.5664 33.298 14.397 33.473 16.5879L33.9714 16.5481C33.787 14.2386 32.8274 12.285 31.2821 10.9095C29.7373 9.53439 27.6217 8.74976 25.146 8.74976V9.24976ZM31.0038 18.8364C31.0026 18.8049 31.0026 18.7736 31.0038 18.7423L30.5042 18.7234C30.5025 18.7672 30.5025 18.8112 30.5042 18.8554L31.0038 18.8364ZM31.004 29.9358V18.8459H30.504V29.9358H31.004ZM31.0038 30.0393C31.0026 30.0081 31.0026 29.9767 31.0038 29.9453L30.5042 29.9263C30.5025 29.9704 30.5025 30.0145 30.5042 30.0583L31.0038 30.0393ZM31.004 31.4058V30.0488H30.504V31.4058H31.004ZM25.146 37.0318C26.9329 37.0318 28.4021 36.4885 29.4259 35.4989C30.4505 34.5086 31.004 33.0955 31.004 31.4058H30.504C30.504 32.9838 29.9897 34.2587 29.0784 35.1394C28.1663 36.0209 26.8315 36.5318 25.146 36.5318V37.0318ZM12.608 37.0318H25.146V36.5318H12.608V37.0318ZM6.75 31.4058C6.75 33.0978 7.30107 34.5111 8.32485 35.5009C9.34779 36.49 10.8171 37.0318 12.608 37.0318V36.5318C10.9179 36.5318 9.58321 36.0221 8.6724 35.1415C7.76242 34.2617 7.25 32.9869 7.25 31.4058H6.75ZM6.75 17.3758V31.4058H7.25V17.3758H6.75ZM12.608 11.7498C10.8171 11.7498 9.34779 12.2915 8.32485 13.2806C7.30107 14.2704 6.75 15.6837 6.75 17.3758H7.25C7.25 15.7946 7.76242 14.5199 8.6724 13.64C9.58321 12.7594 10.9179 12.2498 12.608 12.2498V11.7498ZM25.146 11.7498H12.608V12.2498H25.146V11.7498ZM31.004 17.3758C31.004 15.684 30.4526 14.2708 29.4287 13.2809C28.4056 12.2917 26.9363 11.7498 25.146 11.7498V12.2498C26.8355 12.2498 28.1702 12.7596 29.0811 13.6403C29.9913 14.5203 30.504 15.7951 30.504 17.3758H31.004ZM31.004 18.7328V17.3758H30.504V18.7328H31.004ZM33.504 19.7959V28.9857H34.004V19.7959H33.504ZM40.0563 16.9499L33.6594 19.5645L33.8486 20.0273L40.2454 17.4127L40.0563 16.9499ZM40.2186 16.9024L40.0829 16.9407L40.2188 17.4219L40.3545 17.3836L40.2186 16.9024ZM41.2493 17.7528C41.2493 17.2047 40.7561 16.8135 40.2465 16.8962L40.3266 17.3898C40.5411 17.355 40.7493 17.5218 40.7493 17.7528H41.2493ZM41.2493 31.0308V17.7528H40.7493V31.0308H41.2493ZM41.232 31.1989L41.2478 31.0587L40.7509 31.0029L40.7351 31.1431L41.232 31.1989ZM40.0556 31.8315C40.5631 32.0386 41.1113 31.7309 41.2272 31.2271L40.7399 31.115C40.6913 31.3265 40.459 31.4561 40.2445 31.3685L40.0556 31.8315ZM33.6594 29.2172L40.0554 31.8314L40.2446 31.3686L33.8486 28.7543L33.6594 29.2172Z" fill="#D8D8D8"/>
</svg>
