<svg width="16" height="16" viewBox="0 0 16 16" fill="none" xmlns="http://www.w3.org/2000/svg">
<path d="M8.00163 12.5006C6.61233 12.5185 5.25025 12.1147 4.09515 11.3426C2.94005 10.5704 2.04622 9.46618 1.53163 8.17557C1.48946 8.06271 1.48946 7.93843 1.53163 7.82557C2.04622 6.53496 2.94005 5.43072 4.09515 4.65857C5.25025 3.88642 6.61233 3.48266 8.00163 3.50057C9.39092 3.48266 10.753 3.88642 11.9081 4.65857C13.0632 5.43072 13.957 6.53496 14.4716 7.82557C14.5138 7.93843 14.5138 8.06271 14.4716 8.17557C13.957 9.46618 13.0632 10.5704 11.9081 11.3426C10.753 12.1147 9.39092 12.5185 8.00163 12.5006ZM2.54163 8.00057C3.00879 9.05468 3.77531 9.94834 4.74599 10.5706C5.71666 11.1928 6.84874 11.5162 8.00163 11.5006C9.15451 11.5162 10.2866 11.1928 11.2573 10.5706C12.2279 9.94834 12.9945 9.05468 13.4616 8.00057C12.9945 6.94646 12.2279 6.0528 11.2573 5.43057C10.2866 4.80834 9.15451 4.48496 8.00163 4.50057C6.84874 4.48496 5.71666 4.80834 4.74599 5.43057C3.77531 6.0528 3.00879 6.94646 2.54163 8.00057Z" fill="#D8D8D8" stroke="#D8D8D8" stroke-width="2"/>
<path d="M8.00098 10.5005C7.50652 10.5005 7.02317 10.3539 6.61205 10.0792C6.20093 9.80446 5.8805 9.41401 5.69128 8.9572C5.50206 8.50038 5.45255 7.99772 5.54901 7.51276C5.64548 7.02781 5.88358 6.58235 6.23321 6.23272C6.58284 5.88309 7.0283 5.64499 7.51325 5.54853C7.9982 5.45206 8.50087 5.50157 8.95769 5.69079C9.4145 5.88001 9.80495 6.20044 10.0797 6.61156C10.3544 7.02269 10.501 7.50604 10.501 8.00049C10.501 8.66353 10.2376 9.29942 9.76874 9.76826C9.2999 10.2371 8.66402 10.5005 8.00098 10.5005ZM8.00098 6.50049C7.70431 6.50049 7.4143 6.58846 7.16762 6.75329C6.92095 6.91811 6.72869 7.15238 6.61516 7.42646C6.50163 7.70055 6.47192 8.00215 6.5298 8.29313C6.58768 8.5841 6.73054 8.85137 6.94032 9.06115C7.1501 9.27093 7.41737 9.41379 7.70834 9.47167C7.99931 9.52955 8.30091 9.49984 8.575 9.38631C8.84909 9.27278 9.08336 9.08052 9.24818 8.83384C9.413 8.58717 9.50098 8.29716 9.50098 8.00049C9.50098 7.60266 9.34294 7.22113 9.06164 6.93983C8.78033 6.65852 8.3988 6.50049 8.00098 6.50049Z" fill="#D8D8D8"/>
</svg>
