<svg width="48" height="48" viewBox="0 0 48 48" fill="none" xmlns="http://www.w3.org/2000/svg">
<path fill-rule="evenodd" clip-rule="evenodd" d="M19.2935 6H28.7065C30.6798 6.01377 32.2344 7.03907 33.1359 8.81483C33.2654 9.06817 33.4195 9.37968 33.6051 9.76244L34.8919 12.4675C34.9625 12.6166 35.1114 12.7109 35.3151 12.7114L35.7381 12.7229C40.3597 12.9645 44 16.7845 44 21.4257V33.2852C44 38.0972 40.0938 42 35.276 42H12.726C7.90657 42 4 38.0975 4 33.2852V21.4257C4 16.612 7.90595 12.7109 12.6303 12.7139L12.78 12.7075C12.9227 12.6891 13.0482 12.5984 13.1095 12.4688L14.092 10.3954L14.8631 8.81684C15.7691 7.03787 17.3211 6.01376 19.2935 6ZM28.696 8.99661L19.3145 8.99657C18.4999 9.00225 17.9495 9.36543 17.5372 10.175C17.4168 10.4117 17.2694 10.7105 17.0896 11.0821L15.8219 13.7492C15.3216 14.8051 14.3171 15.5315 13.0668 15.6888L12.726 15.7075C9.56267 15.7075 7 18.267 7 21.4255V33.285C7 36.4422 9.56343 39.003 12.726 39.003H35.276C38.4368 39.003 41 36.442 41 33.285V21.4255C41 18.3806 38.6112 15.8738 35.6206 15.717L34.9726 15.6941C33.7693 15.5876 32.7028 14.8526 32.1795 13.7479L30.7825 10.8167L30.4622 10.1738C30.052 9.36586 29.5007 9.00226 28.696 8.99661ZM16.1438 26.6574C16.1089 22.355 19.6668 18.7846 24.0095 18.7896L24.4133 18.8003C28.5602 19.0161 31.8649 22.4624 31.8578 26.6618C31.8503 30.9817 28.3266 34.504 24.0046 34.509C19.6751 34.5115 16.1413 30.9745 16.1438 26.6574ZM28.8577 26.6565C28.8623 23.9766 26.6817 21.7893 24.006 21.7862L23.6872 21.7964C21.1564 21.9611 19.1232 24.1039 19.1437 26.646C19.1422 29.3209 21.3328 31.5135 24.002 31.512C26.6688 31.5089 28.8532 29.3254 28.8577 26.6565ZM33.2072 21.8157C33.4209 21.9016 33.6118 21.952 33.805 21.9718L34 21.9816L34.1984 21.9718C34.6578 21.9263 35.0884 21.7235 35.4163 21.3938C35.7956 20.9912 36 20.5076 36 19.9847C36 19.7125 35.9443 19.4426 35.8338 19.1944L35.7883 19.0777C35.7115 18.9131 35.573 18.7178 35.4087 18.5561C34.8602 18.0084 33.9826 17.8339 33.2448 18.126C32.996 18.2354 32.814 18.3598 32.6364 18.5144C32.4028 18.7416 32.2736 18.9505 32.1645 19.1982C32.0557 19.4426 32 19.7125 32 19.9847C32 20.4972 32.207 20.9941 32.5646 21.374C32.7636 21.5759 32.9694 21.7102 33.2072 21.8157Z" fill="#D8D8D8"/>
<path d="M28.7065 6L28.7082 5.75H28.7065V6ZM19.2935 6V5.74999L19.2918 5.75001L19.2935 6ZM33.1359 8.81483L32.913 8.928L32.9133 8.92862L33.1359 8.81483ZM33.6051 9.76244L33.8309 9.65505L33.8301 9.65337L33.6051 9.76244ZM34.8919 12.4675L35.1178 12.3605L35.1176 12.3601L34.8919 12.4675ZM35.3151 12.7114L35.322 12.4614L35.3158 12.4614L35.3151 12.7114ZM35.7381 12.7229L35.7511 12.4732L35.7449 12.473L35.7381 12.7229ZM12.6303 12.7139L12.6302 12.9642L12.6412 12.9637L12.6303 12.7139ZM12.78 12.7075L12.7908 12.9572L12.8014 12.9568L12.8118 12.9554L12.78 12.7075ZM13.1095 12.4688L12.8836 12.3618L12.8836 12.3618L13.1095 12.4688ZM14.092 10.3954L13.8673 10.2857L13.8661 10.2884L14.092 10.3954ZM14.8631 8.81684L14.6403 8.70337L14.6384 8.70711L14.8631 8.81684ZM19.3145 8.99657L19.3145 8.74657L19.3127 8.74658L19.3145 8.99657ZM28.696 8.99661L28.6978 8.74661H28.696L28.696 8.99661ZM17.5372 10.175L17.3144 10.0616L17.3144 10.0617L17.5372 10.175ZM17.0896 11.0821L16.8646 10.9732L16.8639 10.9748L17.0896 11.0821ZM15.8219 13.7492L15.5961 13.6419L15.5959 13.6422L15.8219 13.7492ZM13.0668 15.6888L13.0805 15.9385L13.0893 15.938L13.098 15.9369L13.0668 15.6888ZM12.726 15.7075V15.9579L12.7397 15.9572L12.726 15.7075ZM35.6206 15.717L35.6336 15.4673L35.6294 15.4672L35.6206 15.717ZM34.9726 15.6941L34.9505 15.9435L34.9637 15.944L34.9726 15.6941ZM32.1795 13.7479L32.4055 13.6409L32.4052 13.6403L32.1795 13.7479ZM30.7825 10.8167L31.0082 10.7091L31.0062 10.7052L30.7825 10.8167ZM30.4622 10.1738L30.686 10.0624L30.6851 10.0607L30.4622 10.1738ZM24.0095 18.7896L24.0161 18.5396L24.0097 18.5396L24.0095 18.7896ZM16.1438 26.6574L16.3938 26.6576L16.3938 26.6554L16.1438 26.6574ZM24.4133 18.8003L24.4263 18.5505L24.42 18.5504L24.4133 18.8003ZM31.8578 26.6618L32.1078 26.6623V26.6623L31.8578 26.6618ZM24.0046 34.509L24.0048 34.759H24.0049L24.0046 34.509ZM24.006 21.7862L24.0063 21.5361L23.9981 21.5363L24.006 21.7862ZM28.8577 26.6565L29.1077 26.657V26.657L28.8577 26.6565ZM23.6872 21.7964L23.6792 21.5464L23.671 21.5469L23.6872 21.7964ZM19.1437 26.646L19.3937 26.6461L19.3937 26.6439L19.1437 26.646ZM24.002 31.512L24.0022 31.762H24.0023L24.002 31.512ZM33.805 21.9718L33.7795 22.2208L33.7924 22.2215L33.805 21.9718ZM33.2072 21.8157L33.1057 22.0443L33.1139 22.0476L33.2072 21.8157ZM34 21.9816L33.9874 22.2313L33.9999 22.2319L34.0123 22.2313L34 21.9816ZM34.1984 21.9718L34.2108 22.2218L34.2231 22.2206L34.1984 21.9718ZM35.4163 21.3938L35.5936 21.5701L35.5982 21.5652L35.4163 21.3938ZM35.8338 19.1944L35.6006 19.2854L35.6054 19.2961L35.8338 19.1944ZM35.7883 19.0777L36.0212 18.9869L36.0183 18.9793L36.0148 18.972L35.7883 19.0777ZM35.4087 18.5561L35.232 18.733L35.2333 18.7342L35.4087 18.5561ZM33.2448 18.126L33.1527 17.8933L33.1441 17.8971L33.2448 18.126ZM32.6364 18.5144L32.472 18.3255L32.462 18.3352L32.6364 18.5144ZM32.1645 19.1982L32.3929 19.2999L32.3933 19.2989L32.1645 19.1982ZM32.5646 21.374L32.3825 21.5454L32.3865 21.5495L32.5646 21.374ZM28.7065 5.75H19.2935V6.25H28.7065V5.75ZM33.3588 8.70166C32.4179 6.84835 30.7814 5.76447 28.7082 5.75001L28.7047 6.24999C30.5782 6.26306 32.0508 7.22979 32.913 8.928L33.3588 8.70166ZM33.8301 9.65337C33.6441 9.2698 33.4891 8.95655 33.3585 8.70104L32.9133 8.92862C33.0417 9.17978 33.195 9.48956 33.3802 9.87151L33.8301 9.65337ZM35.1176 12.3601L33.8309 9.65505L33.3794 9.86983L34.6661 12.5749L35.1176 12.3601ZM35.3158 12.4614C35.1956 12.4611 35.1419 12.4114 35.1178 12.3605L34.6659 12.5746C34.783 12.8217 35.0271 12.9607 35.3145 12.9614L35.3158 12.4614ZM35.7449 12.473L35.3219 12.4615L35.3083 12.9613L35.7312 12.9728L35.7449 12.473ZM44.25 21.4257C44.25 16.6512 40.5053 12.7217 35.7511 12.4733L35.725 12.9726C40.2142 13.2072 43.75 16.9178 43.75 21.4257H44.25ZM44.25 33.2852V21.4257H43.75V33.2852H44.25ZM35.276 42.25C40.2316 42.25 44.25 38.2355 44.25 33.2852H43.75C43.75 37.9589 39.956 41.75 35.276 41.75V42.25ZM12.726 42.25H35.276V41.75H12.726V42.25ZM3.75 33.2852C3.75 38.2359 7.76879 42.25 12.726 42.25V41.75C8.04436 41.75 4.25 37.9592 4.25 33.2852H3.75ZM3.75 21.4257V33.2852H4.25V21.4257H3.75ZM12.6305 12.4639C7.76639 12.4608 3.75 16.4754 3.75 21.4257H4.25C4.25 16.7485 8.0455 12.961 12.6302 12.9639L12.6305 12.4639ZM12.7692 12.4577L12.6195 12.4642L12.6412 12.9637L12.7908 12.9572L12.7692 12.4577ZM12.8836 12.3618C12.8589 12.4139 12.8069 12.4519 12.7482 12.4595L12.8118 12.9554C13.0384 12.9263 13.2374 12.7829 13.3355 12.5759L12.8836 12.3618ZM13.8661 10.2884L12.8836 12.3618L13.3355 12.5759L14.3179 10.5025L13.8661 10.2884ZM14.6384 8.70711L13.8673 10.2857L14.3166 10.5051L15.0877 8.92656L14.6384 8.70711ZM19.2918 5.75001C17.2193 5.76446 15.5856 6.84732 14.6403 8.70338L15.0858 8.93029C15.9526 7.22842 17.4229 6.26306 19.2953 6.24999L19.2918 5.75001ZM19.3145 9.24657L28.696 9.24661L28.696 8.74661L19.3145 8.74657L19.3145 9.24657ZM17.76 10.2885C17.9529 9.9097 18.1681 9.65498 18.413 9.49276C18.656 9.33187 18.9475 9.24914 19.3162 9.24657L19.3127 8.74658C18.8669 8.74969 18.4759 8.85139 18.1369 9.0759C17.7999 9.29909 17.5338 9.63076 17.3144 10.0616L17.76 10.2885ZM17.3147 11.191C17.4941 10.8201 17.6407 10.5229 17.76 10.2884L17.3144 10.0617C17.1929 10.3004 17.0447 10.6009 16.8646 10.9732L17.3147 11.191ZM16.0476 13.8565L17.3154 11.1894L16.8639 10.9748L15.5961 13.6419L16.0476 13.8565ZM13.098 15.9369C14.4292 15.7693 15.5094 14.9927 16.0478 13.8562L15.5959 13.6422C15.1339 14.6175 14.205 15.2936 13.0356 15.4408L13.098 15.9369ZM12.7397 15.9572L13.0805 15.9385L13.0531 15.4392L12.7123 15.4579L12.7397 15.9572ZM7.25 21.4255C7.25 18.4054 9.70042 15.9575 12.726 15.9575V15.4575C9.42492 15.4575 6.75 18.1286 6.75 21.4255H7.25ZM7.25 33.285V21.4255H6.75V33.285H7.25ZM12.726 38.753C9.70119 38.753 7.25 36.3039 7.25 33.285H6.75C6.75 36.5806 9.42566 39.253 12.726 39.253V38.753ZM35.276 38.753H12.726V39.253H35.276V38.753ZM40.75 33.285C40.75 36.3037 38.299 38.753 35.276 38.753V39.253C38.5747 39.253 41.25 36.5803 41.25 33.285H40.75ZM40.75 21.4255V33.285H41.25V21.4255H40.75ZM35.6075 15.9667C38.4645 16.1165 40.75 18.5127 40.75 21.4255H41.25C41.25 18.2484 38.7579 15.6312 35.6336 15.4674L35.6075 15.9667ZM34.9637 15.944L35.6117 15.9669L35.6294 15.4672L34.9814 15.4443L34.9637 15.944ZM31.9536 13.8549C32.5151 15.0402 33.6593 15.8288 34.9505 15.9432L34.9946 15.4451C33.8792 15.3464 32.8906 14.665 32.4055 13.6409L31.9536 13.8549ZM30.5568 10.9242L31.9539 13.8555L32.4052 13.6403L31.0081 10.7091L30.5568 10.9242ZM30.2384 10.2853L30.5587 10.9281L31.0062 10.7052L30.686 10.0624L30.2384 10.2853ZM28.6942 9.2466C29.0575 9.24915 29.3467 9.33171 29.5886 9.49254C29.8325 9.65471 30.0475 9.90925 30.2393 10.287L30.6851 10.0607C30.4667 9.63044 30.2009 9.2992 29.8655 9.07616C29.528 8.85178 29.1392 8.74971 28.6978 8.74662L28.6942 9.2466ZM24.0097 18.5396C19.5295 18.5345 15.8578 22.2167 15.8938 26.6594L16.3938 26.6554C16.3601 22.4932 19.8042 19.0348 24.0092 19.0396L24.0097 18.5396ZM24.42 18.5504L24.0161 18.5396L24.0028 19.0395L24.4067 19.0502L24.42 18.5504ZM32.1078 26.6623C32.1152 22.3289 28.7055 18.7733 24.4263 18.5506L24.4003 19.0499C28.4149 19.2588 31.6147 22.5959 31.6078 26.6614L32.1078 26.6623ZM24.0049 34.759C28.4646 34.7539 32.1001 31.1199 32.1078 26.6623L31.6078 26.6614C31.6006 30.8435 28.1885 34.2542 24.0043 34.259L24.0049 34.759ZM15.8938 26.6573C15.8912 31.1127 19.5372 34.7615 24.0048 34.759L24.0045 34.259C19.813 34.2614 16.3914 30.8363 16.3938 26.6576L15.8938 26.6573ZM24.0057 22.0362C26.5431 22.0391 28.6121 24.1141 28.6077 26.6561L29.1077 26.657C29.1126 23.839 26.8203 21.5394 24.0063 21.5362L24.0057 22.0362ZM23.6952 22.0463L24.014 22.0361L23.9981 21.5363L23.6792 21.5465L23.6952 22.0463ZM19.3937 26.6439C19.3743 24.2372 21.3022 22.2021 23.7034 22.0459L23.671 21.5469C21.0107 21.72 18.8721 23.9707 18.8937 26.648L19.3937 26.6439ZM24.0019 31.262C21.4712 31.2634 19.3923 29.1832 19.3937 26.6461L18.8937 26.6458C18.8921 29.4586 21.1945 31.7636 24.0022 31.762L24.0019 31.262ZM28.6077 26.6561C28.6034 29.1873 26.5306 31.2591 24.0017 31.262L24.0023 31.762C26.807 31.7588 29.1029 29.4636 29.1077 26.657L28.6077 26.6561ZM33.8305 21.7231C33.6649 21.7061 33.4971 21.6628 33.3005 21.5837L33.1139 22.0476C33.3448 22.1405 33.5586 22.1979 33.7795 22.2205L33.8305 21.7231ZM34.0126 21.7319L33.8176 21.7221L33.7924 22.2215L33.9874 22.2313L34.0126 21.7319ZM34.1861 21.7221L33.9877 21.7319L34.0123 22.2313L34.2108 22.2215L34.1861 21.7221ZM35.239 21.2175C34.9523 21.5058 34.5758 21.6832 34.1737 21.723L34.2231 22.2206C34.7398 22.1694 35.2245 21.9412 35.5936 21.5701L35.239 21.2175ZM35.75 19.9847C35.75 20.438 35.5742 20.8617 35.2343 21.2223L35.5982 21.5652C36.0171 21.1207 36.25 20.5772 36.25 19.9847H35.75ZM35.6054 19.2961C35.7012 19.5113 35.75 19.7464 35.75 19.9847H36.25C36.25 19.6785 36.1873 19.3739 36.0622 19.0928L35.6054 19.2961ZM35.5554 19.1685L35.6009 19.2853L36.0667 19.1036L36.0212 18.9869L35.5554 19.1685ZM35.2333 18.7342C35.3791 18.8778 35.499 19.049 35.5618 19.1834L36.0148 18.972C35.9239 18.7771 35.767 18.5579 35.584 18.3779L35.2333 18.7342ZM33.3368 18.3584C33.9848 18.1019 34.7562 18.2578 35.232 18.733L35.5853 18.3792C34.9642 17.759 33.9804 17.5659 33.1528 17.8935L33.3368 18.3584ZM32.8005 18.703C32.9618 18.5626 33.1228 18.4528 33.3455 18.3548L33.1441 17.8971C32.8693 18.0181 32.6662 18.157 32.4723 18.3258L32.8005 18.703ZM32.3933 19.2989C32.4915 19.0761 32.6035 18.8951 32.8107 18.6936L32.462 18.3352C32.2021 18.5881 32.0557 18.825 31.9357 19.0975L32.3933 19.2989ZM32.25 19.9847C32.25 19.7462 32.2989 19.5111 32.3929 19.2999L31.9361 19.0965C31.8126 19.3741 31.75 19.6787 31.75 19.9847H32.25ZM32.7466 21.2027C32.4301 20.8663 32.25 20.4297 32.25 19.9847H31.75C31.75 20.5647 31.984 21.1219 32.3825 21.5453L32.7466 21.2027ZM33.3086 21.5872C33.0967 21.4931 32.9176 21.3761 32.7426 21.1985L32.3865 21.5495C32.6096 21.7758 32.8422 21.9272 33.1058 22.0442L33.3086 21.5872Z" fill="#D8D8D8"/>
</svg>
