<svg width="16" height="16" viewBox="0 0 16 16" fill="none" xmlns="http://www.w3.org/2000/svg">
<rect x="3" y="2" width="10" height="10" fill="#D8D8D8"/>
<path d="M12.2854 1.14282H4.05592C3.08254 1.14282 2.28613 1.92319 2.28613 2.87698V10.7963C2.28613 11.7501 3.08254 12.5304 4.05592 12.5304H4.83757C4.79333 12.7906 4.70484 13.0362 4.6016 13.2675C4.40987 13.701 4.49836 14.2068 4.85232 14.5392C5.07354 14.7415 5.35376 14.8571 5.64872 14.8571C5.8257 14.8571 6.00268 14.8138 6.16491 14.7415C7.24153 14.2212 8.14117 13.2964 8.76059 12.5304H12.2707C13.244 12.5304 14.0404 11.7501 14.0404 10.7963V2.87698C14.0699 1.92319 13.2735 1.14282 12.2854 1.14282ZM12.9048 10.8107C12.9048 11.1431 12.6246 11.4177 12.2854 11.4177H8.49512C8.31814 11.4177 8.14116 11.5044 8.03793 11.6345C7.59548 12.2125 7.76169 11.0853 6.72932 11.5911C6.98004 11.042 5.20339 9.37647 5.10015 10.5759C4.6872 9.73661 6.00268 11.6923 5.89944 11.5911C5.7962 11.4755 5.64872 11.4177 5.48649 11.4177H4.05592C3.71671 11.4177 3.43649 11.1431 3.43649 10.8107V2.87698C3.43649 2.5446 3.71671 2.27002 4.05592 2.27002H12.3002C12.6394 2.27002 12.9196 2.5446 12.9196 2.87698V10.8107H12.9048Z" fill="#D8D8D8"/>
<path fill-rule="evenodd" clip-rule="evenodd" d="M5.92752 5.47842C6.06025 4.59689 6.73867 3.5564 8.19874 3.5564C9.08363 3.5564 9.83579 3.97548 10.1897 4.6836C10.529 5.36281 10.47 6.14318 10.0275 6.73568C9.7534 7.10323 9.46517 7.30484 9.25947 7.44872C9.25489 7.45193 9.25036 7.4551 9.24586 7.45825C9.02464 7.60276 8.9509 7.66057 8.9214 7.99295C8.90665 8.19526 8.71492 8.35423 8.50845 8.35423H8.00701C7.90377 8.35423 7.78579 8.31087 7.71205 8.22417C7.63831 8.13746 7.59406 8.0363 7.60881 7.92069C7.68255 7.01026 8.05126 6.69233 8.4937 6.38885C8.67068 6.27324 8.80341 6.17208 8.96564 5.96976C9.11313 5.76745 9.12787 5.50732 9.00989 5.2761C8.9214 5.11714 8.70018 4.85701 8.18399 4.85701C7.65305 4.85701 7.32859 5.11714 7.2401 5.60848C7.21061 5.79635 7.03363 5.94086 6.8419 5.94086H6.32572C6.20773 5.94086 6.08975 5.88306 6.016 5.79635C5.94226 5.70964 5.91277 5.59403 5.92752 5.47842ZM9.05472 9.59678C9.05472 10.0278 8.69816 10.3771 8.25832 10.3771C7.81848 10.3771 7.46191 10.0278 7.46191 9.59678C7.46191 9.16579 7.81848 8.81641 8.25832 8.81641C8.69816 8.81641 9.05472 9.16579 9.05472 9.59678Z" fill="white"/>
</svg>
