<svg width="24" height="24" viewBox="0 0 24 24" fill="none" xmlns="http://www.w3.org/2000/svg">
<path d="M12 1.5L3 4.5V13.5C3 18.4711 7.02891 22.5 12 22.5C16.9711 22.5 21 18.4711 21 13.5V4.5L12 1.5ZM19.3125 13.5C19.3125 17.5383 16.0383 20.8125 12 20.8125C7.96172 20.8125 4.6875 17.5383 4.6875 13.5V5.76562L12 3.1875L19.3125 5.76562V13.5Z" fill="#232323"/>
<path d="M8.86955 11.1351C8.79135 11.0566 8.6984 10.9942 8.59603 10.9517C8.49367 10.9092 8.38392 10.8873 8.27307 10.8873C8.16222 10.8873 8.05246 10.9092 7.9501 10.9517C7.84773 10.9942 7.75478 11.0566 7.67658 11.1351C7.59802 11.2133 7.53568 11.3063 7.49314 11.4087C7.45061 11.511 7.42871 11.6208 7.42871 11.7316C7.42871 11.8425 7.45061 11.9522 7.49314 12.0546C7.53568 12.157 7.59802 12.2499 7.67658 12.3281L10.7094 15.3609L10.7586 15.4101C10.8326 15.4842 10.9205 15.543 11.0172 15.5832C11.1139 15.6233 11.2176 15.6439 11.3223 15.6439C11.427 15.6439 11.5307 15.6233 11.6274 15.5832C11.7241 15.543 11.812 15.4842 11.886 15.4101L17.1243 10.1719C17.1984 10.0979 17.2572 10.01 17.2973 9.91332C17.3374 9.81659 17.3581 9.71291 17.3581 9.6082C17.3581 9.50349 17.3374 9.39981 17.2973 9.30309C17.2572 9.20636 17.1984 9.1185 17.1243 9.04453L17.0586 8.97891C16.9847 8.9048 16.8968 8.846 16.8001 8.80588C16.7034 8.76577 16.5997 8.74512 16.495 8.74512C16.3903 8.74512 16.2866 8.76577 16.1898 8.80588C16.0931 8.846 16.0053 8.9048 15.9313 8.97891L11.3211 13.5867L8.86955 11.1351Z" fill="#232323"/>
</svg>
