<svg width="16" height="16" viewBox="0 0 16 16" fill="none" xmlns="http://www.w3.org/2000/svg">
<path fill-rule="evenodd" clip-rule="evenodd" d="M4.46791 3.5H7.94326C9.39653 3.5 10.4112 4.51735 10.4112 5.9753V10.1678C10.4112 11.6258 9.39653 12.6431 7.94326 12.6431H4.46791C3.01464 12.6431 2 11.6258 2 10.1678V5.9753C2 4.51735 3.01464 3.5 4.46791 3.5ZM12.7746 4.94984C13.038 4.8137 13.347 4.82794 13.5984 4.98883C13.8498 5.14911 13.9999 5.42758 13.9999 5.73204V10.411C13.9999 10.7161 13.8498 10.9939 13.5984 11.1542C13.461 11.2414 13.3074 11.286 13.1526 11.286C13.0236 11.286 12.8946 11.255 12.774 11.1925L11.8854 10.7371C11.5565 10.5675 11.3525 10.2272 11.3525 9.84908V6.29331C11.3525 5.91459 11.5565 5.57424 11.8854 5.40592L12.7746 4.94984Z" fill="#D8D8D8"/>
</svg>
