<svg width="32" height="32" viewBox="0 0 32 32" fill="none" xmlns="http://www.w3.org/2000/svg">
<path d="M4.12121 28.2038V20.1432C4.12121 19.9089 4.31118 19.7189 4.54545 19.7189H11.7576V16.7492C11.7576 16.515 11.9475 16.325 12.1818 16.325H19.8182C20.0525 16.325 20.2424 16.515 20.2424 16.7492V22.2644H27.4545C27.6888 22.2644 27.8788 22.4543 27.8788 22.6886V28.2038H29.5758C29.81 28.2038 30 28.3937 30 28.628C30 28.8623 29.81 29.0523 29.5758 29.0523H2.42424C2.18996 29.0523 2 28.8623 2 28.628C2 28.3937 2.18996 28.2038 2.42424 28.2038H4.12121ZM12.6061 17.1735V28.2038H19.3939V17.1735H12.6061ZM4.9697 20.5674V28.2038H11.7576V20.5674H4.9697ZM20.2424 23.1129V28.2038H27.0303V23.1129H20.2424ZM13.8303 11.8201C13.3114 12.093 12.8125 11.7256 12.9108 11.1521L13.3252 8.73584L11.5697 7.02467C11.1498 6.61539 11.3451 6.02753 11.9208 5.9438L14.347 5.59133L15.432 3.39284C15.6915 2.86707 16.311 2.87104 16.5684 3.39284L17.6534 5.59133L20.0796 5.9438C20.6597 6.02808 20.8474 6.61841 20.4307 7.02467L18.6752 8.73584L19.0896 11.1521C19.1887 11.73 18.6853 12.0909 18.1701 11.8201L16.0002 10.6794L13.8303 11.8201ZM15.8029 9.82448C15.9263 9.75952 16.0741 9.75952 16.1976 9.82448L18.1798 10.8665L17.8012 8.65948C17.7777 8.52179 17.8233 8.38145 17.9231 8.28391L19.5267 6.72086L17.3106 6.39889C17.1726 6.37881 17.053 6.29188 16.9913 6.16669L16.0002 4.15854L15.0091 6.16669C14.9474 6.29188 14.8279 6.37881 14.6898 6.39889L12.4737 6.72086L14.0773 8.28391C14.1771 8.38145 14.2228 8.52179 14.1993 8.65948L13.8207 10.8665L15.8029 9.82448Z" fill="#232323" stroke="#232323"/>
</svg>
