<svg width="16" height="16" viewBox="0 0 16 16" fill="none" xmlns="http://www.w3.org/2000/svg">
<path d="M2.41896 9.15198C2.58755 9.35439 2.79852 9.51733 3.03696 9.6293C3.27541 9.74127 3.53553 9.79953 3.79895 9.79998H6.53495L6.19895 10.658C6.05919 11.0336 6.01265 11.4376 6.06331 11.8352C6.11398 12.2328 6.26033 12.6122 6.48984 12.9408C6.71934 13.2695 7.02513 13.5375 7.38098 13.722C7.73683 13.9064 8.13212 14.0018 8.53294 14C8.64836 13.9997 8.76126 13.9662 8.8581 13.9034C8.95494 13.8406 9.03162 13.7512 9.07894 13.646L10.7889 9.79998H12.1989C12.6763 9.79998 13.1342 9.61034 13.4717 9.27278C13.8093 8.93521 13.9989 8.47738 13.9989 7.99999L13.9989 3.8C13.9989 3.32261 13.8093 2.86477 13.4717 2.52721C13.1342 2.18964 12.6763 2 12.1989 2L4.56095 2C4.13987 2.00014 3.73216 2.1479 3.40876 2.41758C3.08536 2.68726 2.86675 3.06179 2.79096 3.476L2.02896 7.67599C1.98183 7.93556 1.99233 8.20232 2.05973 8.45738C2.12712 8.71244 2.24976 8.94957 2.41896 9.15198ZM10.9989 3.2H12.1989C12.3581 3.2 12.5107 3.26321 12.6232 3.37573C12.7357 3.48825 12.7989 3.64087 12.7989 3.8L12.7989 7.99999C12.7989 8.15912 12.7357 8.31173 12.6232 8.42425C12.5107 8.53677 12.3581 8.59998 12.1989 8.59998H10.9989L10.9989 3.2ZM3.19896 7.89199L3.96095 3.692C3.98651 3.55222 4.06085 3.42605 4.17072 3.33596C4.28059 3.24586 4.41888 3.19768 4.56095 3.2L9.79894 3.2V9.07398L8.16694 12.746C7.99895 12.697 7.84294 12.6137 7.70875 12.5014C7.57456 12.3891 7.46511 12.2502 7.38731 12.0935C7.3095 11.9367 7.26504 11.7656 7.25671 11.5908C7.24839 11.416 7.27639 11.2414 7.33895 11.078L7.65695 10.22C7.72471 10.0386 7.74758 9.84357 7.72362 9.65146C7.69966 9.45935 7.62957 9.27589 7.51935 9.11674C7.40912 8.95759 7.26202 8.82746 7.0906 8.73748C6.91919 8.6475 6.72855 8.60032 6.53495 8.59998H3.79895C3.71081 8.60013 3.62371 8.58085 3.54386 8.54352C3.46401 8.50618 3.39337 8.45171 3.33695 8.38399C3.27915 8.31719 3.23682 8.23846 3.21296 8.15341C3.18911 8.06836 3.18432 7.9791 3.19896 7.89199Z" fill="white"/>
<path d="M3.19896 7.89199L3.96095 3.692C3.98651 3.55222 4.06085 3.42605 4.17072 3.33596C4.28059 3.24586 4.41888 3.19768 4.56095 3.2L9.79894 3.2V9.07398L8.16694 12.746C7.99895 12.697 7.84294 12.6137 7.70875 12.5014C7.57456 12.3891 7.46511 12.2502 7.38731 12.0935C7.3095 11.9367 7.26504 11.7656 7.25671 11.5908C7.24839 11.416 7.27639 11.2414 7.33895 11.078L7.65695 10.22C7.72471 10.0386 7.74758 9.84357 7.72362 9.65146C7.69966 9.45935 7.62957 9.27589 7.51935 9.11674C7.40912 8.95759 7.26202 8.82746 7.0906 8.73748C6.91919 8.6475 6.72855 8.60032 6.53495 8.59998H3.79895C3.71081 8.60013 3.62371 8.58085 3.54386 8.54352C3.46401 8.50618 3.39337 8.45171 3.33695 8.38399C3.27915 8.31719 3.23682 8.23846 3.21296 8.15341C3.18911 8.06836 3.18432 7.9791 3.19896 7.89199Z" fill="#FF3366"/>
<path d="M10.9989 3.2H12.1989C12.3581 3.2 12.5107 3.26321 12.6232 3.37573C12.7357 3.48825 12.7989 3.64087 12.7989 3.8L12.7989 7.99999C12.7989 8.15912 12.7357 8.31173 12.6232 8.42425C12.5107 8.53677 12.3581 8.59998 12.1989 8.59998H10.9989L10.9989 3.2Z" fill="#FF3366"/>
</svg>
