<svg width="60" height="60" viewBox="0 0 60 60" fill="none" xmlns="http://www.w3.org/2000/svg">
<path d="M59.9952 44.7738C59.9952 45.1022 59.9852 45.8147 59.9654 46.365C59.9171 47.7116 59.8104 49.4492 59.649 50.2409C59.4063 51.4306 59.0401 52.5536 58.5626 53.4883C57.9976 54.594 57.2769 55.5844 56.4205 56.4392C55.566 57.2923 54.5766 58.0101 53.4725 58.5728C52.5329 59.0516 51.403 59.4181 50.2064 59.6596C49.4226 59.8179 47.698 59.9226 46.36 59.9702C45.8091 59.9899 45.0965 59.9998 44.7692 59.9998L15.226 59.995C14.8975 59.995 14.1851 59.9849 13.6348 59.9652C12.2882 59.9169 10.5506 59.8102 9.75885 59.6488C8.56909 59.4061 7.44607 59.0399 6.51142 58.5624C5.40569 57.9973 4.41532 57.2767 3.56053 56.4203C2.70744 55.5658 1.98958 54.5764 1.42693 53.4724C0.948007 52.5327 0.581577 51.4028 0.340005 50.2063C0.181809 49.4224 0.0771061 47.6979 0.0294714 46.3598C0.00990193 45.809 0 45.0964 0 44.7692L0.0046873 15.226C0.0046873 14.8975 0.0147064 14.1851 0.0344517 13.6347C0.0827895 12.2881 0.189484 10.5505 0.350903 9.75886C0.59353 8.56911 0.959725 7.4461 1.4373 6.51139C2.0023 5.40572 2.72303 4.4153 3.57934 3.56052C4.43384 2.70749 5.42333 1.98957 6.52736 1.42687C7.46699 0.948061 8.59704 0.581633 9.79353 0.340062C10.5773 0.181808 12.3019 0.0771058 13.6399 0.0295299C14.1908 0.00990188 14.9035 0 15.2306 0L44.7739 0.00474587C45.1025 0.00474587 45.8149 0.0147649 46.3652 0.0345101C47.7118 0.0828477 49.4493 0.189542 50.2412 0.35096C51.4308 0.593585 52.5539 0.959779 53.4886 1.43735C54.5942 2.00235 55.5846 2.72308 56.4394 3.57938C57.2924 4.43387 58.0104 5.4233 58.573 6.52739C59.0519 7.46701 59.4184 8.597 59.6599 9.79349C59.8181 10.5773 59.9228 12.3019 59.9705 13.6399C59.9901 14.1908 60 14.9034 60 15.2307L59.9952 44.7738Z" fill="url(#paint0_linear_14170_18045)"/>
<path d="M45.8954 14.1947C41.8333 10.1293 36.4312 7.88922 30.6756 7.88693C18.8166 7.88693 9.16482 17.535 9.16007 29.3941C9.15855 33.1848 10.1493 36.8851 12.032 40.1468L8.97967 51.2925L20.3853 48.3016C23.5279 50.015 27.066 50.918 30.667 50.9196H30.6759C42.5337 50.9196 52.1863 41.2703 52.1911 29.4112C52.1934 23.6641 49.9576 18.2602 45.8954 14.1947ZM30.6759 47.287H30.6685C27.4597 47.2857 24.3124 46.424 21.5668 44.7952L20.9137 44.4078L14.1454 46.1827L15.952 39.5858L15.5267 38.9094C13.7366 36.0631 12.7912 32.7732 12.7926 29.3955C12.7965 19.5388 20.8187 11.5196 30.6828 11.5196C35.4592 11.5214 39.9492 13.3834 43.3255 16.7624C46.7018 20.1414 48.5602 24.6331 48.5584 29.4098C48.5546 39.2673 40.5324 47.287 30.6759 47.287ZM40.4849 33.8981C39.9472 33.6291 37.3042 32.3289 36.8114 32.1495C36.3187 31.9701 35.9603 31.8805 35.6018 32.4186C35.2435 32.9566 34.2133 34.1671 33.8996 34.5257C33.586 34.8844 33.2724 34.9293 32.7348 34.6603C32.1972 34.3913 30.465 33.8238 28.4116 31.9929C26.8135 30.568 25.7345 28.8079 25.4209 28.2698C25.1074 27.7318 25.3876 27.441 25.6567 27.173C25.8985 26.9322 26.1943 26.5453 26.4631 26.2315C26.7319 25.9177 26.8215 25.6934 27.0007 25.3348C27.1799 24.9761 27.0903 24.6622 26.9559 24.3933C26.8215 24.1243 25.7463 21.479 25.2983 20.403C24.862 19.355 24.4187 19.4968 24.0887 19.4803C23.7755 19.4648 23.4167 19.4615 23.0584 19.4615C22.7 19.4615 22.1176 19.5959 21.6248 20.134C21.1321 20.672 19.7433 21.9722 19.7433 24.6174C19.7433 27.2626 21.6696 29.8182 21.9384 30.1768C22.2072 30.5355 25.7292 35.9639 31.122 38.2918C32.4047 38.8455 33.406 39.1762 34.1868 39.4239C35.4747 39.8328 36.6466 39.7751 37.573 39.6368C38.6058 39.4825 40.7536 38.3367 41.2017 37.0814C41.6497 35.8259 41.6496 34.75 41.5152 34.5258C41.3808 34.3016 41.0225 34.1671 40.4849 33.8981Z" fill="white"/>
<defs>
<linearGradient id="paint0_linear_14170_18045" x1="30" y1="0" x2="30" y2="59.9998" gradientUnits="userSpaceOnUse">
<stop stop-color="#61FD7D"/>
<stop offset="1" stop-color="#2BB826"/>
</linearGradient>
</defs>
</svg>
