<svg width="32" height="32" viewBox="0 0 32 32" fill="none" xmlns="http://www.w3.org/2000/svg">
<g clip-path="url(#clip0_14170_18001)">
<rect width="32" height="32" rx="9" fill="#232323"/>
<path fill-rule="evenodd" clip-rule="evenodd" d="M20.5568 13.0312C21.9358 14.0164 23.6254 14.5957 25.4498 14.5957V11.086C25.1041 11.086 24.7603 11.0502 24.4225 10.9784V13.7408C22.5981 13.7408 20.9094 13.1607 19.5295 12.1763V19.3373C19.5295 22.9195 16.6236 25.8237 13.0396 25.8237C11.7026 25.8237 10.4593 25.4194 9.42676 24.7264C10.6054 25.9304 12.2486 26.6777 14.0669 26.6777C17.6509 26.6777 20.5568 23.7735 20.5568 20.1913V13.0312ZM21.8246 9.49091C21.1203 8.72179 20.6574 7.72691 20.5568 6.62704V6.17554H19.5829C19.8279 7.57291 20.6644 8.76729 21.8246 9.49091ZM11.6939 21.978C11.3001 21.4618 11.0875 20.8309 11.0884 20.1817C11.0884 18.5428 12.4175 17.2145 14.0573 17.2145C14.3626 17.2145 14.6663 17.2609 14.9576 17.3537V13.7662C14.6173 13.7198 14.2743 13.6997 13.9304 13.7067V16.4988C13.639 16.406 13.3354 16.3597 13.0291 16.3597C11.3894 16.3597 10.0603 17.6879 10.0603 19.3268C10.0611 20.4862 10.7253 21.4898 11.6939 21.978Z" fill="#EC407A"/>
<path fill-rule="evenodd" clip-rule="evenodd" d="M19.5299 12.1763C20.9089 13.1615 22.5985 13.7408 24.4229 13.7408V10.9784C23.4044 10.7614 22.5031 10.2294 21.825 9.49004C20.6647 8.76641 19.8291 7.57291 19.5841 6.17554H17.0265V20.1913C17.0204 21.8249 15.6939 23.1479 14.0576 23.1479C13.0934 23.1479 12.2367 22.6885 11.6942 21.9772C10.7256 21.4889 10.0615 20.4853 10.0615 19.3268C10.0615 17.6879 11.3906 16.3597 13.0304 16.3597C13.3445 16.3597 13.6472 16.4087 13.9316 16.4988V13.7075C10.4106 13.7802 7.5791 16.6554 7.5791 20.1922C7.5791 21.9579 8.28435 23.5583 9.42885 24.7273C10.4614 25.4203 11.7047 25.8245 13.0417 25.8245C16.6257 25.8245 19.5316 22.9204 19.5316 19.3382L19.5299 12.1763Z" fill="white"/>
<path fill-rule="evenodd" clip-rule="evenodd" d="M24.4226 10.9794V10.2322C23.5038 10.2339 22.6043 9.97667 21.8247 9.49017C22.5142 10.2453 23.4224 10.7659 24.4226 10.9794ZM19.5829 6.17568C19.5593 6.0418 19.5418 5.90793 19.5296 5.7723V5.3208H15.9981V19.3374C15.9928 20.971 14.6654 22.294 13.0292 22.294C12.5488 22.294 12.0956 22.1803 11.6939 21.9773C12.2364 22.6887 13.0931 23.148 14.0573 23.148C15.6936 23.148 17.0201 21.825 17.0262 20.1914V6.17568H19.5829ZM13.9304 13.7077V12.9123C13.6356 12.872 13.3381 12.8519 13.0397 12.8519C9.45481 12.8519 6.5498 15.756 6.5498 19.3383C6.5498 21.5844 7.69168 23.5637 9.42681 24.7274C8.28231 23.5584 7.57705 21.958 7.57705 20.1923C7.57705 16.6555 10.4094 13.7803 13.9304 13.7077Z" fill="#81D4FA"/>
</g>
<defs>
<clipPath id="clip0_14170_18001">
<rect width="32" height="32" fill="white"/>
</clipPath>
</defs>
</svg>
