<svg width="16" height="16" viewBox="0 0 16 16" fill="none" xmlns="http://www.w3.org/2000/svg">
<path d="M12.1994 2H4.56139C4.14031 2.00014 3.7326 2.14791 3.4092 2.41758C3.08581 2.68726 2.86719 3.06179 2.7914 3.476L2.0294 7.67599C1.98192 7.93545 1.99205 8.20218 2.05906 8.45729C2.12607 8.71241 2.24834 8.94968 2.4172 9.15232C2.58606 9.35495 2.7974 9.518 3.03625 9.62992C3.2751 9.74184 3.53563 9.7999 3.7994 9.79998H6.53539L6.19939 10.658C6.05963 11.0337 6.01309 11.4376 6.06375 11.8352C6.11442 12.2328 6.26078 12.6122 6.49028 12.9408C6.71978 13.2695 7.02557 13.5375 7.38142 13.722C7.73728 13.9064 8.13257 14.0018 8.53339 14C8.6488 13.9997 8.7617 13.9662 8.85854 13.9034C8.95539 13.8406 9.03206 13.7512 9.07939 13.646L10.7894 9.79998H12.1994C12.6768 9.79998 13.1346 9.61034 13.4722 9.27278C13.8097 8.93521 13.9994 8.47738 13.9994 7.99999V3.8C13.9994 3.32261 13.8097 2.86477 13.4722 2.52721C13.1346 2.18964 12.6768 2 12.1994 2ZM9.79938 9.07398L8.16739 12.746C8.0004 12.6955 7.84553 12.6113 7.71231 12.4986C7.57909 12.386 7.47035 12.2473 7.39278 12.091C7.31521 11.9347 7.27045 11.7642 7.26127 11.59C7.25209 11.4158 7.27867 11.2415 7.33939 11.078L7.65739 10.22C7.72515 10.0386 7.74802 9.84357 7.72406 9.65146C7.7001 9.45936 7.63002 9.27589 7.51979 9.11674C7.40956 8.95759 7.26246 8.82747 7.09105 8.73748C6.91963 8.6475 6.72899 8.60032 6.53539 8.59999H3.7994C3.71125 8.60013 3.62416 8.58085 3.5443 8.54352C3.46445 8.50618 3.39381 8.45172 3.3374 8.38399C3.2796 8.31719 3.23726 8.23846 3.2134 8.15341C3.18955 8.06836 3.18477 7.9791 3.1994 7.89199L3.9614 3.692C3.98695 3.55222 4.06129 3.42605 4.17116 3.33596C4.28104 3.24586 4.41932 3.19768 4.56139 3.2H9.79938V9.07398ZM12.7994 7.99999C12.7994 8.15912 12.7362 8.31173 12.6236 8.42425C12.5111 8.53677 12.3585 8.59999 12.1994 8.59999H10.9994V3.2H12.1994C12.3585 3.2 12.5111 3.26321 12.6236 3.37573C12.7362 3.48825 12.7994 3.64087 12.7994 3.8V7.99999Z" fill="#232323"/>
</svg>
