<svg width="24" height="24" viewBox="0 0 24 24" fill="none" xmlns="http://www.w3.org/2000/svg">
<g clip-path="url(#clip0_14170_18007)">
<rect width="24" height="24" rx="4" fill="#232323"/>
<path fill-rule="evenodd" clip-rule="evenodd" d="M15.4168 9.77314C16.4511 10.5121 17.7183 10.9465 19.0866 10.9465V8.3143C18.8274 8.3143 18.5695 8.28739 18.3161 8.23358V10.3054C16.9479 10.3054 15.6813 9.87027 14.6464 9.13198V14.5027C14.6464 17.1894 12.467 19.3675 9.77899 19.3675C8.77624 19.3675 7.84371 19.0643 7.06934 18.5446C7.9533 19.4476 9.18574 20.008 10.5494 20.008C13.2374 20.008 15.4168 17.8299 15.4168 15.1432V9.77314ZM16.3677 7.11795C15.8395 6.54111 15.4923 5.79495 15.4168 4.97005V4.63142H14.6864C14.8702 5.67946 15.4976 6.57524 16.3677 7.11795ZM8.76968 16.4833C8.47437 16.0961 8.3149 15.623 8.31555 15.136C8.31555 13.9069 9.3124 12.9107 10.5422 12.9107C10.7712 12.9107 10.999 12.9455 11.2175 13.015V10.3244C10.9622 10.2896 10.705 10.2745 10.4471 10.2798V12.3739C10.2285 12.3043 10.0008 12.2695 9.77112 12.2695C8.5413 12.2695 7.54446 13.2657 7.54446 14.4949C7.54512 15.3644 8.04321 16.1171 8.76968 16.4833Z" fill="#EC407A"/>
<path fill-rule="evenodd" clip-rule="evenodd" d="M14.647 9.13198C15.6812 9.87092 16.9484 10.3054 18.3167 10.3054V8.23358C17.5528 8.07083 16.8769 7.67183 16.3683 7.1173C15.4981 6.57458 14.8714 5.67946 14.6876 4.63142H12.7694V15.1432C12.7648 16.3685 11.77 17.3607 10.5428 17.3607C9.81959 17.3607 9.17712 17.0162 8.77024 16.4826C8.04377 16.1165 7.54568 15.3637 7.54568 14.4949C7.54568 13.2657 8.54252 12.2695 9.77234 12.2695C10.0079 12.2695 10.235 12.3063 10.4483 12.3739V10.2804C7.80752 10.3349 5.6839 12.4913 5.6839 15.1439C5.6839 16.4682 6.21284 17.6685 7.07121 18.5452C7.84559 19.065 8.77812 19.3682 9.78087 19.3682C12.4689 19.3682 14.6483 17.1901 14.6483 14.5034L14.647 9.13198Z" fill="white"/>
<path fill-rule="evenodd" clip-rule="evenodd" d="M18.3163 8.23477V7.67433C17.6273 7.67564 16.9526 7.4827 16.3679 7.11783C16.8851 7.68417 17.5662 8.07464 18.3163 8.23477ZM14.6866 4.63196C14.6689 4.53155 14.6558 4.43114 14.6466 4.32942V3.9908H11.998V14.5033C11.994 15.7285 10.9985 16.7207 9.7713 16.7207C9.41102 16.7207 9.07109 16.6354 8.76987 16.4832C9.17674 17.0167 9.81921 17.3612 10.5424 17.3612C11.7696 17.3612 12.7645 16.369 12.7691 15.1438V4.63196H14.6866ZM10.4472 10.281V9.68442C10.2261 9.65424 10.003 9.63914 9.77918 9.63914C7.09052 9.63914 4.91177 11.8172 4.91177 14.5039C4.91177 16.1885 5.76818 17.673 7.06952 18.5458C6.21115 17.669 5.68221 16.4687 5.68221 15.1444C5.68221 12.4919 7.80649 10.3354 10.4472 10.281Z" fill="#81D4FA"/>
</g>
<defs>
<clipPath id="clip0_14170_18007">
<rect width="24" height="24" fill="white"/>
</clipPath>
</defs>
</svg>
