<svg width="32" height="32" viewBox="0 0 32 32" fill="none" xmlns="http://www.w3.org/2000/svg">
<path fill-rule="evenodd" clip-rule="evenodd" d="M8.02535 5.73333C10.5266 3.79051 13.651 2.82759 16.8119 3.02539C19.9729 3.2232 22.9529 4.56811 25.1924 6.8076C27.4319 9.04708 28.7768 12.0271 28.9746 15.188C29.1724 18.3489 28.2095 21.4734 26.2667 23.9746C24.3239 26.4758 21.5348 28.1818 18.4232 28.7721C15.4448 29.3372 12.367 28.8429 9.72008 27.3825L5.92548 28.4666C5.59368 28.5614 5.24257 28.5657 4.90854 28.4792C4.5745 28.3926 4.26969 28.2183 4.02568 27.9743C3.78168 27.7303 3.60737 27.4255 3.52081 27.0915C3.43426 26.7574 3.43861 26.4063 3.5334 26.0745L4.6175 22.28C3.15707 19.6331 2.66279 16.5553 3.22786 13.5769C3.8182 10.4652 5.52414 7.67616 8.02535 5.73333ZM11.9785 12.9822C11.4262 12.9822 10.9785 13.4299 10.9785 13.9822C10.9785 14.5345 11.4262 14.9822 11.9785 14.9822H20.0295C20.5818 14.9822 21.0295 14.5345 21.0295 13.9822C21.0295 13.4299 20.5818 12.9822 20.0295 12.9822H11.9785ZM11.9785 17.0077C11.4262 17.0077 10.9785 17.4554 10.9785 18.0077C10.9785 18.5599 11.4262 19.0077 11.9785 19.0077H20.0295C20.5818 19.0077 21.0295 18.5599 21.0295 18.0077C21.0295 17.4554 20.5818 17.0077 20.0295 17.0077H11.9785Z" fill="white"/>
</svg>
