<svg width="40" height="40" viewBox="0 0 40 40" fill="none" xmlns="http://www.w3.org/2000/svg">
<g filter="url(#filter0_dii_14155_13460)">
<path fill-rule="evenodd" clip-rule="evenodd" d="M20 34C28.8366 34 36 26.8366 36 18C36 9.16344 28.8366 2 20 2C11.1634 2 4 9.16344 4 18C4 26.8366 11.1634 34 20 34Z" fill="#F5FCF7"/>
<g filter="url(#filter1_d_14155_13460)">
<path fill-rule="evenodd" clip-rule="evenodd" d="M19.3372 22.7911C18.7025 23.403 17.6726 23.403 17.0382 22.7911L13.4761 19.357C12.8413 18.7453 12.8413 17.7524 13.4761 17.1408C14.1105 16.5289 15.1404 16.5289 15.7751 17.1408L17.8974 19.1865C18.0577 19.3407 18.3177 19.3407 18.4783 19.1865L24.2249 13.6464C24.8593 13.0345 25.8892 13.0345 26.5239 13.6464C26.8288 13.9403 27 14.339 27 14.7545C27 15.1701 26.8288 15.5687 26.5239 15.8626L19.3372 22.7911Z" fill="#2AD673"/>
</g>
</g>
<defs>
<filter id="filter0_dii_14155_13460" x="0" y="0" width="40" height="40" filterUnits="userSpaceOnUse" color-interpolation-filters="sRGB">
<feFlood flood-opacity="0" result="BackgroundImageFix"/>
<feColorMatrix in="SourceAlpha" type="matrix" values="0 0 0 0 0 0 0 0 0 0 0 0 0 0 0 0 0 0 127 0" result="hardAlpha"/>
<feOffset dy="2"/>
<feGaussianBlur stdDeviation="2"/>
<feComposite in2="hardAlpha" operator="out"/>
<feColorMatrix type="matrix" values="0 0 0 0 0.643137 0 0 0 0 0.203922 0 0 0 0 0.796078 0 0 0 0.08 0"/>
<feBlend mode="normal" in2="BackgroundImageFix" result="effect1_dropShadow_14155_13460"/>
<feBlend mode="normal" in="SourceGraphic" in2="effect1_dropShadow_14155_13460" result="shape"/>
<feColorMatrix in="SourceAlpha" type="matrix" values="0 0 0 0 0 0 0 0 0 0 0 0 0 0 0 0 0 0 127 0" result="hardAlpha"/>
<feOffset dx="-2" dy="-2"/>
<feGaussianBlur stdDeviation="3"/>
<feComposite in2="hardAlpha" operator="arithmetic" k2="-1" k3="1"/>
<feColorMatrix type="matrix" values="0 0 0 0 0.643137 0 0 0 0 0.203922 0 0 0 0 0.796078 0 0 0 0.12 0"/>
<feBlend mode="normal" in2="shape" result="effect2_innerShadow_14155_13460"/>
<feColorMatrix in="SourceAlpha" type="matrix" values="0 0 0 0 0 0 0 0 0 0 0 0 0 0 0 0 0 0 127 0" result="hardAlpha"/>
<feOffset dx="-1" dy="-1"/>
<feGaussianBlur stdDeviation="2"/>
<feComposite in2="hardAlpha" operator="arithmetic" k2="-1" k3="1"/>
<feColorMatrix type="matrix" values="0 0 0 0 0.643137 0 0 0 0 0.203922 0 0 0 0 0.796078 0 0 0 0.08 0"/>
<feBlend mode="normal" in2="effect2_innerShadow_14155_13460" result="effect3_innerShadow_14155_13460"/>
</filter>
<filter id="filter1_d_14155_13460" x="11" y="12.1875" width="18" height="14.0625" filterUnits="userSpaceOnUse" color-interpolation-filters="sRGB">
<feFlood flood-opacity="0" result="BackgroundImageFix"/>
<feColorMatrix in="SourceAlpha" type="matrix" values="0 0 0 0 0 0 0 0 0 0 0 0 0 0 0 0 0 0 127 0" result="hardAlpha"/>
<feOffset dy="1"/>
<feGaussianBlur stdDeviation="1"/>
<feComposite in2="hardAlpha" operator="out"/>
<feColorMatrix type="matrix" values="0 0 0 0 0 0 0 0 0 0 0 0 0 0 0 0 0 0 0.2 0"/>
<feBlend mode="normal" in2="BackgroundImageFix" result="effect1_dropShadow_14155_13460"/>
<feBlend mode="normal" in="SourceGraphic" in2="effect1_dropShadow_14155_13460" result="shape"/>
</filter>
</defs>
</svg>
