<svg width="16" height="16" viewBox="0 0 16 16" fill="none" xmlns="http://www.w3.org/2000/svg">
<path d="M15.5 8C15.5 12.1421 12.1421 15.5 8 15.5C3.85786 15.5 0.5 12.1421 0.5 8C0.5 3.85786 3.85786 0.5 8 0.5C12.1421 0.5 15.5 3.85786 15.5 8Z" fill="white" stroke="#D8D8D8"/>
<path d="M6.38266 5.44441C5.15001 5.44441 4.09985 6.36855 4.09985 7.56877C4.09985 8.39675 4.48653 9.09383 4.99901 9.67127C5.50972 10.2467 6.16862 10.7298 6.76429 11.134L7.79205 11.8316C7.9046 11.908 8.0522 11.908 8.16475 11.8316L9.19251 11.134C9.38298 11.0048 9.57992 10.8674 9.77641 10.7216C9.82781 10.6835 9.84418 10.6138 9.8158 10.5564L9.21171 9.33366C9.18319 9.27593 9.10478 9.26685 9.06389 9.31655L9.03163 9.35576C8.86322 9.56044 8.61242 9.67898 8.34779 9.67898H7.53514C7.04552 9.67898 6.64861 9.28101 6.64861 8.79009C6.64861 8.29917 7.04552 7.9012 7.53514 7.9012H7.84631C7.89923 7.9012 7.94939 7.87749 7.98308 7.83656L8.67975 6.98985C8.87404 6.75373 9.17582 6.63445 9.47854 6.67414C9.78125 6.71382 10.0423 6.90689 10.1695 7.18516L10.5253 7.96355C10.5626 8.04521 10.6688 8.06698 10.7462 8.02176C10.8779 7.94481 11.0306 7.9012 11.1921 7.9012H11.7188C11.7858 7.9012 11.8426 7.85134 11.8481 7.78446C11.8539 7.71357 11.8569 7.64168 11.8569 7.56877C11.8569 6.36855 10.8068 5.44441 9.57414 5.44441C8.93874 5.44441 8.37962 5.74314 7.9784 6.12967C7.57718 5.74314 7.01806 5.44441 6.38266 5.44441Z" fill="#232323"/>
<path d="M9.66581 7.41664C9.61811 7.31229 9.52022 7.23989 9.4067 7.225C9.29318 7.21012 9.18001 7.25485 9.10715 7.3434L8.19107 8.45676H7.53514C7.35153 8.45676 7.20269 8.606 7.20269 8.79009C7.20269 8.97419 7.35153 9.12342 7.53514 9.12342H8.34779C8.44702 9.12342 8.54107 9.07897 8.60423 9.00222L9.28242 8.17797L10.0772 9.91663C10.1249 10.021 10.2228 10.0934 10.3363 10.1083C10.4498 10.1231 10.563 10.0784 10.6358 9.98987L11.3488 9.12342H12.411C12.5946 9.12342 12.7435 8.97419 12.7435 8.79009C12.7435 8.606 12.5946 8.45676 12.411 8.45676H11.1921C11.0928 8.45676 10.9988 8.50121 10.9356 8.57796L10.4606 9.1553L9.66581 7.41664Z" fill="#232323"/>
</svg>
