<svg width="34" height="32" viewBox="0 0 34 32" fill="none" xmlns="http://www.w3.org/2000/svg">
<g filter="url(#filter0_d_14155_13657)">
<path fill-rule="evenodd" clip-rule="evenodd" d="M28.0499 4.43524C27.7362 3.97542 27.1163 3.86185 26.6652 4.18158C26.2142 4.50132 26.1028 5.13327 26.4164 5.59309C28.2882 8.33712 29.3434 11.9764 29.3434 15.9229C29.3434 19.8698 28.288 23.5103 26.4164 26.2541C26.1028 26.7139 26.2142 27.3458 26.6652 27.6656C27.1163 27.9853 27.7362 27.8717 28.0499 27.4119C30.1601 24.3183 31.333 20.2727 31.333 15.9229C31.333 11.5734 30.1603 7.52912 28.0499 4.43524ZM14.7082 4.34753L14.9147 4.33947L15.1029 4.34151C16.4496 4.4074 17.601 5.41945 18.0418 6.92021C18.1645 7.39871 18.2339 7.86668 18.3147 8.6285L18.4222 9.62686C18.6387 11.9412 18.6318 21.032 18.4016 22.9062L18.2588 24.2501C18.2023 24.7034 18.1378 25.052 18.0323 25.4521C17.5768 27.0026 16.32 28.0415 14.9302 27.9987C14.2228 28.0165 13.3613 27.6496 12.762 27.1358L8.04011 23.2256L5.60988 23.2263C3.81957 23.2263 2.54442 22.0012 2.23121 20.1323L2.19585 19.8849C1.93063 17.9631 1.93887 14.4692 2.19574 12.3689C2.4528 10.4953 3.79505 9.11313 5.60988 9.11313L8.03879 9.11238L12.643 5.2878C13.2003 4.80647 14.0322 4.41059 14.7082 4.34753ZM22.1147 8.31965C22.5658 7.99994 23.1857 8.11355 23.4993 8.57339C24.8543 10.5601 25.6046 13.1477 25.6046 15.9236C25.6046 18.6992 24.8545 21.2855 23.4993 23.2724C23.1857 23.7323 22.5658 23.8459 22.1147 23.5262C21.6636 23.2065 21.5521 22.5745 21.8658 22.1147C22.9824 20.4775 23.615 18.2962 23.615 15.9236C23.615 13.5506 22.9822 11.368 21.8658 9.73114C21.5521 9.2713 21.6636 8.63936 22.1147 8.31965Z" fill="white"/>
</g>
<defs>
<filter id="filter0_d_14155_13657" x="-1.33301" y="-1" width="36" height="36" filterUnits="userSpaceOnUse" color-interpolation-filters="sRGB">
<feFlood flood-opacity="0" result="BackgroundImageFix"/>
<feColorMatrix in="SourceAlpha" type="matrix" values="0 0 0 0 0 0 0 0 0 0 0 0 0 0 0 0 0 0 127 0" result="hardAlpha"/>
<feOffset dy="1"/>
<feGaussianBlur stdDeviation="1"/>
<feComposite in2="hardAlpha" operator="out"/>
<feColorMatrix type="matrix" values="0 0 0 0 0 0 0 0 0 0 0 0 0 0 0 0 0 0 0.2 0"/>
<feBlend mode="normal" in2="BackgroundImageFix" result="effect1_dropShadow_14155_13657"/>
<feBlend mode="normal" in="SourceGraphic" in2="effect1_dropShadow_14155_13657" result="shape"/>
</filter>
</defs>
</svg>
