<svg width="16" height="16" viewBox="0 0 16 16" fill="none" xmlns="http://www.w3.org/2000/svg">
<path d="M15.5 8C15.5 12.1421 12.1421 15.5 8 15.5C3.85786 15.5 0.5 12.1421 0.5 8C0.5 3.85786 3.85786 0.5 8 0.5C12.1421 0.5 15.5 3.85786 15.5 8Z" fill="#232323" stroke="#D8D8D8"/>
<path d="M9.70538 4.57277C9.76922 4.57884 9.79676 4.65636 9.75141 4.7017L6.58185 7.87126C6.54596 7.90716 6.52027 7.95197 6.50744 8.00108L6.12649 9.45953C6.10086 9.55767 6.12918 9.66205 6.2009 9.73377C6.27262 9.80549 6.377 9.83381 6.47514 9.80818L7.93359 9.42723C7.9827 9.4144 8.02751 9.38871 8.06341 9.35282L11.2779 6.13837C11.323 6.09327 11.4001 6.12025 11.4067 6.18368C11.5406 7.45956 11.5331 8.74654 11.384 10.0212C11.2991 10.7469 10.7158 11.3167 9.9926 11.3975C8.67903 11.5444 7.32105 11.5444 6.00748 11.3975C5.28428 11.3167 4.70097 10.7469 4.61609 10.0212C4.45903 8.6783 4.45903 7.32171 4.61609 5.97885C4.70097 5.25312 5.28428 4.6833 6.00748 4.60247C7.22553 4.46634 8.48177 4.45644 9.70538 4.57277Z" fill="white"/>
<path d="M10.2185 5.04278C10.2556 5.00566 10.3159 5.00566 10.353 5.04278L10.8918 5.58158C10.929 5.61878 10.929 5.67908 10.8918 5.71627L7.73244 8.87567C7.72054 8.88757 7.70543 8.89617 7.68916 8.90047L6.95986 9.09097C6.88952 9.10928 6.82547 9.04507 6.84372 8.97473L7.0342 8.24551C7.03848 8.22914 7.04704 8.2142 7.059 8.20223L10.2185 5.04278Z" fill="white"/>
</svg>
