<svg width="24" height="24" viewBox="0 0 24 24" fill="none" xmlns="http://www.w3.org/2000/svg">
<g clip-path="url(#clip0_14170_17980)">
<rect width="24" height="24" rx="4" fill="#FFFC00"/>
<path d="M18.397 15.3753C16.6723 15.0696 15.9007 13.2824 15.81 13.0707V13.0472C15.7192 12.8591 15.6965 12.718 15.7419 12.6004C15.8326 12.3888 16.2184 12.2477 16.4681 12.1771C16.5362 12.1536 16.6042 12.1301 16.6496 12.1066C17.1262 11.8949 17.3758 11.6363 17.3758 11.3306C17.3758 11.0954 17.1943 10.8602 16.922 10.7662C16.8312 10.7192 16.7177 10.6956 16.6042 10.6956C16.5362 10.6956 16.4227 10.7192 16.3092 10.7662C16.0823 10.8602 15.9007 10.9308 15.7646 10.9308C15.7192 10.9308 15.6738 10.9308 15.6284 10.9073C15.6511 10.8367 15.6511 10.7662 15.6511 10.6721V10.6251C15.6965 9.66095 15.7873 8.46165 15.4695 7.75618C14.5391 5.63977 12.6101 5.47517 12.0428 5.47517H11.7705C11.2032 5.47517 9.27418 5.63977 8.36644 7.75618C8.04872 8.46165 8.1168 9.66095 8.18488 10.6251C8.20756 10.7192 8.20756 10.8132 8.20756 10.9073C8.16217 10.9073 8.09409 10.9308 8.02601 10.9308C7.84445 10.9308 7.66292 10.8838 7.43596 10.7662C7.11824 10.6251 6.50551 10.8367 6.43743 11.26C6.39203 11.4952 6.48283 11.8244 7.16364 12.1066C7.20903 12.1301 7.27711 12.1536 7.36788 12.1771C7.59481 12.2477 7.98061 12.3888 8.07137 12.6004C8.11677 12.6945 8.09406 12.8591 8.00329 13.0472C7.9579 13.1178 7.16364 15.0225 5.37082 15.3282C5.18931 15.3753 5.07584 15.5399 5.07584 15.728C5.07584 15.7985 5.09852 15.8456 5.12123 15.8926C5.25739 16.2688 5.84744 16.504 6.91402 16.6921C6.93671 16.7627 6.95942 16.9038 6.98211 16.9743C7.00479 17.0684 7.0275 17.1859 7.05019 17.3035C7.07287 17.4211 7.18635 17.6092 7.45867 17.6092C7.54944 17.6092 7.66292 17.5857 7.77639 17.5622C7.95795 17.5151 8.18488 17.4681 8.47989 17.4681C8.66145 17.4681 8.82029 17.4916 9.00185 17.5387C9.31957 17.5857 9.61458 17.7974 9.9323 18.0325C10.4089 18.3852 10.84 18.6439 11.7251 18.6439C11.7478 18.6439 11.7705 18.6439 11.7932 18.6439C11.8159 18.6439 11.8613 18.6439 11.8839 18.6439C12.6555 18.6439 13.3363 18.4323 13.9264 18.0325C14.2441 17.8209 14.5391 17.5857 14.8568 17.5387C15.0157 17.5152 15.1972 17.4916 15.3561 17.4916C15.6284 17.4916 15.8553 17.5151 16.0596 17.5622C16.1957 17.5857 16.3092 17.6092 16.4 17.6092C16.5815 17.6092 16.7404 17.4916 16.7858 17.3035C16.8085 17.1859 16.8312 17.0919 16.8539 16.9743C16.8765 16.9273 16.8993 16.7862 16.9219 16.7156C17.9885 16.551 18.5105 16.2923 18.6694 15.9396C18.692 15.8926 18.7148 15.822 18.7148 15.775C18.7147 15.5869 18.5786 15.3988 18.397 15.3753Z" fill="#232323" stroke="#232323"/>
<path fill-rule="evenodd" clip-rule="evenodd" d="M16.7854 16.2454C16.5131 16.2689 16.4677 16.5511 16.3996 16.8568C16.3769 16.9273 16.3542 17.0214 16.3315 17.1155C16.2861 17.1155 16.218 17.1155 16.1046 17.092C15.8776 17.0449 15.628 16.9979 15.3103 16.9979C15.1287 16.9979 14.9472 17.0214 14.7429 17.045C14.3345 17.1155 13.9714 17.3742 13.631 17.6328C13.1317 18.0091 12.5644 18.1737 11.8835 18.1737C11.8609 18.1737 11.8382 18.1737 11.7928 18.1737C11.7866 18.1737 11.7809 18.1737 11.7758 18.1737C11.7738 18.1737 11.7719 18.1737 11.7701 18.1737C11.0212 18.1737 10.6581 17.9385 10.2269 17.6328C9.88651 17.3741 9.54611 17.1155 9.11493 17.0449C8.93338 17.0214 8.72913 16.9979 8.5476 16.9979C8.2072 16.9979 7.93487 17.0449 7.75331 17.0919C7.66255 17.1154 7.59447 17.139 7.52639 17.139C7.5037 17.0449 7.48099 16.9508 7.45831 16.8568C7.39022 16.5511 7.34483 16.2689 7.0725 16.2219C6.07397 16.0808 5.73357 15.8691 5.62012 15.7751C7.48099 15.3753 8.34336 13.4941 8.45684 13.2354C8.593 12.9297 8.61568 12.6475 8.52492 12.4123C8.34336 11.989 7.84411 11.8244 7.52639 11.7304C7.45831 11.7304 7.41291 11.7068 7.36754 11.6833C6.98171 11.5187 6.91363 11.3776 6.91363 11.3541C6.91363 11.2836 7.07248 11.1895 7.20864 11.1895C7.25404 11.1895 7.27672 11.1895 7.27672 11.1895C7.54904 11.3306 7.82137 11.4012 8.0483 11.4012C8.3887 11.4012 8.57026 11.2366 8.61563 11.1895C8.661 11.1425 8.68371 11.0955 8.68371 11.0249C8.68371 10.8838 8.66103 10.7428 8.66103 10.6017C8.59294 9.68455 8.52486 8.55579 8.79719 7.94438C9.59148 6.08665 11.2935 5.94556 11.7928 5.94556H12.0197H12.0424C12.5416 5.94556 14.2436 6.08665 15.0606 7.89737C15.3103 8.50878 15.2422 9.63753 15.1968 10.5546V10.6017C15.1968 10.7428 15.1741 10.8604 15.1741 10.9779C15.1741 11.0485 15.1968 11.119 15.2422 11.1661C15.2876 11.2131 15.4464 11.3542 15.7868 11.3777C16.0138 11.3542 16.2407 11.2836 16.513 11.1661C16.5584 11.1426 16.6719 11.1426 16.7627 11.1896C16.8761 11.2366 16.9215 11.3072 16.9215 11.3307C16.9215 11.3777 16.8307 11.5188 16.4676 11.6599C16.4222 11.6834 16.3542 11.7069 16.2861 11.7304C15.9911 11.8245 15.4918 11.9891 15.3103 12.4124C15.1968 12.6475 15.2422 12.9297 15.3783 13.2355C15.4691 13.4706 16.3088 15.3989 18.1923 15.7987C18.0789 15.8927 17.7612 16.0808 16.7854 16.2454Z" fill="white"/>
</g>
<defs>
<clipPath id="clip0_14170_17980">
<rect width="24" height="24" fill="white"/>
</clipPath>
</defs>
</svg>
