<svg width="24" height="24" viewBox="0 0 24 24" fill="none" xmlns="http://www.w3.org/2000/svg">
<g clip-path="url(#clip0_14170_17971)">
<rect width="24" height="24" rx="4" fill="#E60023"/>
<path d="M12.2646 4.52864C7.13917 4.52864 4.41797 7.9692 4.41797 11.7149C4.41797 13.4568 5.34512 15.6249 6.82859 16.3155C7.05328 16.4201 7.17388 16.3749 7.22549 16.157C7.26521 15.9917 7.46525 15.1851 7.55523 14.8101C7.58401 14.6905 7.56987 14.5877 7.47304 14.4698C6.98203 13.8743 6.58927 12.7799 6.58927 11.7596C6.58927 9.14025 8.57237 6.60586 11.9508 6.60586C14.868 6.60586 16.9105 8.59401 16.9105 11.4371C16.9105 14.6493 15.2882 16.875 13.1776 16.875C12.012 16.875 11.1392 15.9108 11.4192 14.7284C11.7549 13.317 12.403 11.7943 12.403 10.7749C12.403 9.86326 11.9143 9.10234 10.9008 9.10234C9.70917 9.10234 8.75234 10.3346 8.75234 11.9861C8.75234 13.0371 9.10767 13.7487 9.10767 13.7487C9.10767 13.7487 7.93068 18.7252 7.71509 19.6514C7.47641 20.6741 7.56944 22.1105 7.67272 23.0497C7.94057 23.1547 8.20852 23.2597 8.48543 23.3455C8.97046 22.5571 9.6937 21.264 9.96176 20.2329C10.1065 19.677 10.7021 17.4098 10.7021 17.4098C11.089 18.1484 12.2198 18.7736 13.4233 18.7736C17.0045 18.7736 19.5855 15.4801 19.5855 11.3874C19.5855 7.46358 16.3843 4.52864 12.2646 4.52864Z" fill="white"/>
</g>
<defs>
<clipPath id="clip0_14170_17971">
<rect width="24" height="24" fill="white"/>
</clipPath>
</defs>
</svg>
