<svg width="32" height="32" viewBox="0 0 32 32" fill="none" xmlns="http://www.w3.org/2000/svg">
<rect width="32" height="32" rx="9" fill="#2DAAE1"/>
<path d="M26.2783 9.43932C25.5236 9.77421 24.713 10.0006 23.8608 10.1024C24.7306 9.5815 25.3969 8.75614 25.7116 7.77381C24.8853 8.26455 23.9811 8.61004 23.0381 8.79525C22.2707 7.97727 21.1764 7.46658 19.9657 7.46658C17.6419 7.46658 15.7572 9.35044 15.7572 11.6756C15.7572 12.0051 15.7943 12.3265 15.8657 12.6351C12.3675 12.4593 9.26606 10.7836 7.19014 8.2374C6.82765 8.85925 6.62017 9.58226 6.62017 10.3537C6.62017 11.8138 7.36334 13.102 8.49258 13.8567C7.82409 13.8359 7.17027 13.6555 6.58578 13.3304V13.3836C6.58578 15.4231 8.03643 17.1237 9.96208 17.5105C9.60834 17.6074 9.23711 17.6581 8.85305 17.6581C8.58151 17.6581 8.31807 17.6324 8.06071 17.584C8.59634 19.2556 10.1508 20.4724 11.9921 20.5068C10.5516 21.636 8.73646 22.3092 6.76501 22.3092C6.42545 22.3092 6.08986 22.2889 5.76041 22.2492C7.62341 23.4438 9.83543 24.1412 12.2125 24.1412C19.9542 24.1412 24.1882 17.7275 24.1882 12.1655C24.1882 11.9829 24.1842 11.8017 24.1754 11.6211C25.0003 11.0244 25.7124 10.2856 26.2783 9.43932Z" fill="white"/>
</svg>
