<svg width="32" height="32" viewBox="0 0 32 32" fill="none" xmlns="http://www.w3.org/2000/svg">
<g clip-path="url(#clip0_14170_17986)">
<path d="M24.8997 31.9831L7.13135 32C3.2223 32.0036 0.0213251 28.8088 0.016883 24.8997L2.96183e-06 7.13135C-0.00355072 3.2223 3.19121 0.0213251 7.10026 0.016883L24.8687 2.96183e-06C28.7777 -0.00355072 31.9787 3.19121 31.9831 7.10026L32 24.8687C32.0044 28.7786 28.8088 31.9796 24.8997 31.9831Z" fill="url(#paint0_radial_14170_17986)"/>
<path d="M24.8997 31.9831L7.13135 32C3.2223 32.0036 0.0213251 28.8088 0.016883 24.8997L2.96183e-06 7.13135C-0.00355072 3.2223 3.19121 0.0213251 7.10026 0.016883L24.8687 2.96183e-06C28.7777 -0.00355072 31.9787 3.19121 31.9831 7.10026L32 24.8687C32.0044 28.7786 28.8088 31.9796 24.8997 31.9831Z" fill="url(#paint1_radial_14170_17986)"/>
<path d="M16.0005 22.2197C12.5721 22.2197 9.78156 19.43 9.78156 16.0007C9.78156 12.5714 12.5721 9.78178 16.0005 9.78178C19.4289 9.78178 22.2194 12.5714 22.2194 16.0007C22.2194 19.43 19.4289 22.2197 16.0005 22.2197ZM16.0005 11.5586C13.5511 11.5586 11.5584 13.5513 11.5584 16.0007C11.5584 18.4501 13.5511 20.4428 16.0005 20.4428C18.4499 20.4428 20.4426 18.4501 20.4426 16.0007C20.4426 13.5513 18.4499 11.5586 16.0005 11.5586Z" fill="white"/>
<path d="M22.6636 10.6702C23.3996 10.6702 23.9963 10.0736 23.9963 9.33757C23.9963 8.60158 23.3996 8.00494 22.6636 8.00494C21.9276 8.00494 21.331 8.60158 21.331 9.33757C21.331 10.0736 21.9276 10.6702 22.6636 10.6702Z" fill="white"/>
<path d="M21.331 27.5502H10.67C7.24155 27.5502 4.45102 24.7605 4.45102 21.3312V10.6702C4.45102 7.2409 7.24155 4.45126 10.67 4.45126H21.331C24.7594 4.45126 27.5499 7.2409 27.5499 10.6702V21.3312C27.5499 24.7605 24.7594 27.5502 21.331 27.5502ZM10.67 6.2281C8.22058 6.2281 6.22786 8.22083 6.22786 10.6702V21.3312C6.22786 23.7806 8.22058 25.7733 10.67 25.7733H21.331C23.7804 25.7733 25.7731 23.7806 25.7731 21.3312V10.6702C25.7731 8.22083 23.7804 6.2281 21.331 6.2281H10.67Z" fill="white"/>
</g>
<defs>
<radialGradient id="paint0_radial_14170_17986" cx="0" cy="0" r="1" gradientUnits="userSpaceOnUse" gradientTransform="translate(11.8959 32.0231) scale(39.8892 39.8892)">
<stop stop-color="#FFDD55"/>
<stop offset="0.328" stop-color="#FF543F"/>
<stop offset="0.348" stop-color="#FC5245"/>
<stop offset="0.504" stop-color="#E64771"/>
<stop offset="0.643" stop-color="#D53E91"/>
<stop offset="0.761" stop-color="#CC39A4"/>
<stop offset="0.841" stop-color="#C837AB"/>
</radialGradient>
<radialGradient id="paint1_radial_14170_17986" cx="0" cy="0" r="1" gradientUnits="userSpaceOnUse" gradientTransform="translate(5.14928 -0.399517) scale(26.4865 17.6479)">
<stop stop-color="#4168C9"/>
<stop offset="0.999" stop-color="#4168C9" stop-opacity="0"/>
</radialGradient>
<clipPath id="clip0_14170_17986">
<rect width="32" height="32" fill="white"/>
</clipPath>
</defs>
</svg>
