<svg width="60" height="60" viewBox="0 0 60 60" fill="none" xmlns="http://www.w3.org/2000/svg">
<g clip-path="url(#clip0_14170_18036)">
<path d="M60 14.0625V45.9375C60 53.7038 53.7038 60 45.9375 60H14.0625C6.29625 60 0 53.7038 0 45.9375V14.0625C0 6.29625 6.29625 0 14.0625 0H45.9375C53.7038 0 60 6.29625 60 14.0625Z" fill="url(#paint0_linear_14170_18036)"/>
<path d="M30.0113 15.9375C26.7188 15.9375 23.6728 16.7888 21.1331 18.256C20.7028 18.5044 20.28 18.7537 19.8816 19.0359C19.4972 19.3097 19.1447 19.6088 18.7922 19.9116C18.7791 19.9219 18.7584 19.9238 18.7453 19.935C15.8616 22.4072 14.0625 25.8141 14.0625 29.5857C14.0625 33.3029 15.8194 36.6553 18.63 39.1172C18.6431 39.2175 18.6525 39.3263 18.6525 39.4013C18.6525 41.5781 16.9781 43.3519 14.8509 43.3753C15.9229 43.8245 17.0731 44.0574 18.2353 44.0606C20.2884 44.0606 22.1381 43.2975 23.6372 42.0975C25.6758 42.8619 27.835 43.2545 30.0122 43.2563C38.8134 43.2563 45.9384 37.1297 45.9384 29.5847C45.9384 22.0397 38.8125 15.9375 30.0113 15.9375Z" fill="url(#paint1_linear_14170_18036)"/>
</g>
<defs>
<linearGradient id="paint0_linear_14170_18036" x1="30" y1="0" x2="30" y2="60" gradientUnits="userSpaceOnUse">
<stop stop-color="#00EA66"/>
<stop offset="1" stop-color="#00D50F"/>
</linearGradient>
<linearGradient id="paint1_linear_14170_18036" x1="29.9759" y1="43.7709" x2="29.9759" y2="28.1516" gradientUnits="userSpaceOnUse">
<stop stop-color="#E5F5D9"/>
<stop offset="1" stop-color="white"/>
</linearGradient>
<clipPath id="clip0_14170_18036">
<rect width="60" height="60" fill="white"/>
</clipPath>
</defs>
</svg>
