<svg width="60" height="60" viewBox="0 0 60 60" fill="none" xmlns="http://www.w3.org/2000/svg">
<rect width="60" height="60" rx="9" fill="#D8D8D8"/>
<path d="M5 9C5 6.79086 6.79086 5 9 5H51C53.2091 5 55 6.79086 55 9V51C55 53.2091 53.2091 55 51 55H9C6.79086 55 5 53.2091 5 51V9Z" stroke="#7289DA" stroke-width="10"/>
<path d="M49.9476 3H9.2296C5.79574 3 3 5.79552 3 9.2597V50.3425C3 53.8067 5.79553 56.6022 9.22939 56.6022H43.6881L42.0774 50.9807L45.967 54.5967L49.6437 58H56.177V9.2597C56.177 5.79552 53.3814 3 49.9476 3ZM38.2183 42.6853C38.2183 42.6853 37.1244 41.3785 36.2127 40.2238C40.1935 39.0994 41.7128 36.6078 41.7128 36.6078C40.4669 37.4283 39.2818 38.0057 38.2183 38.4004C36.699 39.0387 35.2404 39.4639 33.8123 39.7072C30.8951 40.2541 28.221 40.1023 25.9421 39.6768C24.2099 39.3424 22.721 38.8563 21.4753 38.3703C20.7763 38.0967 20.0166 37.7625 19.2568 37.3371C19.1658 37.2762 19.0746 37.2459 18.9834 37.185C18.9377 37.1623 18.8965 37.1315 18.8619 37.094C18.315 36.7901 18.0111 36.5774 18.0111 36.5774C18.0111 36.5774 19.4697 39.0084 23.3288 40.1629C22.4173 41.3178 21.2929 42.6851 21.2929 42.6851C14.5772 42.4724 12.0249 38.0664 12.0249 38.0664C12.0249 28.2818 16.4006 20.3508 16.4006 20.3508C20.7763 17.069 24.9392 17.1602 24.9392 17.1602L25.2431 17.525C19.7736 19.1047 17.2514 21.5055 17.2514 21.5055C17.2514 21.5055 17.9199 21.141 19.0441 20.6244C22.2955 19.1961 24.8786 18.8012 25.9421 18.71C26.1243 18.6795 26.2763 18.6491 26.4587 18.6491C28.495 18.3839 30.5558 18.3635 32.5969 18.5885C35.4834 18.9227 38.5831 19.7735 41.7432 21.5055C41.7432 21.5055 39.3427 19.2266 34.1769 17.6465L34.6023 17.1604C34.6023 17.1604 38.7652 17.069 43.1409 20.351C43.1409 20.351 47.5168 28.2818 47.5168 38.0664C47.5168 38.0664 44.9338 42.4726 38.2183 42.6853ZM24.0884 28.4945C22.3564 28.4945 20.9892 30.0138 20.9892 31.8673C20.9892 33.721 22.3867 35.2403 24.0884 35.2403C25.8206 35.2403 27.1878 33.721 27.1878 31.8673C27.2184 30.0138 25.8204 28.4945 24.0884 28.4945ZM35.1797 28.4945C33.4475 28.4945 32.0801 30.0138 32.0801 31.8673C32.0801 33.721 33.4781 35.2403 35.1797 35.2403C36.9117 35.2403 38.279 33.721 38.279 31.8673C38.279 30.0138 36.9117 28.4945 35.1797 28.4945Z" fill="#7289DA"/>
</svg>
