<svg width="60" height="60" viewBox="0 0 60 60" fill="none" xmlns="http://www.w3.org/2000/svg">
<path d="M0 9C0 4.02944 4.02944 0 9 0H51C55.9706 0 60 4.02944 60 9V51C60 55.9706 55.9706 60 51 60H9C4.02944 60 0 55.9706 0 51V9Z" fill="url(#paint0_linear_14170_18021)"/>
<path d="M49.2745 42.9429C49.2078 42.9429 49.0745 43.0096 49.0078 43.0096H11.0078C10.9411 43.0096 10.8078 43.0096 10.7411 42.9429L22.6078 31.0763L25.1411 33.6763C27.8745 36.4763 32.2078 36.4763 34.9411 33.6763L37.4745 31.0763L49.2745 42.9429ZM50.0078 41.6763V18.1429C50.0078 18.0096 50.0078 17.8763 49.9411 17.8096C49.8745 17.9429 38.1411 30.0763 38.1411 30.0763L50.0078 41.9429C50.0078 41.8096 50.0078 41.7429 50.0078 41.6763ZM10.0078 41.7429V18.2763C10.0078 18.1429 10.0078 18.0096 10.0745 17.9429C10.1411 18.0763 21.8745 30.2096 21.8745 30.2096L10.0745 42.0096C10.0078 41.9429 10.0078 41.8096 10.0078 41.7429ZM49.3411 17.0096L34.2078 32.4763C31.8745 34.8096 28.1411 34.8096 25.8745 32.4763L10.7411 17.0096C10.6745 16.9429 49.3411 17.0096 49.3411 17.0096Z" fill="white"/>
<defs>
<linearGradient id="paint0_linear_14170_18021" x1="27.5998" y1="-1.04803" x2="27.5998" y2="58.932" gradientUnits="userSpaceOnUse">
<stop stop-color="#1E51EE"/>
<stop offset="1" stop-color="#19E6FF"/>
</linearGradient>
</defs>
</svg>
