<svg width="32" height="32" viewBox="0 0 32 32" fill="none" xmlns="http://www.w3.org/2000/svg">
<g clip-path="url(#clip0_14170_17967)">
<rect width="32" height="32" rx="9" fill="#E60023"/>
<path d="M16.3518 6.03784C9.51791 6.03784 5.88965 10.6252 5.88965 15.6195C5.88965 17.9421 7.12585 20.8329 9.10381 21.7536C9.40339 21.8931 9.5642 21.8328 9.63301 21.5423C9.68597 21.3219 9.95269 20.2464 10.0727 19.7465C10.111 19.5869 10.0922 19.4499 9.96308 19.2927C9.3084 18.4987 8.78471 17.0396 8.78471 15.6791C8.78471 12.1866 11.4289 8.80747 15.9334 8.80747C19.823 8.80747 22.5463 11.4583 22.5463 15.2492C22.5463 19.5321 20.3832 22.4996 17.5691 22.4996C16.015 22.4996 14.8513 21.2141 15.2246 19.6375C15.6722 17.7557 16.5363 15.7254 16.5363 14.3662C16.5363 13.1507 15.8847 12.1361 14.5334 12.1361C12.9446 12.1361 11.6688 13.7791 11.6688 15.9812C11.6688 17.3824 12.1426 18.3312 12.1426 18.3312C12.1426 18.3312 10.5733 24.9666 10.2858 26.2016C9.96757 27.565 10.0916 29.4803 10.2293 30.7326C10.5864 30.8726 10.9437 31.0126 11.3129 31.1269C11.9596 30.0757 12.924 28.3516 13.2814 26.9768C13.4744 26.2357 14.2685 23.2127 14.2685 23.2127C14.7843 24.1975 16.2921 25.0311 17.8968 25.0311C22.6717 25.0311 26.113 20.6398 26.113 15.1828C26.113 9.95109 21.8447 6.03784 16.3518 6.03784Z" fill="white"/>
</g>
<defs>
<clipPath id="clip0_14170_17967">
<rect width="32" height="32" fill="white"/>
</clipPath>
</defs>
</svg>
