<svg width="16" height="16" viewBox="0 0 16 16" fill="none" xmlns="http://www.w3.org/2000/svg">
<mask id="mask0_14155_13501" style="mask-type:luminance" maskUnits="userSpaceOnUse" x="0" y="0" width="16" height="16">
<path fill-rule="evenodd" clip-rule="evenodd" d="M8.00015 15.6154C3.79429 15.6154 0.384766 12.2059 0.384766 8.00003C0.384766 3.79417 3.79429 0.384644 8.00015 0.384644C12.206 0.384644 15.6155 3.79417 15.6155 8.00003C15.6155 12.2059 12.206 15.6154 8.00015 15.6154ZM5.74902 6.27431C5.76424 4.94581 6.72765 4.07874 8.35025 4.07874C9.89171 4.07874 10.8957 4.89003 10.8957 6.10698C10.8957 6.85743 10.5458 7.37463 9.80044 7.80564C9.10577 8.20621 8.91309 8.43439 8.91309 8.91103V9.14935H7.33105L7.31584 8.94652C7.2195 8.07945 7.47303 7.62309 8.17785 7.21744C8.86745 6.8118 9.04492 6.59883 9.04492 6.15262C9.04492 5.7419 8.71026 5.45794 8.23362 5.45794C7.74684 5.45794 7.41218 5.78246 7.39697 6.27431H5.74902ZM7.12793 10.7161C7.12793 11.2992 7.5133 11.639 8.16741 11.639C8.82151 11.639 9.20181 11.2992 9.20181 10.7161C9.20181 10.1279 8.82151 9.78821 8.16741 9.78821C7.5133 9.78821 7.12793 10.1279 7.12793 10.7161Z" fill="white"/>
</mask>
<g mask="url(#mask0_14155_13501)">
<rect width="16" height="16" fill="#BBBBBB"/>
</g>
</svg>
