<svg width="24" height="24" viewBox="0 0 24 24" fill="none" xmlns="http://www.w3.org/2000/svg">
<path fill-rule="evenodd" clip-rule="evenodd" d="M7.48002 6C8.95745 6 10.2197 6.84661 10.7246 8.04099C12.1384 10.7023 10.9293 14.1896 7.29717 18.4909C7.00242 18.8398 6.45591 18.903 6.07645 18.632C5.69698 18.361 5.62825 17.8584 5.92288 17.5094C7.74789 15.3484 8.8694 13.4843 9.32266 11.9149C8.78828 12.2226 8.15676 12.4002 7.48007 12.4002C5.55819 12.4002 4.00006 10.9675 4.00006 9.20014C4.00006 7.43282 5.5581 6.00013 7.48007 6.00013L7.48002 6ZM16.1797 6C17.6562 6 18.9178 6.84544 19.4234 8.03859C20.839 10.7003 19.6302 14.1883 15.9969 18.4907C15.7022 18.8397 15.1557 18.9029 14.7761 18.6319C14.3967 18.3609 14.3279 17.8583 14.6227 17.5093C16.4477 15.3483 17.5692 13.4842 18.0222 11.9148C17.4878 12.2225 16.8563 12.4 16.1796 12.4C14.2577 12.4 12.6996 10.9674 12.6996 9.20003C12.6996 7.43271 14.2577 6.00002 16.1796 6.00002L16.1797 6Z" fill="black"/>
</svg>
