<svg width="24" height="24" viewBox="0 0 24 24" fill="none" xmlns="http://www.w3.org/2000/svg">
<path d="M11.625 2.081C10.7463 2.456 5.4724 4.706 4.5938 5.081C4.2253 5.238 4 5.58601 4 5.98701C4.0004 10.366 4.1749 12.324 4.9688 14.581C6.0084 17.536 8.048 19.889 11.5 21.862C11.8074 22.038 12.1925 22.038 12.5 21.862C15.9833 19.871 18.0319 17.526 19.0625 14.581C19.8465 12.34 20 10.479 20 5.98701C20 5.58701 19.7732 5.239 19.4062 5.081L12.4375 2.081C12.1861 1.973 11.8767 1.973 11.625 2.081ZM12 4.04902L18 6.64301C18.087 13.819 16.6673 16.97 12 19.831C7.2106 16.852 5.9508 13.659 6 6.64301C7.3631 6.06101 10.847 4.54202 12 4.04902ZM15 8.98701C14.7441 8.98701 14.4765 9.07302 14.2812 9.26802L12 11.549L10.7188 10.268C10.3282 9.87802 9.6718 9.87802 9.2812 10.268C8.8907 10.659 8.8907 11.315 9.2812 11.706L11.2812 13.706C11.6718 14.096 12.3282 14.096 12.7188 13.706L15.7188 10.706C16.1093 10.315 16.1093 9.65902 15.7188 9.26802C15.5235 9.07302 15.2559 8.98701 15 8.98701Z" fill="#232323"/>
</svg>
