<svg width="24" height="24" viewBox="0 0 24 24" fill="none" xmlns="http://www.w3.org/2000/svg">
<path d="M18.7459 4.52227L4.93209 8.41847C4.81588 8.45125 4.71244 8.51872 4.6356 8.61186C4.55876 8.705 4.51218 8.81937 4.50208 8.9397C4.49198 9.06002 4.51885 9.18056 4.57909 9.28521C4.63933 9.38985 4.73008 9.47362 4.8392 9.52531L11.1861 12.5318C11.3099 12.5904 11.4096 12.6901 11.4683 12.8139L14.4747 19.1608C14.5264 19.2699 14.6102 19.3607 14.7148 19.4209C14.8194 19.4812 14.94 19.508 15.0603 19.4979C15.1806 19.4878 15.295 19.4412 15.3881 19.3644C15.4813 19.2876 15.5487 19.1841 15.5815 19.0679L19.4777 5.2541C19.5063 5.15263 19.5074 5.04536 19.4808 4.94335C19.4542 4.84134 19.4008 4.74826 19.3263 4.67371C19.2517 4.59916 19.1587 4.54583 19.0566 4.51922C18.9546 4.4926 18.8474 4.49365 18.7459 4.52227Z" stroke="#232323" stroke-width="2" stroke-linecap="round" stroke-linejoin="round"/>
<path d="M12 12L15 9" stroke="#232323" stroke-width="2" stroke-linecap="round" stroke-linejoin="round"/>
</svg>
