<svg width="32" height="32" viewBox="0 0 32 32" fill="none" xmlns="http://www.w3.org/2000/svg">
<path d="M24.2356 9.27087H22.0596L22.447 8.87392C22.8698 8.44691 23.1069 7.87027 23.1069 7.26935C23.1069 6.66843 22.8698 6.0918 22.447 5.66479C22.2363 5.45403 21.9861 5.28684 21.7108 5.17278C21.4355 5.05871 21.1404 5 20.8424 5C20.5444 5 20.2493 5.05871 19.974 5.17278C19.6987 5.28684 19.4485 5.45403 19.2378 5.66479L15.8661 9.03174L13.3743 6.54001C12.9858 6.15116 12.4692 5.91666 11.9207 5.8801C11.3722 5.84354 10.8291 6.00741 10.3924 6.34125C9.95565 6.67509 9.65501 7.15617 9.54637 7.69503C9.43773 8.2339 9.52847 8.79389 9.80174 9.27087H7.3913C6.75716 9.2711 6.14906 9.52312 5.70065 9.97152C5.25224 10.4199 5.00023 11.028 5 11.6622V14.3309C5.00037 14.4576 5.05087 14.579 5.14048 14.6686C5.2301 14.7583 5.35153 14.8088 5.47826 14.8091H6.3487V24.6087C6.34892 25.2428 6.60094 25.8509 7.04934 26.2994C7.49775 26.7478 8.10586 26.9998 8.74 27H22.8822C23.5163 26.9998 24.1244 26.7478 24.5728 26.2994C25.0212 25.8509 25.2732 25.2428 25.2735 24.6087V14.8091H26.1439C26.2706 14.8088 26.3921 14.7583 26.4817 14.6686C26.5713 14.579 26.6218 14.4576 26.6222 14.3309V11.6622C26.623 11.3483 26.5619 11.0374 26.4423 10.7472C26.3227 10.457 26.147 10.1933 25.9253 9.97112C25.7036 9.74897 25.4402 9.57276 25.1503 9.4526C24.8603 9.33243 24.5495 9.27068 24.2356 9.27087ZM19.9122 6.33914C20.0338 6.21715 20.1785 6.12053 20.3377 6.05485C20.497 5.98917 20.6677 5.95575 20.84 5.95653C21.0995 5.95605 21.3534 6.03264 21.5693 6.1766C21.7852 6.32056 21.9536 6.5254 22.053 6.76515C22.1523 7.0049 22.1783 7.26876 22.1275 7.52328C22.0768 7.7778 21.9516 8.01151 21.7678 8.19479L21.763 8.19957L20.7204 9.26609H16.9804L19.9122 6.33914ZM14.1396 13.8526V10.2274H17.4396V13.8526H14.1396ZM17.4396 14.8091V26.0435H14.1396V14.8091H17.4396ZM10.8396 9.07479C10.5952 8.82835 10.4585 8.49516 10.4593 8.14814C10.46 7.80112 10.5982 7.46852 10.8436 7.22314C11.089 6.97776 11.4215 6.83957 11.7686 6.83882C12.1156 6.83807 12.4488 6.97482 12.6952 7.21914L14.747 9.27087H11.0357L10.8396 9.07479ZM5.95652 11.6622C5.95763 11.282 6.10915 10.9177 6.37799 10.6489C6.64682 10.38 7.01112 10.2285 7.3913 10.2274H13.183V13.8526H5.95652V11.6622ZM7.30522 24.6087V14.8091H13.183V26.0435H8.74C8.35981 26.0424 7.99551 25.8908 7.72668 25.622C7.45785 25.3532 7.30633 24.9889 7.30522 24.6087ZM24.3217 24.6087C24.3206 24.9889 24.1691 25.3532 23.9003 25.622C23.6314 25.8908 23.2671 26.0424 22.887 26.0435H18.3961V14.8091H24.3217V24.6087ZM25.6704 13.8526H18.3961V10.2274H24.2356C24.6158 10.2285 24.9801 10.38 25.249 10.6489C25.5178 10.9177 25.6693 11.282 25.6704 11.6622V13.8526Z" fill="#BBBBBB" stroke="#BBBBBB"/>
</svg>
