<svg width="24" height="24" viewBox="0 0 24 24" fill="none" xmlns="http://www.w3.org/2000/svg">
<path d="M20.1328 5.31694L20.1332 5.31727C20.5513 5.73516 20.8829 6.23133 21.1092 6.77743C21.3355 7.32354 21.4519 7.90887 21.4519 8.49999C21.4519 9.09112 21.3355 9.67645 21.1092 10.2226C20.8829 10.7687 20.5513 11.2648 20.1332 11.6827L20.133 11.6829L19.073 12.7429L12.0001 19.8158L4.92723 12.7429L3.86723 11.6829C3.02307 10.8387 2.54883 9.69381 2.54883 8.49999C2.54883 7.30618 3.02307 6.16126 3.86723 5.3171C4.71138 4.47295 5.8563 3.9987 7.05012 3.9987C8.24394 3.9987 9.38886 4.47295 10.233 5.3171L11.293 6.3771C11.6835 6.76763 12.3167 6.76763 12.7072 6.3771L13.7672 5.3171L13.7674 5.31694C14.1853 4.89885 14.6815 4.56719 15.2276 4.34091C15.7737 4.11463 16.359 3.99817 16.9501 3.99817C17.5412 3.99817 18.1266 4.11463 18.6727 4.34091C19.2188 4.56719 19.715 4.89885 20.1328 5.31694Z" stroke="#232323" stroke-width="2" stroke-linecap="round" stroke-linejoin="round"/>
</svg>
