<svg width="24" height="24" viewBox="0 0 24 24" fill="none" xmlns="http://www.w3.org/2000/svg">
<path d="M20.2223 5.32441L20.2226 5.32474C20.643 5.745 20.9766 6.24398 21.2041 6.79317C21.4317 7.34237 21.5488 7.93102 21.5488 8.5255C21.5488 9.11997 21.4317 9.70862 21.2041 10.2578C20.9766 10.807 20.643 11.306 20.2226 11.7263L20.2224 11.7264L19.1575 12.7913L12.0486 19.9003L4.93961 12.7913L3.87469 11.7264C3.02576 10.8775 2.54883 9.72607 2.54883 8.5255C2.54883 7.32492 3.02576 6.17351 3.87469 5.32457C4.72363 4.47563 5.87504 3.99871 7.07562 3.99871C8.2762 3.99871 9.4276 4.47563 10.2765 5.32457L11.3415 6.38949C11.732 6.78001 12.3651 6.78001 12.7557 6.38949L13.8206 5.32457L13.8207 5.32441C14.241 4.90395 14.74 4.57041 15.2892 4.34285C15.8384 4.11529 16.427 3.99817 17.0215 3.99817C17.616 3.99817 18.2046 4.11529 18.7538 4.34285C19.303 4.57042 19.802 4.90395 20.2223 5.32441Z" fill="#FF3366" stroke="#FF3366" stroke-width="2" stroke-linecap="round" stroke-linejoin="round"/>
</svg>
