<svg width="32" height="32" viewBox="0 0 32 32" fill="none" xmlns="http://www.w3.org/2000/svg">
<path fill-rule="evenodd" clip-rule="evenodd" d="M8.1903 22.6851C10.5005 24.2294 13.2247 25.037 16.0033 25.0011C18.7818 25.037 21.506 24.2294 23.8162 22.6851C26.1264 21.1408 27.9141 18.9324 28.9433 16.3511C29.0276 16.1254 29.0276 15.8769 28.9433 15.6511C27.9141 13.0699 26.1264 10.8614 23.8162 9.31715C21.506 7.77285 18.7818 6.96532 16.0033 7.00114C13.2247 6.96532 10.5005 7.77285 8.1903 9.31715C5.8801 10.8614 4.09244 13.0699 3.06325 15.6511C2.97892 15.8769 2.97892 16.1254 3.06325 16.3511C4.09244 18.9324 5.8801 21.1408 8.1903 22.6851ZM9.49197 21.1411C7.55061 19.8967 6.01758 18.1094 5.08325 16.0011C6.01758 13.8929 7.55061 12.1056 9.49197 10.8611C11.4333 9.61668 13.6975 8.96991 16.0033 9.00114C18.309 8.96991 20.5732 9.61668 22.5145 10.8611C24.4559 12.1056 25.9889 13.8929 26.9233 16.0011C25.9889 18.1094 24.4559 19.8967 22.5145 21.1411C20.5732 22.3856 18.309 23.0324 16.0033 23.0011C13.6975 23.0324 11.4333 22.3856 9.49197 21.1411ZM13.2251 20.1586C14.0473 20.708 15.014 21.0012 16.0029 21.0012C17.329 21.0012 18.6008 20.4744 19.5385 19.5368C20.4761 18.5991 21.0029 17.3273 21.0029 16.0012C21.0029 15.0123 20.7097 14.0456 20.1603 13.2234C19.6109 12.4011 18.83 11.7603 17.9164 11.3818C17.0027 11.0034 15.9974 10.9044 15.0275 11.0973C14.0576 11.2902 13.1667 11.7664 12.4674 12.4657C11.7681 13.165 11.2919 14.0559 11.099 15.0258C10.9061 15.9957 11.0051 17.001 11.3835 17.9146C11.762 18.8283 12.4028 19.6092 13.2251 20.1586ZM14.3362 13.5068C14.8296 13.1772 15.4096 13.0012 16.0029 13.0012C16.7986 13.0012 17.5616 13.3173 18.1243 13.8799C18.6869 14.4425 19.0029 15.2056 19.0029 16.0012C19.0029 16.5946 18.827 17.1746 18.4973 17.6679C18.1677 18.1613 17.6992 18.5458 17.151 18.7729C16.6028 18.9999 15.9996 19.0593 15.4177 18.9436C14.8357 18.8278 14.3012 18.5421 13.8816 18.1225C13.4621 17.703 13.1763 17.1684 13.0606 16.5865C12.9448 16.0046 13.0042 15.4014 13.2313 14.8532C13.4584 14.305 13.8429 13.8365 14.3362 13.5068Z" fill="#232323"/>
</svg>
