<svg width="24" height="25" viewBox="0 0 24 25" fill="none" xmlns="http://www.w3.org/2000/svg">
<g filter="url(#filter0_d_14155_13630)">
<path fill-rule="evenodd" clip-rule="evenodd" d="M12.8229 3.70716C12.7679 3.3078 12.4205 3 12.0001 3C11.5415 3 11.1698 3.36631 11.1698 3.81818L11.1698 18.1999L5.91866 13.0047L5.8257 12.9253C5.50114 12.687 5.0398 12.7124 4.74441 13.0023C4.41948 13.3212 4.41839 13.8392 4.74198 14.1594L11.4004 20.7477C11.4386 20.787 11.4806 20.8224 11.526 20.8536C11.8502 21.0766 12.3001 21.0452 12.5889 20.7593L19.2581 14.1593L19.3383 14.0674C19.5787 13.7466 19.551 13.2921 19.2555 13.0023C18.9306 12.6834 18.4049 12.6845 18.0813 13.0047L12.8304 18.2012L12.8304 3.81818L12.8229 3.70716Z" fill="#232323"/>
<path d="M12.8229 3.70716L13.5711 3.65607L13.5694 3.63038L13.5658 3.60487L12.8229 3.70716ZM11.1698 18.1999L10.6423 18.7331L11.9198 19.997V18.1999H11.1698ZM5.91866 13.0047L6.44614 12.4715L6.42665 12.4522L6.40579 12.4344L5.91866 13.0047ZM5.8257 12.9253L6.31283 12.355L6.29185 12.3371L6.2696 12.3208L5.8257 12.9253ZM4.74441 13.0023L5.26972 13.5376V13.5376L4.74441 13.0023ZM4.74198 14.1594L4.21446 14.6925H4.21446L4.74198 14.1594ZM11.4004 20.7477L11.9382 20.2249L11.9331 20.2197L11.928 20.2146L11.4004 20.7477ZM11.526 20.8536L11.951 20.2357L11.9505 20.2353L11.526 20.8536ZM12.5889 20.7593L12.0614 20.2262H12.0614L12.5889 20.7593ZM19.2581 14.1593L19.7856 14.6924L19.8052 14.6731L19.8233 14.6523L19.2581 14.1593ZM19.3383 14.0674L19.9035 14.5604L19.9217 14.5395L19.9384 14.5172L19.3383 14.0674ZM19.2555 13.0023L18.7303 13.5376L19.2555 13.0023ZM18.0813 13.0047L17.5537 12.4717L17.5537 12.4717L18.0813 13.0047ZM12.8304 18.2012H12.0804V19.9986L13.358 18.7343L12.8304 18.2012ZM12.8304 3.81818L13.5804 3.81818V3.79261L13.5787 3.7671L12.8304 3.81818ZM12.0001 3.75C12.0491 3.75 12.0764 3.78455 12.0799 3.80945L13.5658 3.60487C13.4593 2.83106 12.7918 2.25 12.0001 2.25V3.75ZM11.9198 3.81818C11.9198 3.7909 11.9453 3.75 12.0001 3.75V2.25C11.1378 2.25 10.4198 2.94173 10.4198 3.81818L11.9198 3.81818ZM11.9198 18.1999L11.9198 3.81818L10.4198 3.81818L10.4198 18.1999H11.9198ZM5.39117 13.5379L10.6423 18.7331L11.6973 17.6668L6.44614 12.4715L5.39117 13.5379ZM5.33856 13.4955L5.43152 13.575L6.40579 12.4344L6.31283 12.355L5.33856 13.4955ZM5.26972 13.5376C5.28365 13.5239 5.30164 13.5155 5.32383 13.5141C5.34717 13.5125 5.36741 13.5192 5.38179 13.5298L6.2696 12.3208C5.65395 11.8687 4.78156 11.9151 4.21911 12.467L5.26972 13.5376ZM5.2695 13.6263C5.24345 13.6005 5.24348 13.5634 5.26972 13.5376L4.21911 12.467C3.59548 13.079 3.59334 14.0779 4.21446 14.6925L5.2695 13.6263ZM11.928 20.2146L5.2695 13.6263L4.21446 14.6925L10.8729 21.2809L11.928 20.2146ZM11.9505 20.2353C11.946 20.2322 11.9418 20.2287 11.9382 20.2249L10.8627 21.2705C10.9353 21.3452 11.0153 21.4127 11.1015 21.4719L11.9505 20.2353ZM12.0614 20.2262C12.0477 20.2398 12.0303 20.2481 12.0086 20.2499C11.9857 20.2518 11.9655 20.2456 11.951 20.2357L11.1009 21.4715C11.7155 21.8943 12.5662 21.837 13.1165 21.2924L12.0614 20.2262ZM18.7305 13.6262L12.0614 20.2262L13.1165 21.2924L19.7856 14.6924L18.7305 13.6262ZM18.7731 13.5744L18.6929 13.6663L19.8233 14.6523L19.9035 14.5604L18.7731 13.5744ZM18.7303 13.5376C18.7543 13.5612 18.7558 13.594 18.7381 13.6175L19.9384 14.5172C20.4017 13.8991 20.3476 13.023 19.7808 12.4669L18.7303 13.5376ZM18.6089 13.5378C18.6239 13.523 18.6443 13.5139 18.6695 13.5139C18.6947 13.5138 18.7152 13.5228 18.7303 13.5376L19.7808 12.4669C19.1633 11.861 18.1687 11.8631 17.5537 12.4717L18.6089 13.5378ZM13.358 18.7343L18.6089 13.5378L17.5537 12.4717L12.3029 17.6681L13.358 18.7343ZM12.0804 3.81818L12.0804 18.2012H13.5804L13.5804 3.81818L12.0804 3.81818ZM12.0746 3.75825L12.0822 3.86927L13.5787 3.7671L13.5711 3.65607L12.0746 3.75825Z" fill="#232323"/>
</g>
<defs>
<filter id="filter0_d_14155_13630" x="-2" y="-1" width="28" height="28" filterUnits="userSpaceOnUse" color-interpolation-filters="sRGB">
<feFlood flood-opacity="0" result="BackgroundImageFix"/>
<feColorMatrix in="SourceAlpha" type="matrix" values="0 0 0 0 0 0 0 0 0 0 0 0 0 0 0 0 0 0 127 0" result="hardAlpha"/>
<feOffset dy="1"/>
<feGaussianBlur stdDeviation="1"/>
<feComposite in2="hardAlpha" operator="out"/>
<feColorMatrix type="matrix" values="0 0 0 0 0 0 0 0 0 0 0 0 0 0 0 0 0 0 0.2 0"/>
<feBlend mode="normal" in2="BackgroundImageFix" result="effect1_dropShadow_14155_13630"/>
<feBlend mode="normal" in="SourceGraphic" in2="effect1_dropShadow_14155_13630" result="shape"/>
</filter>
</defs>
</svg>
